<?xml version="1.0" encoding="UTF-8" standalone="no"?>
<!-- Created with Inkscape (http://www.inkscape.org/) -->

<svg
   xmlns:dc="http://purl.org/dc/elements/1.1/"
   xmlns:cc="http://creativecommons.org/ns#"
   xmlns:rdf="http://www.w3.org/1999/02/22-rdf-syntax-ns#"
   xmlns:svg="http://www.w3.org/2000/svg"
   xmlns="http://www.w3.org/2000/svg"
   xmlns:sodipodi="http://sodipodi.sourceforge.net/DTD/sodipodi-0.dtd"
   xmlns:inkscape="http://www.inkscape.org/namespaces/inkscape"
   width="4000"
   height="4000"
   id="svg2"
   version="1.1"
   inkscape:version="0.48.3.1 r9886"
   sodipodi:docname="1-track.svg">
  <defs
     id="defs4" />
  <sodipodi:namedview
     id="base"
     pagecolor="#ff7c00"
     bordercolor="#666666"
     borderopacity="1.0"
     inkscape:pageopacity="1"
     inkscape:pageshadow="2"
     inkscape:zoom="0.49497476"
     inkscape:cx="2428.7225"
     inkscape:cy="997.52207"
     inkscape:document-units="px"
     inkscape:current-layer="layer1"
     showgrid="false"
     inkscape:window-width="1366"
     inkscape:window-height="768"
     inkscape:window-x="0"
     inkscape:window-y="0"
     inkscape:window-maximized="0" />
  <metadata
     id="metadata7">
    <rdf:RDF>
      <cc:Work
         rdf:about="">
        <dc:format>image/svg+xml</dc:format>
        <dc:type
           rdf:resource="http://purl.org/dc/dcmitype/StillImage" />
      </cc:Work>
    </rdf:RDF>
  </metadata>
  <g
     inkscape:label="Layer 1"
     inkscape:groupmode="layer"
     id="layer1"
     transform="translate(0,2947.6378)">
    <path
       style="fill:none;stroke:#000000;stroke-width:1px;stroke-linecap:butt;stroke-linejoin:miter;stroke-opacity:1"
       d="M 331.33003,274.55742 2569.8281,234.15132 3515.3309,694.78088 3507.2496,1438.2531 3103.1886,1818.0705 3103.1886,2351.431 3491.0872,2682.7611 3491.0872,3490.8831 3119.3511,3749.4822 1398.0511,3725.2385 501.03566,3434.3146 234.35539,1818.0705 z"
       id="path3130"
       inkscape:connector-curvature="0"
       transform="translate(0,-2947.6378)" />
    <path
       style="fill:#008000;stroke:#000000;stroke-width:1px;stroke-linecap:butt;stroke-linejoin:miter;stroke-opacity:1"
       d="M 1042.4774,1066.517 2238.498,953.37993 2537.5032,1195.8165 2270.8229,1567.5527 2230.4168,2359.5123 2448.6098,2755.4921 2464.7722,3135.3094 1406.1323,3054.4972 1050.5586,2214.0503 z"
       id="path3132"
       inkscape:connector-curvature="0"
       transform="translate(0,-2947.6378)" />
    <path
       style="fill:#808080;stroke-width:10;stroke-miterlimit:4;stroke-dasharray:none"
       d="M 2059.1226,3731.0483 1400.4994,3721.0748 956.03601,3577.0567 C 711.58115,3497.8468 509.70437,3430.4161 507.42095,3427.2108 505.13753,3424.0055 443.78256,3060.189 371.07657,2618.7298 L 238.88387,1816.0767 286.9053,1050.4841 C 313.3171,629.40808 336.4883,283.45576 338.39687,281.70111 340.30544,279.94647 841.89251,269.39344 1453.0348,258.24994 L 2564.2026,237.98904 3040.0623,469.39937 3515.9221,700.80971 3510.8352,777.61061 C 3508.0375,819.8511 3505.3782,985.32728 3504.9258,1145.3354 L 3504.1031,1436.2594 3302.8534,1624.7438 3101.6037,1813.2283 3101.6041,2085.3734 3101.6043,2357.5185 3295.6279,2522.5756 3489.6516,2687.6328 3487.5567,3088.0897 3485.4617,3488.5466 3303.6343,3615.6838 3121.8068,3742.8209 2919.7763,3741.9214 C 2808.6595,3741.4266 2421.3653,3736.5337 2059.1226,3731.0483 z M 2468.2227,3090.8892 C 2465.6747,3065.3324 2461.2548,2978.9643 2458.4007,2898.9603 L 2453.2113,2753.4983 2344.09,2555.6165 2234.9687,2357.7348 2254.9922,1963.9922 2275.0157,1570.2496 2409.9024,1382.3687 C 2539.9167,1201.2743 2544.2166,1194.038 2528.9424,1182.0335 2520.2268,1175.1836 2451.8166,1119.844 2376.9198,1059.0567 L 2240.744,948.53424 1654.9604,1004.3284 C 1332.7794,1035.0151 1062.3972,1060.2035 1054.1109,1060.3026 1039.5183,1060.477 1039.1584,1078.6958 1042.6536,1640.3102 L 1046.2622,2220.1377 1222.6398,2636.3206 C 1319.6474,2865.2212 1400.1848,3053.9419 1401.6118,3055.7 1404.7113,3059.5188 2367.4355,3135.1358 2429.6356,3136.4459 L 2472.8555,3137.3563 2468.2227,3090.8892 z"
       id="path3134"
       inkscape:connector-curvature="0"
       transform="translate(0,-2947.6378)" />
    <path
       style="fill:#ececec;stroke-width:10;stroke-miterlimit:4;stroke-dasharray:none"
       id="path3914"
       d="M 682.86312,904.54461 C 682.86312,932.7563 682.86312,960.96798 682.86312,989.17967 682.86312,1005.1474 682.86312,1021.1151 682.86312,1037.0827 682.86312,1051.3817 682.86312,1065.6806 682.86312,1079.9796 682.86312,1090.371 682.86312,1100.7624 682.86312,1111.1538 682.86312,1115.5111 682.86312,1119.8684 682.86312,1124.2257 682.86312,1133.7251 682.86312,1143.2246 682.86312,1152.724 682.86312,1160.8874 682.86312,1169.0508 682.86312,1177.2142 682.86312,1181.2536 682.86312,1185.293 682.86312,1189.3325 682.86312,1191.0934 682.86312,1192.8543 682.86312,1194.6152 682.86312,1246.0438 610.13214,1246.0438 610.13214,1194.6152 L 610.13214,1194.6152 C 610.13214,1192.8543 610.13214,1191.0934 610.13214,1189.3325 610.13214,1185.293 610.13214,1181.2536 610.13214,1177.2142 610.13214,1169.0508 610.13214,1160.8874 610.13214,1152.724 610.13214,1143.2246 610.13214,1133.7251 610.13214,1124.2257 610.13214,1119.8684 610.13214,1115.5111 610.13214,1111.1538 610.13214,1100.7624 610.13214,1090.371 610.13214,1079.9796 610.13214,1065.6806 610.13214,1051.3817 610.13214,1037.0827 610.13214,1021.1151 610.13214,1005.1474 610.13214,989.17967 610.13214,960.96798 610.13214,932.7563 610.13214,904.54461 610.13214,853.11604 682.86312,853.11604 682.86312,904.54461 z"
       inkscape:connector-curvature="0"
       transform="translate(0,-2947.6378)" />
    <path
       style="fill:#ececec;stroke-width:10;stroke-miterlimit:4;stroke-dasharray:none"
       id="path3916"
       d="M 658.61946,1695.5376 C 658.61946,1721.1672 658.61946,1746.7969 658.61946,1772.4266 658.61946,1784.2074 658.61946,1795.9881 658.61946,1807.7689 658.61946,1816.5897 658.61946,1825.4105 658.61946,1834.2313 658.61946,1841.6325 658.61946,1849.0336 658.61946,1856.4348 658.61946,1861.5558 658.61946,1866.6768 658.61946,1871.7978 658.61946,1877.1577 658.61946,1882.5176 658.61946,1887.8776 658.61946,1888.785 658.61946,1889.6925 658.61946,1890.5999 658.61946,1942.0285 585.88848,1942.0285 585.88848,1890.5999 L 585.88848,1890.5999 C 585.88848,1889.6925 585.88848,1888.785 585.88848,1887.8776 585.88848,1882.5176 585.88848,1877.1577 585.88848,1871.7978 585.88848,1866.6768 585.88848,1861.5558 585.88848,1856.4348 585.88848,1849.0336 585.88848,1841.6325 585.88848,1834.2313 585.88848,1825.4105 585.88848,1816.5897 585.88848,1807.7689 585.88848,1795.9881 585.88848,1784.2074 585.88848,1772.4266 585.88848,1746.7969 585.88848,1721.1672 585.88848,1695.5376 585.88848,1644.109 658.61946,1644.109 658.61946,1695.5376 z"
       inkscape:connector-curvature="0"
       transform="translate(0,-2947.6378)" />
    <path
       style="fill:#ececec;stroke-width:10;stroke-miterlimit:4;stroke-dasharray:none"
       id="path3918"
       d="M 724.11674,2261.4509 C 731.58086,2289.1473 738.7519,2316.8846 746.52924,2344.5006 749.35868,2355.8758 751.88367,2365.8122 756.16483,2375.7316 761.04402,2383.7276 764.39659,2392.3584 768.43599,2400.2099 773.05231,2407.2891 774.06522,2416.8202 779.56146,2423.3962 786.32133,2432.4042 790.62912,2442.7644 793.93162,2453.419 791.02472,2446.1991 799.70218,2475.5181 795.99802,2467.9927 782.44762,2440.4637 793.13297,2450.1084 777.62546,2439.0249 791.88496,2448.1475 799.5752,2458.7299 803.0075,2475.25 802.88473,2471.6953 804.75828,2489.3539 804.04119,2485.8701 800.53957,2468.8586 806.50697,2490.5317 806.65122,2491.0766 809.57924,2498.3728 812.76617,2505.5349 815.4858,2512.9108 832.41806,2561.472 763.74205,2585.4179 746.8098,2536.8566 L 746.8098,2536.8566 C 744.68066,2527.3582 737.62213,2519.0147 736.21363,2509.1968 734.53325,2502.242 731.56397,2495.2945 731.42171,2488.1057 734.37835,2497.4616 737.74768,2499.4481 746.46473,2504.7426 735.23204,2497.3977 721.33692,2488.1814 723.48218,2471.4931 726.63139,2478.7946 719.78602,2461.9747 718.19632,2462.4362 712.54067,2453.1311 707.85553,2443.4045 703.70983,2433.381 698.81035,2423.7691 694.74243,2413.8626 689.35951,2404.4865 683.75699,2391.4426 679.82933,2378.0044 676.51884,2364.2069 668.55629,2335.9029 661.22459,2307.4703 653.55733,2279.0908 641.08407,2229.1977 711.64348,2211.5579 724.11674,2261.4509 z"
       inkscape:connector-curvature="0"
       transform="translate(0,-2947.6378)" />
    <path
       style="fill:#ececec;stroke-width:10;stroke-miterlimit:4;stroke-dasharray:none"
       id="path3920"
       d="M 906.89633,2862.3383 C 916.97416,2880.9188 928.40122,2898.743 938.39805,2917.3717 940.80711,2923.3189 944.82819,2929.5543 945.44363,2930.1281 952.38046,2940.2914 959.68135,2950.0801 967.69917,2959.409 974.67668,2967.0155 978.60668,2976.7354 984.67832,2984.9143 990.5481,2991.5241 980.47028,2984.5841 980.47569,2981.3748 980.48041,2978.5769 984.89101,2984.8176 986.99228,2986.6649 988.81829,2988.2702 992.03142,2991.7886 993.76603,2993.6461 1005.0494,3005.323 1013.0301,3019.5779 1021.5506,3033.2693 1027.8756,3041.9499 1031.3397,3052.0609 1035.3327,3061.8764 1035.6504,3062.6572 1034.8183,3060.2708 1034.5611,3059.4681 1037.134,3063.1572 1042.1522,3065.9085 1028.85,3054.1031 1026.972,3052.4364 1023.8035,3051.4421 1021.5838,3050.5649 1037.0779,3054.5959 1048.8641,3064.3353 1059.6842,3075.6253 1059.5134,3074.3992 1061.8648,3076.4285 1062.2459,3076.645 1106.1959,3103.3526 1068.4256,3165.5072 1024.4757,3138.7996 L 1024.4757,3138.7996 C 1018.2941,3134.9677 1012.2285,3131.0072 1007.0492,3125.8184 1005.5973,3124.284 1000.7704,3120.5233 1002.797,3121.1194 1003.8207,3121.4205 1006.7054,3122.8229 1005.766,3122.3168 1001.9434,3120.2573 997.90879,3119.5085 1006.4498,3121.7039 990.84143,3117.2015 978.01082,3108.8171 970.53756,3093.9759 966.98959,3086.5056 964.41647,3078.5994 959.80018,3071.697 953.75357,3061.9803 948.37176,3051.5702 940.52171,3043.1924 939.49724,3042.0855 931.01385,3034.8367 925.70607,3027.4827 920.93052,3020.7872 916.97198,3013.6396 912.49054,3006.7567 904.57022,2997.5052 896.65248,2988.0665 890.37959,2977.6439 883.76317,2969.7113 878.3779,2961.1466 874.25739,2951.6613 865.4327,2935.0716 855.05623,2919.3557 846.38049,2902.6822 817.85305,2859.8911 878.36889,2819.5472 906.89633,2862.3383 z"
       inkscape:connector-curvature="0"
       transform="translate(0,-2947.6378)" />
    <path
       style="fill:#ececec;stroke-width:10;stroke-miterlimit:4;stroke-dasharray:none"
       id="path3922"
       d="M 1355.4644,3267.3075 C 1371.6957,3276.4233 1388.3496,3284.5696 1404.9339,3292.9602 1414.7584,3298.2886 1425.4217,3301.3872 1435.4693,3306.2383 1445.3591,3309.7218 1454.5115,3314.9184 1463.9904,3319.3344 1473.8195,3323.2963 1483.8026,3326.9171 1493.7479,3330.6426 1503.469,3332.3803 1512.4383,3336.0725 1521.5043,3339.8566 1519.3829,3339.1425 1529.8478,3343.1054 1527.7651,3342.2851 1524.7655,3341.1036 1524.8713,3341.421 1526.3083,3341.4222 1536.068,3340.6649 1544.8816,3345.3839 1554.0489,3347.6313 1560.5398,3348.8327 1567.1281,3349.1533 1573.7105,3349.3859 1578.3669,3349.5276 1583.0263,3349.526 1587.6844,3349.5137 1639.1128,3349.3841 1639.2961,3422.1148 1587.8677,3422.2445 L 1587.8677,3422.2445 C 1582.2598,3422.258 1576.6504,3422.251 1571.0448,3422.068 1558.7999,3421.6065 1546.5317,3420.7065 1534.6017,3417.7142 1526.1084,3415.264 1530.7514,3416.7265 1524.8634,3414.7131 1523.9616,3414.4047 1521.2224,3414.0073 1522.1531,3413.8021 1533.8454,3411.2233 1523.6933,3415.9803 1517.9528,3413.6716 1509.0593,3412.5719 1500.4685,3410.2883 1492.3338,3406.4815 1490.6001,3405.7079 1488.8369,3404.9973 1487.1326,3404.1609 1487.0703,3404.1303 1487.1889,3404.0338 1487.2171,3403.9703 1487.8248,3404.0003 1488.4326,3404.0304 1489.0403,3404.0604 1482.0761,3402.3739 1474.8957,3401.5062 1468.203,3398.74 1456.3778,3394.2988 1444.5202,3389.9991 1432.8902,3385.0807 1423.0893,3380.3995 1413.6024,3375.279 1403.4019,3371.5183 1393.1023,3366.2617 1381.5203,3363.7297 1371.5669,3357.5855 1355.4992,3348.9649 1338.7382,3341.5512 1322.9381,3332.3601 1276.939,3309.3605 1309.4653,3244.3079 1355.4644,3267.3075 z"
       inkscape:connector-curvature="0"
       transform="translate(0,-2947.6378)" />
    <path
       style="fill:#ececec;stroke-width:10;stroke-miterlimit:4;stroke-dasharray:none"
       id="path3924"
       d="M 1919.0774,3375.0376 C 1939.8018,3377.9191 1960.6582,3379.6878 1981.5376,3380.944 1995.2672,3381.6808 2009.0178,3381.7999 2022.7636,3381.8405 2032.5975,3381.8546 2042.4314,3381.8203 2052.2652,3381.8043 2063.9232,3381.79 2075.5812,3381.7886 2087.2392,3381.7869 2095.4702,3381.786 2103.7012,3381.7862 2111.9322,3381.7864 2121.2076,3381.7866 2130.483,3381.7866 2139.7585,3381.7866 2146.9741,3381.7866 2154.1897,3381.7866 2161.4054,3381.7866 2165.8653,3381.7866 2170.3251,3381.7866 2174.785,3381.7866 2184.0249,3381.683 2191.4456,3385.8512 2199.7171,3388.7128 2248.2347,3405.77 2224.1122,3474.3842 2175.5947,3457.327 L 2175.5947,3457.327 C 2170.5078,3455.5222 2156.6844,3451.0859 2174.785,3454.5176 2170.3251,3454.5176 2165.8653,3454.5176 2161.4054,3454.5176 2154.1897,3454.5176 2146.974,3454.5176 2139.7583,3454.5176 2130.4825,3454.5176 2121.2067,3454.5176 2111.9309,3454.5174 2103.7039,3454.5172 2095.4769,3454.517 2087.2499,3454.5179 2075.6277,3454.5196 2064.0055,3454.521 2052.3833,3454.5352 2042.4372,3454.5513 2032.4911,3454.5862 2022.545,3454.5711 2007.4056,3454.5248 1992.2611,3454.3742 1977.1407,3453.5419 1954.2924,3452.1499 1931.469,3450.2106 1908.7917,3447.0376 1857.88,3439.7645 1868.1657,3367.7645 1919.0774,3375.0376 z"
       inkscape:connector-curvature="0"
       transform="translate(0,-2947.6378)" />
    <path
       style="fill:#ececec;stroke-width:10;stroke-miterlimit:4;stroke-dasharray:none"
       id="path3926"
       d="M 2531.8033,3373.6383 C 2550.1382,3368.8719 2568.1757,3363.5685 2586.1325,3357.5687 2595.0115,3355.6485 2602.3869,3351.038 2610.6791,3347.5441 2619.7886,3342.2106 2629.7521,3338.3218 2639.0059,3333.2095 2644.3556,3329.5858 2650.5192,3327.4802 2656.2252,3324.5585 2661.6823,3321.7644 2653.0704,3325.8825 2653.942,3325.2049 2655.8721,3323.7045 2657.891,3322.322 2659.8655,3320.8805 2666.6866,3316.8398 2672.4168,3312.6191 2679.3427,3308.4614 2689.7493,3303.1884 2701.2665,3301.6322 2712.7545,3301.0474 2726.332,3297.8506 2690.1074,3311.2246 2709.636,3299.9391 2698.7591,3308.9597 2702.2844,3304.4868 2697.3667,3311.8291 2720.0101,3265.6536 2785.3121,3297.6762 2762.6687,3343.8517 L 2762.6687,3343.8517 C 2755.4333,3356.2998 2760.386,3349.4602 2745.9989,3362.9275 2736.7969,3368.2354 2727.3546,3373.8013 2716.1835,3373.6975 2714.8423,3373.7505 2708.2266,3374.7702 2713.0157,3372.9279 2721.5189,3366.3991 2702.8437,3380.7529 2701.2815,3380.6676 2692.6774,3387.2374 2682.944,3392.3964 2673.1645,3397.42 2661.7489,3403.3791 2650.0226,3408.7052 2638.6192,3414.6942 2628.7992,3418.6775 2619.6079,3424.2224 2609.1367,3426.5658 2591.1773,3432.5384 2573.1795,3438.0745 2554.8029,3442.6369 2506.0135,3458.9001 2483.0139,3389.9014 2531.8033,3373.6383 z"
       inkscape:connector-curvature="0"
       transform="translate(0,-2947.6378)" />
    <path
       style="fill:#ececec;stroke-width:10;stroke-miterlimit:4;stroke-dasharray:none"
       id="path3928"
       d="M 2812.0235,3134.1722 C 2817.4906,3119.6209 2820.7203,3104.4035 2825.8751,3089.7702 2829.7862,3080.9897 2830.9753,3071.5012 2831.8369,3062.0268 2830.702,3050.1846 2836.7947,3039.3117 2838.3222,3027.9975 2839.8653,3017.1921 2840.1896,3006.2567 2840.4725,2995.3593 2840.6196,2988.0262 2840.6172,2980.6916 2840.5924,2973.3575 2839.8969,2957.6397 2848.9454,2945.4667 2857.0122,2933.1324 2860.818,2927.0975 2863.0839,2920.4676 2864.939,2913.6352 2864.7962,2911.8371 2864.9311,2908.829 2864.9323,2906.6211 2864.9206,2905.0579 2864.8943,2903.4949 2864.8754,2901.9318 2864.2622,2850.5068 2936.988,2849.6397 2937.6012,2901.0646 L 2937.6012,2901.0646 C 2937.6237,2902.9733 2937.6592,2904.8819 2937.6631,2906.7908 2937.6321,2915.6596 2937.2185,2924.5399 2934.9951,2933.1783 2931.0299,2947.1985 2925.7235,2960.7765 2917.79,2973.0805 2909.0483,2986.2853 2910.8266,2987.0863 2913.3129,2970.7719 2913.4304,2970.0008 2913.3196,2972.3319 2913.3229,2973.1119 2913.35,2981.1666 2913.3482,2989.222 2913.1783,2997.2755 2912.7607,3012.9203 2912.2004,3028.6474 2909.2575,3044.0591 2905.6731,3058.5922 2904.5538,3055.7269 2904.2258,3069.0723 2902.6248,3084.883 2900.135,3100.6893 2893.9254,3115.4403 2887.4071,3128.1672 2887.6836,3144.3189 2881.0222,3157.1717 2864.7591,3205.9611 2795.7604,3182.9616 2812.0235,3134.1722 z"
       inkscape:connector-curvature="0"
       transform="translate(0,-2947.6378)" />
    <path
       style="fill:#ececec;stroke-width:10;stroke-miterlimit:4;stroke-dasharray:none"
       id="path3930"
       d="M 2868.8948,2611.7517 C 2856.5988,2598.1878 2844.552,2584.4551 2832.0552,2571.0822 2824.7398,2563.3405 2816.5077,2556.7514 2808.2572,2550.0495 2806.9871,2549.7812 2788.7999,2532.5648 2796.3664,2540.0641 2782.5213,2530.5146 2791.6169,2537.5333 2781.906,2528.6121 2782.6162,2529.3536 2783.3265,2530.0951 2784.0368,2530.8367 2784.0847,2530.9165 2784.2583,2531.1269 2784.1803,2531.0761 2782.6701,2530.0447 2781.1598,2529.0133 2779.6495,2527.9818 2779.4329,2527.9426 2779.2163,2527.9034 2778.9997,2527.8641 2771.341,2525.0994 2765.9522,2518.3744 2759.5873,2514.9248 2757.1532,2510.4171 2740.0076,2501.5779 2752.4958,2508.6083 2752.3919,2508.6812 2752.1988,2508.6215 2752.106,2508.6256 2701.8139,2497.8734 2717.0199,2426.7497 2767.3119,2437.502 L 2767.3119,2437.502 C 2772.1953,2438.5986 2769.5929,2437.9559 2775.1064,2439.4812 2783.1516,2442.3703 2790.4519,2446.1309 2796.9694,2451.6808 2798.6623,2453.1224 2804.1282,2455.7633 2801.9358,2456.134 2799.4907,2456.5474 2797.8709,2453.2927 2795.8384,2451.872 2804.4576,2456.9131 2810.1271,2462.7558 2813.8826,2464.0442 2816.2617,2465.4223 2846.563,2484.914 2828.8112,2474.9708 2838.2287,2479.9723 2846.19,2486.5538 2854.1144,2493.5968 2864.9813,2502.4242 2875.5843,2511.463 2885.3139,2521.5513 2898.9576,2536.3192 2912.319,2551.2903 2925.6882,2566.3171 2957.8153,2606.476 2901.022,2651.9107 2868.8948,2611.7517 z"
       inkscape:connector-curvature="0"
       transform="translate(0,-2947.6378)" />
    <path
       style="fill:#ececec;stroke-width:10;stroke-miterlimit:4;stroke-dasharray:none"
       id="path3932"
       d="M 2597.5112,2188.1829 C 2593.1608,2172.6773 2588.6338,2157.2092 2585.151,2141.4809 2582.9347,2131.9286 2582.0726,2122.2307 2581.8693,2112.4538 2583.0516,2125.7885 2576.3081,2094.0246 2576.0011,2092.5035 2574.4987,2085.3267 2574.0171,2077.9911 2573.8408,2070.6775 2573.7838,2066.4272 2573.8318,2062.1764 2573.8444,2057.926 2573.861,2049.6894 2573.865,2041.4528 2573.8677,2033.2162 2573.8685,2030.3289 2573.8688,2027.4416 2573.869,2024.5543 2573.8732,1973.1258 2646.6042,1973.1317 2646.6,2024.5603 L 2646.6,2024.5603 C 2646.5998,2027.4535 2646.5995,2030.3467 2646.5987,2033.24 2646.5959,2041.5412 2646.5919,2049.8423 2646.5751,2058.1435 2646.5639,2061.8438 2646.525,2065.5442 2646.5576,2069.2446 2646.5822,2072.2379 2646.6963,2075.2646 2647.3111,2078.1968 2649.5076,2089.2333 2653.354,2099.8198 2654.5869,2111.0578 2654.6721,2116.1272 2654.9448,2121.1005 2656.2273,2126.055 2659.8915,2143.5249 2665.9606,2160.3975 2669.5112,2177.8972 2676.7843,2228.8089 2604.7843,2239.0946 2597.5112,2188.1829 z"
       inkscape:connector-curvature="0"
       transform="translate(0,-2947.6378)" />
    <path
       style="fill:#ececec;stroke-width:10;stroke-miterlimit:4;stroke-dasharray:none"
       id="path3934"
       d="M 2692.8461,1619.192 C 2701.8673,1599.1403 2709.6269,1578.4167 2719.209,1558.6223 2723.939,1548.2445 2730.0967,1538.6688 2735.1978,1528.4974 2742.8944,1512.3508 2754.9708,1498.7574 2763.2985,1483.0351 2763.7895,1482.9754 2771.2174,1465.246 2768.1216,1472.0797 2770.7794,1455.4594 2781.6467,1443.0122 2792.0301,1430.5168 2798.391,1420.9518 2805.034,1411.6105 2812.5444,1402.8542 2811.2307,1404.1158 2810.1863,1405.478 2809.3455,1407.0487 2823.948,1357.7368 2893.6856,1378.3878 2879.0831,1427.6997 L 2879.0831,1427.6997 C 2876.5045,1435.877 2873.1258,1443.6118 2867.6331,1450.3414 2860.111,1458.9944 2854.3333,1468.7534 2847.308,1477.7837 2842.0057,1483.52 2847.4219,1477.4442 2839.593,1487.6931 2839.1199,1488.3125 2838.3277,1490.1087 2837.9979,1489.4026 2837.3348,1487.9832 2842.4634,1471.416 2840.0031,1483.1633 2837.8033,1495.7554 2832.8605,1507.3282 2826.7744,1518.5401 2818.3955,1533.1514 2808.2464,1546.6029 2800.0841,1561.3542 2794.9484,1571.4295 2789.0012,1580.9825 2784.2116,1591.2485 2774.4059,1609.1497 2768.6787,1629.4973 2759.6964,1647.8422 2739.4377,1695.1125 2672.5873,1666.4623 2692.8461,1619.192 z"
       inkscape:connector-curvature="0"
       transform="translate(0,-2947.6378)" />
    <path
       style="fill:#ececec;stroke-width:10;stroke-miterlimit:4;stroke-dasharray:none"
       id="path3936"
       d="M 2808.2241,1019.3443 C 2808.2241,999.1654 2808.2241,978.98646 2808.2241,958.80752 2808.2241,947.07674 2808.2241,935.34597 2808.2241,923.6152 2809.6772,909.65238 2804.9312,907.87758 2809.572,921.80207 2804.5559,916.74593 2800.731,910.72932 2795.6162,905.79513 2794.1553,903.91899 2775.9673,888.81193 2788.4869,898.79044 2802.5829,904.76398 2780.843,897.22725 2776.8357,895.60463 2765.936,891.00558 2754.8255,886.9268 2743.7152,882.82408 2736.4703,880.82816 2728.9197,876.99354 2721.2584,876.73757 2714.669,876.59634 2709.7096,874.8962 2702.6162,873.28089 2654.3706,855.4689 2679.5606,787.23942 2727.8061,805.05141 L 2727.8061,805.05141 C 2707.3687,802.18204 2727.2493,804.53004 2731.3176,804.70557 2744.1768,806.70226 2756.8236,810.02817 2769.0047,814.63142 2781.0966,819.13114 2793.123,823.75647 2805.0625,828.57444 2805.4005,828.74715 2806.4558,829.10569 2806.0765,829.09258 2804.5451,829.0397 2800.0187,828.16846 2801.5245,828.45225 2809.0807,829.87634 2816.4343,830.98328 2823.2593,834.91024 2831.9902,840.72225 2839.9713,847.02149 2847.2759,854.59875 2855.6008,863.14371 2862.9377,872.50354 2870.3546,881.86119 2877.9635,894.87542 2882.3154,908.38084 2880.9551,923.6152 2880.9551,935.34597 2880.9551,947.07674 2880.9551,958.80752 2880.9551,978.98646 2880.9551,999.1654 2880.9551,1019.3443 2880.9551,1070.7729 2808.2241,1070.7729 2808.2241,1019.3443 z"
       inkscape:connector-curvature="0"
       transform="translate(0,-2947.6378)" />
    <path
       style="fill:#ececec;stroke-width:10;stroke-miterlimit:4;stroke-dasharray:none"
       id="path3938"
       d="M 2339.7257,778.30155 C 2319.0014,775.42006 2298.145,773.65132 2277.2655,772.39514 2266.799,771.75663 2256.3143,771.55515 2245.8309,771.49825 2236.9245,772.07336 2228.7499,770.81096 2219.8972,769.32509 2208.5439,765.42519 2196.5329,764.96103 2184.6594,764.32367 2166.2378,763.56678 2147.7964,763.46743 2129.3616,763.41771 2114.2056,764.3387 2100.4555,762.76651 2086.5911,756.08972 2084.3975,754.4577 2082.2038,752.82568 2080.0101,751.19366 2040.7526,717.97103 2087.7365,662.45248 2126.994,695.67511 L 2126.994,695.67511 C 2125.866,694.94495 2124.738,694.21479 2123.61,693.48463 2113.1011,689.41915 2124.321,693.21778 2110.2515,690.70659 2109.0012,690.48343 2112.7916,690.69981 2114.0617,690.697 2119.2277,690.68558 2124.3937,690.67766 2129.5596,690.687 2149.2797,690.74117 2169.0073,690.85458 2188.7119,691.70567 2205.5675,692.67463 2222.578,693.8279 2238.7512,699.08036 2224.5029,698.40361 2242.9932,698.9766 2246.2355,698.76839 2258.0505,698.83556 2269.8667,699.07737 2281.6624,699.79719 2304.5107,701.18923 2327.3341,703.12851 2350.0114,706.30155 2400.9231,713.57464 2390.6374,785.57464 2339.7257,778.30155 z"
       inkscape:connector-curvature="0"
       transform="translate(0,-2947.6378)" />
    <path
       style="fill:#ececec;stroke-width:10;stroke-miterlimit:4;stroke-dasharray:none"
       id="path3940"
       d="M 1709.3905,705.57056 C 1682.9888,701.99035 1656.304,701.62271 1629.8721,698.48668 1615.023,696.28635 1600.4214,692.71259 1585.4476,691.45093 1573.3565,690.61975 1561.2203,690.69119 1549.1062,690.66894 1534.6248,691.18839 1520.5762,690.8578 1506.5446,686.89167 1494.268,683.61161 1481.2881,683.64481 1468.6585,683.15333 1457.5918,682.76304 1446.5188,682.61452 1435.4459,682.60204 1384.0174,682.53977 1384.1054,609.80884 1435.534,609.87111 L 1435.534,609.87111 C 1447.5365,609.88657 1459.539,610.05054 1471.5345,610.47923 1490.2743,611.23164 1509.3196,611.80199 1527.4173,617.22012 1527.9477,617.42002 1529.5222,617.57997 1529.0086,617.81981 1528.0399,618.2722 1524.7378,617.90559 1525.8048,617.97315 1533.5854,618.46578 1541.4549,617.54704 1549.2431,617.93809 1563.4755,617.96552 1577.7338,617.91636 1591.9329,619.00967 1607.7254,620.47729 1623.2405,623.49043 1638.8375,626.31038 1665.644,629.86291 1692.9064,629.37699 1719.6762,633.57056 1770.5879,640.84366 1760.3022,712.84366 1709.3905,705.57056 z"
       inkscape:connector-curvature="0"
       transform="translate(0,-2947.6378)" />
    <path
       style="fill:#ececec;stroke-width:10;stroke-miterlimit:4;stroke-dasharray:none"
       id="path3942"
       d="M 1043.7921,674.57783 C 1024.3955,674.57783 1004.9989,674.57783 985.60232,674.57783 970.67758,674.57783 955.75284,674.57783 940.82811,674.57783 930.87802,674.57783 920.92793,674.57783 910.97784,674.57783 910.28217,674.82701 882.29324,674.15899 893.725,674.73528 887.37472,676.19133 886.48964,677.06272 883.45613,679.20415 883.06047,679.4994 882.69555,679.84109 882.26917,680.0899 874.88408,684.39945 865.2194,689.48703 868.59046,686.87645 872.64242,683.73857 876.11716,683.61718 879.55446,680.10818 878.80905,681.04053 877.97777,681.91029 877.31822,682.90522 876.59144,684.00156 878.91335,680.99284 879.05839,681.34366 880.27227,684.27968 874.81894,694.92585 873.67006,698.07834 871.55639,704.41768 868.99455,710.21836 866.20672,716.33585 842.87486,762.1673 778.05939,729.17107 801.39125,683.33962 L 801.39125,683.33962 C 801.35449,688.67839 804.27761,673.21838 805.3841,673.0419 810.14279,660.17015 812.72246,646.15926 822.08334,635.53389 828.56446,627.71366 834.1693,624.02957 843.1778,618.7296 844.42381,617.99654 838.56338,622.19035 839.60444,621.1873 840.55404,620.27236 841.74853,619.65161 842.82057,618.88377 853.77304,611.62482 865.55295,606.31329 878.46737,603.62269 889.33874,602.03166 899.99336,601.39767 910.97784,601.84684 920.92793,601.84684 930.87802,601.84684 940.82811,601.84684 955.75284,601.84684 970.67758,601.84684 985.60232,601.84684 1004.9989,601.84684 1024.3955,601.84684 1043.7921,601.84684 1095.2206,601.84684 1095.2206,674.57783 1043.7921,674.57783 z"
       inkscape:connector-curvature="0"
       transform="translate(0,-2947.6378)" />
    <path
       style="fill:#f2f2f2;stroke:#000000;stroke-width:1px;stroke-linecap:butt;stroke-linejoin:miter;stroke-opacity:1"
       d="M 761.655,-1194.217 C 761.655,-1194.217 729.33012,-1266.948 753.57378,-1317.4556 777.81744,-1367.9632 789.93927,-1361.9023 789.93927,-1361.9023 L 765.69561,-1394.2273 870.75148,-1382.1053 834.38599,-1313.4151 822.26415,-1345.7399 C 822.26415,-1345.7399 791.95958,-1305.3338 785.89866,-1275.0292 779.83775,-1244.7247 802.0611,-1202.2983 802.0611,-1202.2983 z"
       id="path3004"
       inkscape:connector-curvature="0"
       sodipodi:nodetypes="cscccccscc" />
    <path
       style="fill:#f2f2f2;stroke:#000000;stroke-width:1px;stroke-linecap:butt;stroke-linejoin:miter;stroke-opacity:1"
       d="M 364.12241,-1207.3489 C 364.12241,-1207.3489 331.79753,-1280.0799 356.04119,-1330.5875 380.28485,-1381.0951 392.40668,-1375.0342 392.40668,-1375.0342 L 368.16302,-1407.3592 473.21889,-1395.2372 436.8534,-1326.547 424.73156,-1358.8718 C 424.73156,-1358.8718 394.42699,-1318.4657 388.36607,-1288.1611 382.30516,-1257.8566 404.52851,-1215.4302 404.52851,-1215.4302 z"
       id="path3004-8"
       inkscape:connector-curvature="0"
       sodipodi:nodetypes="cscccccscc" />
    <path
       style="fill:#f2f2f2;stroke:#000000;stroke-width:1px;stroke-linecap:butt;stroke-linejoin:miter;stroke-opacity:1"
       d="M 1921.3912,-2177.3587 C 1921.3912,-2177.3587 1997.0038,-2202.2068 2044.8178,-2173.0077 2092.6318,-2143.8085 2085.3828,-2132.3575 2085.3828,-2132.3575 L 2119.9816,-2153.2281 2097.358,-2049.9235 2032.6724,-2093.0113 2066.0522,-2101.8215 C 2066.0522,-2101.8215 2028.8979,-2136.0352 1999.3562,-2145.1124 1969.8147,-2154.1896 1925.3688,-2136.3448 1925.3688,-2136.3448 z"
       id="path3004-0"
       inkscape:connector-curvature="0"
       sodipodi:nodetypes="cscccccscc" />
    <path
       style="fill:#f2f2f2;stroke:#000000;stroke-width:1px;stroke-linecap:butt;stroke-linejoin:miter;stroke-opacity:1"
       d="M 1942.843,-2457.1793 C 1942.843,-2457.1793 2017.0514,-2485.9511 2066.3282,-2459.2947 2115.605,-2432.6381 2108.9653,-2420.8234 2108.9653,-2420.8234 L 2142.4243,-2443.4764 2125.2388,-2339.1292 2058.3866,-2378.7722 2091.2595,-2389.3175 C 2091.2595,-2389.3175 2052.3653,-2421.5396 2022.389,-2429.0581 1992.4129,-2436.5766 1948.962,-2416.4299 1948.962,-2416.4299 z"
       id="path3004-1"
       inkscape:connector-curvature="0"
       sodipodi:nodetypes="cscccccscc" />
    <path
       style="fill:#f2f2f2;stroke:#000000;stroke-width:1px;stroke-linecap:butt;stroke-linejoin:miter;stroke-opacity:1"
       d="M 2823.8017,-212.4609 C 2823.8017,-212.4609 2822.0081,-132.89034 2778.5337,-97.552825 2735.0591,-62.215334 2726.6816,-72.868464 2726.6816,-72.868464 L 2734.8175,-33.289874 2644.9736,-89.072925 2707.1686,-135.68378 2704.3413,-101.27684 C 2704.3413,-101.27684 2748.988,-124.89251 2767.3984,-149.71509 2785.8087,-174.53759 2783.8096,-222.39026 2783.8096,-222.39026 z"
       id="path3004-12"
       inkscape:connector-curvature="0"
       sodipodi:nodetypes="cscccccscc" />
    <path
       style="fill:#f2f2f2;stroke:#000000;stroke-width:1px;stroke-linecap:butt;stroke-linejoin:miter;stroke-opacity:1"
       d="M 3193.0996,-220.36339 C 3193.0996,-220.36339 3207.9016,-142.16115 3172.7314,-98.551258 3137.561,-54.941383 3127.1502,-63.61823 3127.1502,-63.61823 L 3143.3433,-26.598683 3043.8589,-62.466989 3094.9943,-120.99869 3099.3879,-86.756506 C 3099.3879,-86.756506 3138.1437,-119.14498 3150.9863,-147.25496 3163.8289,-175.36484 3151.9167,-221.75424 3151.9167,-221.75424 z"
       id="path3004-11"
       inkscape:connector-curvature="0"
       sodipodi:nodetypes="cscccccscc" />
  </g>
</svg>
