<?xml version="1.0" encoding="UTF-8" standalone="no"?>
<!-- Created with Inkscape (http://www.inkscape.org/) -->

<svg
   xmlns:dc="http://purl.org/dc/elements/1.1/"
   xmlns:cc="http://creativecommons.org/ns#"
   xmlns:rdf="http://www.w3.org/1999/02/22-rdf-syntax-ns#"
   xmlns:svg="http://www.w3.org/2000/svg"
   xmlns="http://www.w3.org/2000/svg"
   version="1.1"
   width="2000"
   height="2000"
   id="svg2985">
  <defs
     id="defs2987" />
  <metadata
     id="metadata2990">
    <rdf:RDF>
      <cc:Work
         rdf:about="">
        <dc:format>image/svg+xml</dc:format>
        <dc:type
           rdf:resource="http://purl.org/dc/dcmitype/StillImage" />
        <dc:title></dc:title>
      </cc:Work>
    </rdf:RDF>
  </metadata>
  <g
     transform="translate(0,947.63782)"
     id="layer1">
    <path
       d="M 308.57143,148.57143 1120,142.85714 1594.2857,200 1800,462.85714 1760,760 1354.2857,885.71429 1022.8571,977.14286 954.28571,1097.1429 1028.5714,1240 1440,1302.8571 1771.4286,1400 1897.1429,1628.5714 1777.1429,1857.1429 1377.1429,1960 742.85714,1920 291.42857,1800 131.42857,1388.5714 74.285714,851.42857 z"
       transform="translate(0,-947.63782)"
       id="path2993"
       style="fill:none;stroke:#ffffff;stroke-width:1px;stroke-linecap:butt;stroke-linejoin:miter;stroke-opacity:1" />
    <path
       d="M 520,371.42857 1114.2857,365.71429 1428.5714,422.85714 1502.8571,531.42857 1297.1429,640 937.14286,742.85714 737.14286,902.85714 697.14286,1114.2857 788.57143,1342.8571 1017.1429,1531.4286 1388.5714,1577.1429 1485.7143,1640 1354.2857,1702.8571 920,1708.5714 451.42857,1577.1429 325.71429,1177.1429 308.57143,822.85714 z"
       transform="translate(0,-947.63782)"
       id="path2995"
       style="fill:none;stroke:#ffffff;stroke-width:1px;stroke-linecap:butt;stroke-linejoin:miter;stroke-opacity:1" />
  </g>
</svg>
