<?xml version="1.0" encoding="UTF-8" standalone="no"?>
<!-- Created with Inkscape (http://www.inkscape.org/) -->

<svg
   xmlns:dc="http://purl.org/dc/elements/1.1/"
   xmlns:cc="http://creativecommons.org/ns#"
   xmlns:rdf="http://www.w3.org/1999/02/22-rdf-syntax-ns#"
   xmlns:svg="http://www.w3.org/2000/svg"
   xmlns="http://www.w3.org/2000/svg"
   xmlns:sodipodi="http://sodipodi.sourceforge.net/DTD/sodipodi-0.dtd"
   xmlns:inkscape="http://www.inkscape.org/namespaces/inkscape"
   width="7000"
   height="4000"
   id="svg2"
   version="1.1"
   inkscape:version="0.48.3.1 r9886"
   sodipodi:docname="2-track.svg">
  <defs
     id="defs4" />
  <sodipodi:namedview
     id="base"
     pagecolor="#ffffff"
     bordercolor="#666666"
     borderopacity="1.0"
     inkscape:pageopacity="0.0"
     inkscape:pageshadow="2"
     inkscape:zoom="0.12374369"
     inkscape:cx="3441.6356"
     inkscape:cy="2003.4578"
     inkscape:document-units="px"
     inkscape:current-layer="layer1"
     showgrid="false"
     inkscape:window-width="1366"
     inkscape:window-height="768"
     inkscape:window-x="0"
     inkscape:window-y="0"
     inkscape:window-maximized="0" />
  <metadata
     id="metadata7">
    <rdf:RDF>
      <cc:Work
         rdf:about="">
        <dc:format>image/svg+xml</dc:format>
        <dc:type
           rdf:resource="http://purl.org/dc/dcmitype/StillImage" />
        <dc:title />
      </cc:Work>
    </rdf:RDF>
  </metadata>
  <g
     inkscape:label="Layer 1"
     inkscape:groupmode="layer"
     id="layer1"
     transform="translate(0,2947.6378)">
    <path
       style="fill:none;stroke:#000000;stroke-width:1px;stroke-linecap:butt;stroke-linejoin:miter;stroke-opacity:1"
       d="M 3211.4286,1840 3577.1429,1794.2857 4000,1748.5714 4308.5714,1622.8571 4331.4286,1371.4286 3965.7143,1222.8571 3348.5714,1040 3257.1429,765.71429 3337.1429,285.71429 3714.2857,114.28572 5840,102.85714 6354.2857,205.71429 6754.2857,514.28572 6788.5714,1040 5714.2857,1462.8571 5611.4286,1668.5714 6400,2342.8571 6400,2777.1429 5622.8571,3428.5714 5394.2857,3862.8571 4811.4286,3931.4286 4240,3782.8571 3931.4286,3371.4286 3554.2857,3280 3131.4286,3531.4286 2914.2857,3771.4286 2400,3828.5714 1737.1429,3851.4286 1348.5714,3657.1429 925.71429,3657.1429 400,3622.8571 102.85714,3394.2857 102.85714,2994.2857 240,2674.2857 1085.7143,2548.5714 1577.1429,2308.5714 1394.2857,2057.1429 560,2080 228.57143,1874.2857 182.85714,1520 400,1177.1429 1097.1429,1165.7143 1485.7143,1062.8571 1474.2857,880 834.28571,731.42857 834.28571,400 1108.5714,205.71429 1920,68.571431 2434.2857,217.14286 2720,457.14286 2857.1429,1017.1429 2605.7143,1405.7143 2502.8571,1920 2502.8571,2240 2765.7143,2377.1429 3188.5714,2354.2857 3280,2114.2857 z"
       id="path3796"
       inkscape:connector-curvature="0"
       transform="translate(0,-2947.6378)" />
    <path
       style="fill:#ecfbff;stroke:#94e4ff;stroke-width:10;stroke-linecap:butt;stroke-linejoin:miter;stroke-opacity:1;stroke-miterlimit:4;stroke-dasharray:none;fill-opacity:1"
       d="M 3520,2137.1429 4160,2068.5714 4651.4286,1851.4286 4811.4286,1554.2857 4822.8571,1200 4651.4286,982.85714 4068.5714,891.42857 3702.8571,742.85714 3714.2857,548.57143 4102.8571,468.57143 4937.1429,434.28572 5805.7143,502.85714 6240,651.42857 6274.2857,811.42857 5725.7143,1005.7143 5097.1429,1245.7143 5005.7143,1508.5714 5017.1429,1737.1429 5382.8571,1977.1429 5851.4286,2365.7143 5851.4286,2548.5714 5474.2857,2811.4286 5040,3291.4286 4891.4286,3497.1429 4560,3508.5714 4468.5714,3371.4286 4377.1429,3120 3657.1429,2811.4286 3154.2857,2902.8571 2982.8571,3142.8571 2937.1429,3360 2582.8571,3520 2194.2857,3634.2857 1942.8571,3565.7143 1645.7143,3360 1211.4286,3234.2857 708.57143,3382.8571 560,3394.2857 468.57143,3222.8571 468.57143,2960 777.14286,2948.5714 1165.7143,3040 1680,2845.7143 1840,2514.2857 1840,2000 1531.4286,1828.5714 788.57143,1794.2857 537.14286,1657.1429 582.85714,1531.4286 960,1554.2857 1565.7143,1451.4286 1862.8571,1188.5714 2080,971.42857 1931.4286,662.85714 1302.8571,605.71429 1268.5714,468.57143 1680,354.28572 2262.8571,480 2480,902.85714 2251.4286,1634.2857 2137.1429,2125.7143 2274.2857,2548.5714 2651.4286,2720 3188.5714,2742.8571 3440,2480 z"
       id="path3798"
       inkscape:connector-curvature="0"
       transform="translate(0,-2947.6378)" />
    <path
       style="fill:none;stroke:#c3ffff;stroke-width:5;stroke-linecap:butt;stroke-linejoin:miter;stroke-opacity:1;stroke-miterlimit:4;stroke-dasharray:none"
       d="M 3211.4286,2148.5714 3600,2125.7143 z"
       id="path3800"
       inkscape:connector-curvature="0"
       transform="translate(0,-2947.6378)" />
    <path
       style="fill:none;stroke:#000000;stroke-width:1px;stroke-linecap:butt;stroke-linejoin:miter;stroke-opacity:1"
       d="M -91.428571,-114.28571 -171.42857,4160 7200,4217.1429 7302.8571,-182.85714 z"
       id="path4310"
       inkscape:connector-curvature="0"
       transform="translate(0,-2947.6378)" />
    <path
       style="fill:#f2f2f2;stroke:#c3efff;stroke-width:57.1428566;stroke-miterlimit:4;stroke-opacity:1;stroke-dasharray:none"
       d="M 3332.4259,4182.1603 C 1408.9974,4166.7016 -164.95296,4153.2796 -165.24147,4152.3334 -167.152,4146.0678 -86.274346,-101.5203 -84.191794,-104.28915 -79.275213,-110.82596 7283.0899,-176.81818 7289.525,-170.38311 7296.6445,-163.2637 7203.7031,4028.3254 7193.9043,4142.0416 L 7187.7495,4213.4702 7008.6592,4211.8685 C 6910.1594,4210.9876 5255.8545,4197.6188 3332.4259,4182.1603 z M 5101.7662,3903.8628 C 5266.3433,3884.4359 5401.5248,3867.7216 5402.1694,3866.7199 5402.8141,3865.7183 5453.297,3768.5221 5514.3539,3650.7284 L 5625.3664,3436.5581 6012.4523,3113.5855 6399.5382,2790.6131 6400.1898,2562.0416 6400.8414,2333.4702 6034.3073,2019.1845 C 5832.7136,1846.3274 5657.3939,1696.787 5644.708,1686.8725 5621.9057,1669.0519 5622.2298,1667.6829 5673.1189,1566.8725 L 5724.5952,1464.8988 6248.5105,1260.2562 C 6536.664,1147.7027 6777.1381,1051.4477 6782.8973,1046.3563 6793.9871,1036.5523 6769.4175,538.19234 6756.6795,514.56787 6746.9168,496.46119 6380.4815,213.81849 6350.6961,201.42044 6337.5047,195.92954 6218.7117,170.00101 6086.7117,143.80151 L 5846.7117,96.166021 4778.1402,102.46685 3709.5688,108.76768 3520.9974,194.12087 3332.4259,279.47404 3291.0416,522.64057 3249.6573,765.80709 3295.4997,903.92437 C 3320.7129,979.88884 3341.9496,1042.941 3342.6921,1044.0403 3343.4346,1045.1395 3477.7142,1085.4446 3641.0912,1133.6074 3804.4681,1181.77 4024.6741,1255.4421 4130.4376,1297.323 L 4322.735,1373.4702 4314.9794,1482.0416 C 4310.7138,1541.7559 4303.3482,1597.652 4298.6114,1606.2552 4293.8746,1614.8584 4223.688,1649.0502 4142.6411,1682.237 4003.3614,1739.2686 3985.572,1743.6056 3818.1402,1761.3487 3624.8118,1781.8362 3296.4705,1821.271 3239.4485,1830.8515 L 3203.6138,1836.8723 3236.3411,1965.1712 C 3277.1647,2125.2095 3277.2246,2131.0661 3238.1402,2141.1164 3209.4449,2148.4952 3208.8048,2149.7565 3230.7798,2155.6198 3254.6355,2161.985 3254.5347,2162.8726 3219.3512,2256.1972 L 3183.8545,2350.3527 3132.4259,2350.9776 C 3104.1402,2351.3214 3011.5688,2356.1172 2926.7117,2361.6349 L 2772.4259,2371.667 2638.1402,2302.3715 2503.8545,2233.0759 2503.8485,2088.9874 C 2503.8431,1963.2781 2510.6139,1911.0136 2556.9301,1679.2493 L 2610.0178,1413.5999 2733.8625,1222.1064 C 2801.977,1116.7851 2857.5552,1020.3274 2857.3696,1007.7559 2857.1839,995.1845 2827.6408,865.15011 2791.7182,718.79061 L 2726.4043,452.68244 2589.5526,337.73717 C 2514.2841,274.51728 2444.9247,218.75768 2435.4206,213.82696 2425.9163,208.89624 2306.4093,172.56392 2169.8493,133.08848 L 1921.5583,61.314935 1529.8493,126.65175 C 1314.4093,162.58699 1125.4009,197.2438 1109.8306,203.66689 1094.2603,210.08996 1023.5461,256.47283 952.68778,306.73992 L 823.85452,398.13464 823.85452,568.65956 C 823.85452,662.44828 826.96573,739.1845 830.76832,739.1845 834.5709,739.1845 974.71372,770.74817 1142.1969,809.32597 1334.0225,853.5108 1451.9983,886.03868 1460.9974,897.2246 1469.0191,907.19563 1475.2831,946.40345 1475.2831,986.64267 L 1475.2831,1058.3035 1432.4259,1069.739 C 1062.2011,1168.5258 1100.7981,1162.038 883.0185,1162.088 771.90689,1162.1135 615.56226,1165.4717 535.586,1169.5506 L 390.17461,1176.9669 282.83701,1349.5043 175.49942,1522.0416 198.66972,1700.4556 221.84002,1878.8695 389.34494,1983.245 556.84986,2087.6205 910.35219,2076.4654 C 1104.7785,2070.3301 1292.5362,2065.2176 1327.5915,2065.1045 L 1391.3286,2064.8988 1473.3058,2178.0104 C 1518.3934,2240.2219 1555.2831,2295.9435 1555.2831,2301.8364 1555.2831,2307.7293 1447.7472,2364.3664 1316.3144,2427.6968 L 1077.3457,2542.8429 679.17156,2601.3368 C 460.17576,2633.5086 270.2842,2662.1395 257.19032,2664.9611 238.87937,2668.9068 217.11249,2708.2763 162.9046,2835.4942 L 92.42595,3000.8973 92.469493,3198.6123 92.513047,3396.3274 152.46949,3442.2939 C 185.44555,3467.5754 253.56881,3519.8554 303.85452,3558.4716 L 395.28309,3628.6829 665.96098,3646.7908 C 814.83382,3656.7502 1029.6053,3664.8988 1143.2307,3664.8988 L 1349.8227,3664.8988 1543.8186,3762.0237 1737.8145,3859.1485 2055.1202,3847.6406 C 2235.1227,3841.1123 2490.6326,3823.2775 2645.5999,3806.4248 L 2918.7737,3776.717 2977.7425,3712.2365 C 3010.1753,3676.7722 3059.2992,3622.8965 3086.9066,3592.5128 3122.0173,3553.8715 3199.9431,3499.7341 3346.209,3412.368 L 3555.316,3287.4664 3701.0138,3322.256 C 3781.1477,3341.3903 3864.7387,3361.8862 3886.7718,3367.8024 3921.1683,3377.0384 3948.4694,3407.5195 4079.8845,3583.4092 L 4232.937,3788.2592 4462.6815,3847.4383 C 4589.0409,3879.9868 4715.5688,3913.5868 4743.8545,3922.105 4772.1402,3930.6231 4796.9147,3937.9507 4798.909,3938.3885 4800.9033,3938.8263 4937.189,3923.2898 5101.7662,3903.8628 z"
       id="path4320"
       inkscape:connector-curvature="0"
       transform="translate(0,-2947.6378)" />
    <path
       style="fill:#edffff;stroke:none;stroke-width:40.40610122999999732;stroke-miterlimit:4;stroke-opacity:1;stroke-dasharray:none;fill-opacity:1"
       d="M 2059.6302,3592.9095 C 1955.7228,3563.8981 1941.1447,3557.3553 1867.6411,3506.7421 1623.4509,3338.5973 1670.5229,3361.6145 1428.1193,3291.8265 L 1210.4107,3229.1483 951.8116,3305.156 C 753.00742,3363.5886 678.1616,3382.1408 628.12062,3385.3898 L 563.02868,3389.6161 517.00384,3302.7014 470.97899,3215.7867 470.97899,3090.2976 470.97899,2964.8084 621.96692,2958.8492 772.95485,2952.8899 971.4797,2999.0268 1170.0046,3045.1636 1424.563,2948.9039 1679.1214,2852.6443 1761.3267,2687.6369 1843.532,2522.6296 1844.1592,2259.3802 1844.7865,1996.1309 1689.223,1910.2532 1533.6595,1824.3756 1161.9233,1806.9899 790.1872,1789.6042 701.29377,1741.0237 C 652.40239,1714.3046 597.1126,1683.7157 578.42759,1673.0485 L 544.45482,1653.6536 565.06176,1595.1871 585.6687,1536.7207 780.86199,1547.3238 976.05527,1557.9271 1272.4207,1506.8711 1568.786,1455.8152 1720.9284,1321.0792 C 1804.6067,1246.9745 1921.0291,1137.899 1979.6448,1078.6893 L 2086.2188,971.03529 2012.3405,817.49211 C 1971.7075,733.04335 1937.8726,662.91996 1937.1517,661.66234 1935.6868,659.1065 1349.3545,603.49826 1322.8494,603.40139 1308.4026,603.34859 1303.8737,594.0803 1291.2183,538.66968 1283.0945,503.10113 1277.9541,472.84837 1279.7948,471.44131 1281.6355,470.03426 1372.5471,444.26766 1481.8205,414.18221 L 1680.4993,359.48138 1966.6917,421.20353 C 2124.0976,455.15072 2255.4645,485.50604 2258.6183,488.6598 2261.7721,491.81356 2311.62,586.3289 2369.3915,698.69389 L 2474.4306,902.99388 2361.4985,1264.304 C 2278.7032,1529.1954 2233.508,1690.1788 2192.1384,1867.5575 2161.103,2000.6263 2135.8992,2116.9959 2136.1299,2126.1565 2136.3606,2135.3172 2166.6425,2235.0485 2203.423,2347.7818 L 2270.2967,2552.7514 2461.312,2639.2111 2652.3274,2725.6707 2920.1789,2736.1965 3188.0305,2746.7223 3244.3306,2691.2445 C 3275.2956,2660.7317 3333.1601,2600.6617 3372.9183,2557.7557 L 3445.2059,2479.7447 3484.1192,2311.7198 C 3505.5216,2219.306 3526.3557,2142.7742 3530.4173,2141.649 3534.479,2140.5238 3678.8003,2124.5083 3851.1313,2106.0589 L 4164.4606,2072.5148 4408.7355,1964.8102 4653.0105,1857.1056 4734.9678,1704.9944 4816.925,1552.8832 4822.386,1375.0963 4827.8469,1197.3095 4741.6716,1088.213 4655.4963,979.11651 4363.3295,933.06312 4071.1627,887.00972 3893.3758,814.85147 3715.589,742.69322 3713.2326,686.02619 C 3711.9365,654.85933 3713.8073,611.87555 3717.3898,590.50669 L 3723.9035,551.65421 3909.6549,512.90928 4095.4063,474.16435 4519.6704,456.666 4943.9345,439.16764 5374.1858,473.33892 5804.4371,507.5102 6020.3955,581.68895 6236.3539,655.8677 6252.0836,730.6662 C 6260.735,771.80538 6266.3193,806.69636 6264.4933,808.20172 6262.6674,809.70708 6144.8038,852.00805 6002.5743,902.20389 5763.4928,986.58088 5127.9394,1224.9533 5102.5893,1239.7548 5096.5113,1243.3036 5071.9646,1302.2743 5048.041,1370.8007 5001.0807,1505.3134 4998.2758,1527.6947 5009.8104,1675.8615 L 5014.9803,1742.2712 5197.6503,1862.1253 C 5343.9672,1958.1271 5426.5573,2020.3387 5612.6554,2174.7308 L 5844.9905,2367.4823 5844.9454,2457.1778 5844.9003,2546.8733 5658.6972,2676.1728 5472.4941,2805.4723 5252.661,3048.2564 C 5115.4199,3199.8258 5005.5026,3329.4999 4960.0969,3393.4068 L 4887.3659,3495.773 4802.5131,3496.1366 C 4755.8441,3496.3367 4683.0766,3498.7909 4640.8078,3501.5905 L 4563.9552,3506.6808 4518.9319,3438.9193 C 4486.0717,3389.4636 4462.2613,3338.8766 4430.7945,3251.6646 4407.0818,3185.9434 4383.7401,3127.3889 4378.9241,3121.5436 4374.1081,3115.6982 4210.1597,3042.5328 4014.5941,2958.9538 L 3659.0204,2806.992 3404.8353,2852.9993 C 3265.0336,2878.3032 3150.0521,2899.7806 3149.321,2900.7267 3148.5899,2901.6729 3110.7272,2954.5537 3065.182,3018.2398 2977.8345,3140.3778 2974.7732,3147.3731 2947.5887,3286.9538 L 2934.0841,3356.293 2751.0699,3438.1268 C 2602.8485,3504.4032 2533.6496,3530.0132 2387.0761,3572.8384 2287.5374,3601.9212 2198.4419,3625.3987 2189.0862,3625.0105 2179.7306,3624.6224 2121.4753,3610.177 2059.6302,3592.9095 z"
       id="path4322"
       inkscape:connector-curvature="0"
       transform="translate(0,-2947.6378)" />
    <path
       style="fill:#f9f9f9;fill-opacity:1;stroke:none"
       d="M 4792.5081,3903.9414 C 4789.2116,3900.6449 4330.264,3778.6355 4280.0347,3767.7024 4258.5029,3763.0157 4234.2639,3735.212 4123.7159,3588.394 3986.2616,3405.8422 3952.5701,3367.0772 3914.0533,3347.1594 3901.1212,3340.472 3813.7271,3316.577 3719.8443,3294.0596 L 3549.1483,3253.1187 3406.0945,3339.5432 C 3123.6945,3510.1521 3123.909,3509.985 2943.2161,3700.1215 L 2899.3857,3746.2427 2789.1779,3758.6498 C 2532.4425,3787.553 2274.9436,3806.1679 1947.6416,3819.4853 L 1747.4509,3827.6308 1553.7467,3730.7141 1360.0425,3633.7974 1220.5768,3633.6909 C 1069.8238,3633.5757 818.64408,3623.8444 567.95364,3608.4066 L 410.36984,3598.7024 266.92818,3489.2777 123.48652,3379.853 123.48652,3195.1849 123.48652,3010.5169 159.01741,2927.338 C 178.55941,2881.5897 209.85522,2811.2142 228.56365,2770.948 L 262.579,2697.7369 312.23076,2689.3487 C 339.53923,2684.7352 525.52723,2656.8192 725.53743,2627.3131 L 1089.1924,2573.6657 1323.5477,2457.6511 C 1452.4432,2393.8432 1566.6289,2334.6593 1577.2937,2326.1314 L 1596.6843,2310.6262 1571.4027,2267.1253 C 1557.4979,2243.1998 1515.8383,2181.8041 1478.8257,2130.6904 L 1411.5302,2037.7564 1177.6303,2040.1828 C 1048.9854,2041.5172 858.6441,2045.5467 754.64976,2049.1371 L 565.56914,2055.6651 409.60273,1958.041 C 306.39046,1893.4373 252.38807,1854.8744 249.94587,1844.0308 247.91613,1835.0184 237.923,1760.2141 227.73893,1677.7991 L 209.22244,1527.9536 308.31801,1369.3311 407.41358,1210.7087 465.46026,1206.0946 C 497.38592,1203.5568 656.24097,1198.0872 818.47147,1193.9398 L 1113.436,1186.3993 1254.8574,1149.4228 C 1332.6391,1129.0858 1420.8254,1106.2908 1450.827,1098.7673 L 1505.3752,1085.0882 1505.3752,1008.7963 C 1505.3752,902.75925 1495.9096,875.14272 1453.8341,858.42103 1417.5368,843.99575 1126.605,771.45146 961.91313,735.75978 L 858.87757,713.43013 858.87757,562.91096 858.87757,412.39178 957.87252,343.25824 C 1012.3197,305.23479 1071.9193,264.76656 1090.316,253.32883 1129.2847,229.10094 1171.9402,220.2789 1609.0609,146.04199 L 1918.8178,93.435479 2097.9747,146.06851 C 2439.4343,246.38305 2410.3734,233.94306 2528.355,330.29993 2585.7477,377.17326 2647.9936,429.59941 2666.6791,446.80251 L 2700.6527,478.08085 2744.8242,663.94892 C 2769.1185,766.17636 2796.9788,885.14619 2806.7358,928.32629 L 2824.4759,1006.8356 2798.2634,1053.5852 C 2783.8465,1079.2975 2728.8213,1168.1563 2675.9851,1251.0493 L 2579.9194,1401.7637 2547.5168,1562.1762 C 2482.5751,1883.6761 2475.1063,1939.798 2475.2865,2104.9217 L 2475.4514,2255.9493 2622.7688,2330.7019 2770.0862,2405.4545 2871.1014,2398.0678 C 2926.6598,2394.0051 3025.2082,2388.1374 3090.0979,2385.0286 L 3208.0791,2379.3759 3243.2535,2282.1624 C 3262.5994,2228.6949 3277.9245,2178.2671 3277.3094,2170.1006 3276.6943,2161.934 3278.6869,2153.8058 3281.7376,2152.0377 3284.7882,2150.2697 3338.5791,2146.2499 3401.2728,2143.1049 L 3515.2613,2137.3868 3475.914,2304.9804 C 3430.9519,2496.4884 3450.4838,2463.433 3276.4129,2642.6122 L 3183.4034,2738.3512 2916.1356,2726.4004 2648.8679,2714.4496 2463.8065,2629.7716 2278.7452,2545.0936 2210.437,2335.8717 2142.1289,2126.6498 2199.362,1880.1726 C 2242.2222,1695.5926 2285.0488,1542.6828 2369.8989,1271.2796 2432.2161,1071.9509 2483.2029,906.33777 2483.2029,903.25034 2483.2029,896.19794 2274.0084,488.24038 2266.3717,480.40024 2259.5412,473.38778 1703.5445,352.71222 1679.8083,353.09039 1651.5759,353.5402 1266.9792,463.35892 1266.9792,470.9707 1266.9792,474.88129 1273.938,508.08238 1282.4433,544.75092 1293.7747,593.60445 1301.3333,611.45297 1310.7275,611.54066 1336.3267,611.77962 1927.6631,667.38877 1928.9394,669.67718 1929.6611,670.97131 1962.429,738.76113 2001.757,820.32125 L 2073.2624,968.61238 1965.0853,1077.3914 C 1905.5879,1137.2199 1790.396,1244.985 1709.1032,1316.8694 L 1561.2981,1447.5685 1264.636,1498.5155 967.97405,1549.4626 806.34964,1540.8205 C 717.45621,1536.0674 629.9418,1530.3509 611.87317,1528.1174 L 579.02111,1524.0564 556.23739,1589.5061 C 543.04714,1627.3971 536.46364,1657.949 540.60213,1662.0645 544.53378,1665.9743 600.71561,1698.1764 665.45063,1733.6249 L 783.15067,1798.0766 1154.3645,1815.454 1525.5782,1832.8313 1681.1417,1918.5217 1836.7052,2004.2121 1836.1728,2259.3802 1835.6404,2514.5484 1753.3403,2679.7596 1671.0402,2844.9707 1417.6894,2940.0616 1164.3386,3035.1523 978.0283,2991.023 C 777.0848,2943.4277 757.60436,2941.6124 561.14119,2952.1762 L 462.89777,2957.4587 462.89777,3090.4655 462.89777,3223.4724 509.36479,3311.4737 555.83181,3399.4751 628.56279,3394.3503 C 686.89466,3390.2402 751.86136,3374.396 956.7144,3314.3204 L 1212.135,3239.4153 1427.0557,3301.8685 1641.9763,3364.3218 1721.158,3418.7624 C 1764.7079,3448.7048 1831.7688,3494.9337 1870.1822,3521.4932 1934.1481,3565.7204 1950.1269,3572.5534 2060.0909,3602.7038 2126.1273,3620.81 2187.4302,3635.5037 2196.3195,3635.3565 2205.2089,3635.2094 2294.3043,3610.9797 2394.3094,3581.5126 2541.3178,3538.1959 2611.1583,3512.207 2759.0211,3445.7966 L 2941.9052,3363.6568 2964.2631,3254.7554 2986.621,3145.8541 3067.5126,3032.2318 C 3112.0029,2969.7394 3150.5598,2916.0765 3153.1945,2912.9807 3155.8291,2909.8849 3270.1641,2886.9091 3407.2723,2861.9234 L 3656.5598,2816.4947 4009.3232,2967.4222 C 4203.3431,3050.4322 4365.0574,3121.1084 4368.6883,3124.4803 4372.3193,3127.8521 4395.0969,3184.6105 4419.3052,3250.61 4450.1811,3334.7874 4477.1589,3392.0236 4509.6781,3442.3456 L 4556.0359,3514.082 4657.0511,3509.3228 C 4712.6095,3506.7051 4788.9771,3504.3709 4826.7568,3504.1356 L 4895.4471,3503.7078 4968.1781,3401.1842 C 5013.8299,3336.8322 5122.6448,3208.3529 5260.4397,3056.107 L 5479.9701,2813.5535 5666.385,2684.254 5852.7998,2554.9545 5852.9358,2457.3328 5853.0717,2359.7111 5620.7367,2167.0321 C 5435.1622,2013.1326 5351.642,1950.2196 5205.7576,1854.4425 L 5023.1136,1734.5319 5017.8692,1660.6488 C 5008.2141,1524.6273 5009.8531,1512.1206 5054.2291,1383.1775 5077.1739,1316.5075 5099.9278,1257.8752 5104.7934,1252.8836 5116.4768,1240.8978 5713.9002,1014.7924 6010.6555,910.04406 6139.551,864.54671 6252.8256,824.43058 6262.377,820.89708 L 6279.7431,814.47254 6262.0335,731.12951 6244.324,647.78648 6027.3072,573.22582 5810.2904,498.66516 5375.0226,464.44467 4939.7546,430.22418 4513.5399,448.02291 4087.3251,465.82164 3901.7761,504.4815 3716.2271,543.14137 3710.6681,571.22026 C 3707.6106,586.66365 3703.6421,632.46751 3701.8492,673.0066 L 3698.5893,746.71404 3882.1772,821.20822 4065.7651,895.7024 4356.8572,941.45011 4647.9495,987.19774 4733.2446,1095.1514 4818.5397,1203.105 4813.7193,1373.9535 4808.8988,1544.8019 4726.914,1697.0845 4644.9293,1849.3672 4401.4986,1956.6726 4158.0679,2063.978 3880.2599,2092.9805 C 3727.4655,2108.9319 3553.3585,2124.0597 3493.3554,2126.5979 3433.3523,2129.1362 3365.7091,2133.2649 3343.0369,2135.7729 L 3301.8149,2140.333 3296.5664,2095.6765 C 3293.6798,2071.1155 3280.7152,2009.852 3267.7564,1959.5354 3254.7976,1909.2188 3245.4203,1866.8231 3246.9179,1865.3226 3251.5988,1860.6326 3398.8146,1841.6793 3663.061,1811.7462 3803.0682,1795.8867 3944.8936,1777.1234 3978.2286,1770.05 4081.8982,1748.0526 4310.4066,1650.1889 4325.9604,1621.1263 4334.0292,1606.0496 4347.659,1490.6178 4351.6247,1403.7734 L 4354.0054,1351.6382 4224.7058,1300.3257 C 4064.2023,1236.6299 3824.833,1155.7448 3566.2493,1077.8271 L 3368.4223,1018.217 3325.1536,892.76123 3281.8849,767.30546 3321.3038,534.55198 3360.7227,301.79852 3537.9515,221.80564 3715.1803,141.81275 4777.929,134.63458 5840.6777,127.45641 6050.9256,170.84593 C 6166.5618,194.71016 6279.5461,218.29039 6302.0016,223.24644 6334.876,230.50197 6368.7242,251.73394 6475.7479,332.23196 6663.1905,473.21729 6719.5278,522.10886 6727.0232,550.29811 6736.625,586.40958 6751.6525,864.06954 6748.6774,950.39901 L 6746.0466,1026.7373 6491.4882,1128.6113 C 6351.481,1184.6419 6116.4824,1277.4102 5969.2691,1334.7629 L 5701.6084,1439.0407 5652.0812,1538.4705 C 5620.627,1601.6173 5602.5539,1647.9312 5602.5539,1665.3885 5602.5539,1691.6564 5619.5911,1707.4531 5986.4119,2021.2974 L 6370.2699,2349.7184 6370.2699,2561.5225 6370.2699,2773.3265 5986.3884,3092.4452 5602.507,3411.5638 5492.487,3623.2618 C 5396.8166,3807.3484 5379.6919,3835.5169 5361.1906,3839.2316 5349.4886,3841.5812 5228.9995,3856.2632 5093.437,3871.8584 4957.8746,3887.4535 4835.4658,3901.8097 4821.4175,3903.7609 4807.3693,3905.712 4794.36,3905.7933 4792.5081,3903.9414 z"
       id="path4324"
       inkscape:connector-curvature="0"
       transform="translate(0,-2947.6378)" />
    <path
       style="fill:#f9f9f9;fill-opacity:1;stroke:none"
       d="M 4798.4725,3902.1557 C 4755.6985,3894.5271 4287.1113,3769.6476 4271.5174,3761.7209 4261.7065,3756.7339 4205.34,3690.717 4146.2585,3615.0169 4014.777,3446.5516 3950.6532,3370.6017 3926.5883,3354.8338 3907.9968,3342.6521 3750.3533,3299.1773 3619.4614,3270.1345 L 3547.5776,3254.1847 3397.2278,3344.9191 C 3164.9833,3485.0762 3127.6115,3512.8509 3007.9211,3634.251 2901.7335,3741.9554 2897.0026,3745.6232 2858.4185,3750.1615 2699.1767,3768.8914 2365.5257,3795.4737 2139.751,3807.4184 2010.8555,3814.2376 1870.5608,3821.9267 1827.9848,3824.5052 L 1750.5741,3829.1934 1557.2639,3732.6203 1363.9538,3636.0472 1141.7203,3630.5546 C 1019.4918,3627.5336 855.84711,3621.7346 778.06537,3617.6679 700.28362,3613.6012 586.14392,3607.7894 524.42158,3604.7527 L 412.19915,3599.2314 338.55351,3542.9469 C 298.04841,3511.9905 233.08807,3463.1105 194.1972,3434.3246 L 123.48652,3381.9866 123.48652,3192.6147 C 123.48652,3085.7711 126.89126,2997.1276 131.29915,2989.2104 138.94449,2975.4784 145.62024,2960.772 224.79239,2783.249 246.10153,2735.4687 267.48143,2696.0976 272.30329,2695.7575 277.12515,2695.4175 288.34341,2693.7811 297.23276,2692.1213 306.1221,2690.4614 329.75967,2686.9524 349.76069,2684.3235 369.76171,2681.6946 407.94547,2676.1578 434.6135,2672.0197 461.28153,2667.8815 495.82875,2662.6342 511.3851,2660.3591 526.94144,2658.084 586.94451,2649.0652 644.72523,2640.3175 702.50596,2631.5697 764.32729,2622.3527 782.10598,2619.8352 799.88466,2617.3177 825.34051,2613.574 838.67452,2611.5158 852.00853,2609.4576 877.46438,2605.6677 895.24306,2603.0937 913.02175,2600.5198 949.38724,2595.0996 976.05527,2591.0487 1002.7233,2586.9979 1039.0888,2581.5221 1056.8675,2578.8803 1105.8331,2571.6044 1594.2686,2326.0827 1594.2686,2308.745 1594.2686,2299.8987 1490.6261,2144.729 1440.9584,2079.2147 L 1404.9969,2031.7797 1247.0946,2036.7595 C 1160.2483,2039.4984 989.18725,2043.8954 866.95879,2046.5305 744.73033,2049.1656 626.98355,2052.4004 605.29928,2053.719 569.18457,2055.915 559.34324,2052.0134 488.12158,2007.2638 305.91115,1892.7786 251.39299,1852.2408 248.17715,1828.8497 247.47498,1823.7422 244.28028,1798.2834 241.07785,1772.2745 237.87541,1746.2656 234.00396,1717.1732 232.47464,1707.6247 230.94532,1698.0763 227.81511,1673.8994 225.51862,1653.8984 223.22214,1633.8974 218.93446,1596.8389 215.99045,1571.5463 L 210.6377,1525.5597 308.49175,1368.7266 406.34581,1211.8936 497.25125,1206.7322 C 547.24924,1203.8934 682.70697,1199.3635 798.26842,1196.6658 1072.7063,1190.2592 1123.7903,1185.0036 1258.898,1149.2763 1321.1234,1132.8216 1402.0366,1112.0378 1438.7051,1103.09 L 1505.3752,1086.8211 1505.3301,1012.7657 C 1505.2658,907.04512 1496.2188,880.2821 1454.2919,861.78431 1414.0842,844.04493 997.88442,739.72349 889.18215,720.1382 L 858.87757,714.67812 858.87757,562.84257 858.87757,411.00704 978.82939,329.96494 C 1044.8029,285.39179 1116.6248,243.22395 1138.4335,236.25862 1172.8604,225.26331 1504.2523,164.07126 1819.678,110.46576 1926.53,92.306627 1923.1944,92.051144 2030.6545,126.62506 2055.8491,134.7311 2168.572,168.13757 2248.8475,191.28857 2342.6421,218.33841 2417.7471,248.96609 2454.098,274.98944 2472.328,288.04011 2535.148,338.68017 2593.6979,387.52291 L 2700.1524,476.32788 2716.4344,545.89474 C 2725.3894,584.15651 2747.6102,679.10121 2765.8137,756.88295 2784.0172,834.6647 2804.2442,920.35594 2810.7625,947.30794 2817.2809,974.25994 2822.6141,999.84396 2822.6141,1004.1614 2822.6141,1008.4788 2788.0663,1068.2495 2745.8412,1136.9853 2703.6162,1205.721 2666.3416,1266.4277 2663.0087,1271.889 2659.6759,1277.3504 2639.0596,1309.7031 2617.1947,1343.7839 2578.9141,1403.4518 2576.3163,1411.3361 2547.121,1556.4538 2530.4454,1639.3415 2514.4893,1722.663 2511.663,1741.6126 2508.8367,1760.5623 2500.8835,1805.8544 2493.9893,1842.2617 2486.328,1882.72 2479.9007,1976.0098 2477.4586,2082.2031 L 2473.4628,2255.9493 2623.0214,2331.3152 2772.58,2406.6811 2912.7545,2397.5375 C 2989.8504,2392.5085 3067.4751,2387.2725 3085.2538,2385.902 3103.0325,2384.5314 3138.0647,2382.9146 3163.1032,2382.3092 3198.8244,2381.4453 3209.5571,2378.1628 3212.9437,2367.0661 3215.3175,2359.2879 3226.8755,2327.4681 3238.6282,2296.3554 3250.3808,2265.2427 3264.6915,2221.7659 3270.4296,2199.7403 3282.9853,2151.5462 3285.1908,2150.6926 3417.1626,2142.9543 L 3511.5704,2137.4185 3506.0927,2168.3997 C 3503.0799,2185.4393 3493.3502,2230.2915 3484.4708,2268.0712 3441.5407,2450.7307 3425.993,2489.8428 3376.6434,2539.3234 3363.0532,2552.9496 3313.964,2603.288 3267.5562,2651.1865 L 3183.1784,2738.2745 3081.6881,2733.419 C 3025.8685,2730.7485 2942.0141,2726.7379 2895.3451,2724.5064 2629.5315,2711.7969 2650.0658,2714.4069 2586.8397,2685.295 2554.2851,2670.3056 2509.4668,2649.8361 2487.2435,2639.8073 2465.0201,2629.7785 2420.2068,2609.3114 2387.6584,2594.3247 2355.1099,2579.3381 2326.5789,2567.0763 2324.2561,2567.0763 2321.9333,2567.0763 2310.0333,2559.956 2297.8116,2551.2534 2279.4083,2538.1491 2268.3531,2512.8092 2233.4684,2403.7711 2210.3013,2331.3585 2180.3388,2240.2704 2166.8849,2201.3532 L 2142.4233,2130.5945 2167.6963,2019.5257 C 2181.5965,1958.4378 2198.1768,1888.4558 2204.5414,1864.0101 2210.906,1839.5645 2217.4219,1812.2903 2219.0214,1803.401 2220.6209,1794.5116 2228.2302,1766.3762 2235.931,1740.8777 2243.6319,1715.3793 2247.6556,1690.8326 2244.8725,1686.3295 2242.0895,1681.8264 2243.3439,1678.1421 2247.6603,1678.1421 2254.0853,1678.1421 2264.5151,1641.575 2269.5574,1601.3705 2270.1148,1596.9258 2274.5125,1583.741 2279.3302,1572.0707 2286.673,1554.2836 2301.8942,1503.2763 2309.1714,1472.071 2310.208,1467.6263 2313.1414,1458.5349 2315.6902,1451.8679 2318.2389,1445.2009 2325.6964,1421.5633 2332.2623,1399.34 2365.4706,1286.9418 2390.2376,1205.4873 2414.5771,1128.6191 2429.3545,1081.95 2451.0899,1011.8504 2462.8781,972.84201 L 2484.3112,901.91775 2375.4798,689.99929 2266.6484,478.08085 2118.3469,444.96417 C 2036.7811,426.74998 1905.5885,398.24891 1826.808,381.62844 1685.8457,351.88939 1682.7651,351.6022 1632.8587,363.54729 1539.4822,385.89695 1272.805,461.48011 1267.0615,467.2236 1262.1728,472.11227 1294.246,597.47359 1302.4962,605.72378 1306.2569,609.4845 1445.266,625.23537 1611.4053,640.72572 1777.5446,656.21607 1918.0708,670.41004 1923.6855,672.26787 1929.3003,674.12571 1946.0322,702.10637 1960.8675,734.4471 1975.7028,766.78784 2007.1406,832.79214 2030.7293,881.12332 L 2073.6178,968.99818 1981.4255,1059.1393 C 1867.9647,1170.0758 1742.3602,1287.8106 1674.5244,1346.812 1646.4184,1371.2577 1610.4989,1403.2307 1594.7034,1417.863 1578.9079,1432.4954 1558.7113,1446.0384 1549.8219,1447.9588 1527.7537,1452.726 1377.1375,1478.8524 1149.8015,1517.3479 999.76452,1542.754 947.16781,1548.6082 899.28367,1545.2314 865.94864,1542.8805 804.1273,1539.0341 761.90293,1536.6837 719.67855,1534.3334 661.23083,1530.2465 632.01911,1527.602 L 578.90688,1522.7935 557.26782,1586.4711 C 545.36634,1621.4939 535.62876,1652.4274 535.62876,1655.2124 535.62876,1659.8332 700.30881,1756.12 757.86232,1785.1504 782.84493,1797.7517 851.32679,1803.9602 1048.7862,1811.5251 1111.0116,1813.909 1185.5609,1817.541 1214.4513,1819.5962 1243.3416,1821.6513 1324.7455,1825.6302 1395.3487,1828.4383 1540.7565,1834.2215 1500.527,1819.9608 1734.3509,1948.609 L 1836.7052,2004.9237 1836.4182,2259.736 1836.1311,2514.5484 1752.8251,2679.7718 1669.5191,2844.9951 1565.2237,2884.3774 C 1507.8614,2906.0376 1451.8371,2926.8741 1440.7254,2930.6806 1429.6138,2934.4872 1400.5214,2945.4197 1376.0757,2954.9749 1351.63,2964.5301 1322.5376,2975.4684 1311.4259,2979.282 1300.3142,2983.0956 1262.1305,2996.7908 1226.5731,3009.7159 1180.1961,3026.5737 1155.071,3031.6242 1137.6797,3027.5847 1124.3457,3024.4877 1080.7071,3014.3013 1040.705,3004.9483 788.83615,2946.0585 789.26571,2946.1283 687.09401,2947.4931 632.67848,2948.22 559.97343,2950.6791 525.52723,2952.9576 L 462.89777,2957.1003 462.89777,3089.0653 462.89777,3221.0302 508.56665,3310.8367 554.23552,3400.6432 619.68343,3395.5827 C 698.32751,3389.5018 694.07442,3390.4315 850.79635,3345.0621 1031.501,3292.75 1052.3917,3286.7639 1097.599,3274.3418 1120.0014,3268.1861 1153.7708,3257.8299 1172.6423,3251.3282 1204.6534,3240.2995 1211.6764,3240.8498 1277.3729,3259.5339 1359.8033,3282.9773 1390.6737,3291.7008 1426.5833,3301.6982 1441.0285,3305.7198 1489.2128,3320.2246 1533.6595,3333.931 1578.1062,3347.6373 1618.6505,3358.8931 1623.758,3358.9438 1628.8654,3358.9945 1654.3212,3373.6857 1680.3265,3391.5909 1904.6105,3546.0162 1941.2703,3568.3171 1999.2055,3585.5709 2089.8279,3612.5595 2199.2112,3640.3338 2202.3836,3637.1615 2203.9392,3635.6058 2255.9411,3620.0689 2317.9434,3602.6347 2554.699,3536.0626 2566.5308,3531.7144 2830.6953,3414.2002 2931.4487,3369.3798 2943.6516,3363.0234 2944.358,3354.9953 2944.7491,3350.5506 2946.4029,3341.4593 2948.0332,3334.7922 2949.6635,3328.1252 2958.802,3282.6684 2968.3411,3233.777 2981.3387,3167.1582 2991.1315,3137.7962 3007.4218,3116.5993 3019.3771,3101.0429 3036.3253,3077.8034 3045.0845,3064.9558 3053.8435,3052.1083 3068.2832,3031.6632 3077.1726,3019.5223 3086.0619,3007.3816 3105.8454,2979.0436 3121.1359,2956.5491 3145.6715,2920.4537 3168.9828,2902.7998 3188.3623,2905.6379 3191.7359,2906.132 3209.9186,2902.7815 3228.7684,2898.1925 3247.6181,2893.6034 3275.7685,2888.0402 3291.3249,2885.8296 3306.8812,2883.6191 3325.9419,2879.8545 3333.682,2877.464 3341.4221,2875.0734 3357.7866,2871.4965 3370.0475,2869.5154 3382.3084,2867.5342 3399.9848,2864.1985 3409.3283,2862.1026 3418.6718,2860.0067 3440.4911,2856.1961 3457.8157,2853.6345 3475.1402,2851.073 3494.7696,2847.4564 3501.4366,2845.5976 3508.1036,2843.7388 3528.1047,2840.1022 3545.8833,2837.5164 3563.662,2834.9305 3583.663,2831.3389 3590.3301,2829.5351 3648.0767,2813.9114 3676.3871,2821.5291 3844.8885,2898.031 3862.6672,2906.1027 3900.8509,2922.3799 3929.7413,2934.2026 3958.6317,2946.0252 3989.5423,2958.9735 3998.4317,2962.9765 4007.321,2966.9796 4032.7769,2977.9472 4055.0002,2987.349 4077.2236,2996.7508 4106.316,3009.3148 4119.65,3015.2691 4132.984,3021.2234 4158.4398,3032.4985 4176.2185,3040.3251 4193.9972,3048.1516 4221.2713,3060.9637 4236.8277,3068.7964 4252.384,3076.6291 4268.7485,3083.6926 4273.1932,3084.4933 4277.6378,3085.2938 4291.2749,3091.1203 4303.4977,3097.441 4315.7206,3103.7616 4325.7211,3106.7738 4325.7211,3104.1347 4325.7211,3092.4354 4373.825,3135.0277 4378.8253,3151.1544 4381.8904,3161.0395 4390.8669,3183.6734 4398.7733,3201.4521 4406.6797,3219.2308 4424.548,3264.0759 4438.4806,3301.108 4452.4132,3338.1401 4484.0973,3401.2315 4508.8897,3441.3114 L 4553.9667,3514.1837 4724.7069,3508.5488 4895.4471,3502.9139 4913.3393,3481.4826 C 4923.1799,3469.6953 4931.3622,3455.8085 4931.522,3450.623 4931.6819,3445.4377 4934.54,3439.9828 4937.8735,3438.5012 4946.1233,3434.8347 4996.4624,3369.4671 4996.4624,3362.421 4996.4624,3359.3168 5001.4859,3352.7397 5007.6257,3347.805 5020.5886,3337.3866 5109.5995,3231.8421 5109.5995,3226.8899 5109.5995,3225.0565 5123.2365,3209.4191 5139.9041,3192.14 5156.5716,3174.8609 5190.2096,3137.7041 5214.6553,3109.5694 5263.2333,3053.6609 5264.0673,3052.721 5352.0361,2954.7645 5453.7936,2841.4535 5498.9729,2798.7213 5561.3502,2756.7876 5594.2465,2734.6728 5637.8851,2704.8367 5658.3248,2690.4852 5678.7645,2676.1338 5715.489,2651.1036 5739.9347,2634.8628 5764.3804,2618.622 5786.1997,2602.8981 5788.422,2599.9207 5790.6443,2596.9435 5806.0997,2586.2206 5822.7672,2576.0921 L 5853.0717,2557.6769 5853.0717,2458.7781 C 5853.0717,2366.2804 5851.8949,2358.8577 5834.889,2344.0958 5809.1193,2321.7266 5677.26,2212.8495 5635.1593,2179.1777 5615.7088,2163.6214 5555.8678,2114.5508 5502.1794,2070.1322 5416.2427,1999.0331 5157.9063,1817.2491 5058.6757,1758.0514 L 5023.2969,1736.9456 5017.982,1643.8861 C 5011.0648,1522.7761 5022.7082,1460.5395 5078.385,1321.0178 5103.9854,1256.8651 5104.1754,1256.645 5153.292,1234.3109 5180.3748,1221.9959 5229.8076,1201.793 5263.1427,1189.4156 5296.4777,1177.0381 5334.6615,1162.2055 5347.9955,1156.4542 5361.3295,1150.7029 5428.6057,1125.3504 5497.4981,1100.1153 5566.3905,1074.8801 5626.3935,1051.9804 5630.8382,1049.227 5635.2829,1046.4736 5643.2393,1043.5642 5648.5193,1042.7619 5657.5847,1041.3843 5841.9358,974.32112 5885.3966,956.59084 5896.5083,952.05768 5909.2362,947.47636 5913.6809,946.41012 5918.1256,945.3438 5947.218,934.7094 5978.3307,922.77804 6009.4434,910.84669 6054.9002,894.45466 6079.3459,886.35134 6170.2206,856.22793 6269.4415,819.7674 6275.2107,814.37723 6278.4865,811.31658 6276.0009,787.12779 6269.6869,760.62433 6263.373,734.12089 6255.238,698.48309 6251.609,681.42924 6245.069,650.69483 6244.265,650.14577 6160.1581,618.97601 6002.2425,560.4529 5808.8347,499.32977 5768.2189,495.11046 5745.9956,492.80183 5676.9011,487.0272 5614.6757,482.27795 5552.4504,477.5287 5481.5376,471.9775 5457.092,469.94196 5416.9846,466.60231 5291.1729,456.6492 5150.0056,445.64797 5121.1152,443.39654 5057.619,438.21278 5008.9027,434.12853 4960.1865,430.04427 4918.3662,427.82615 4915.9687,429.19939 4913.5712,430.57262 4838.8786,434.06729 4749.9852,436.96533 4661.0917,439.86338 4566.5415,443.82296 4539.8734,445.76441 4513.2054,447.70586 4431.3831,451.28168 4358.046,453.7107 4100.309,462.24724 4085.6727,463.96865 3869.1322,511.21274 3860.2428,513.15219 3842.0601,516.62532 3828.7261,518.93081 3815.392,521.2363 3784.5709,527.59959 3760.2346,533.07145 3717.1909,542.74957 3715.8412,543.89596 3710.6355,575.20034 3707.6922,592.89936 3703.4448,638.4841 3701.1967,676.49976 L 3697.1093,745.61913 3719.3718,755.47349 C 3731.6162,760.89338 3773.9579,778.11691 3813.4645,793.748 3887.4129,823.00627 3896.4827,826.75763 3947.7508,849.28998 4026.8388,884.04916 4086.82,901.33897 4172.1779,913.98188 4293.4124,931.93875 4305.4161,933.78539 4358.046,942.57558 4382.4917,946.65845 4417.0389,952.07021 4434.8176,954.60181 4472.2182,959.92741 4505.5594,965.2148 4539.8734,971.26197 4553.2075,973.61183 4581.228,977.73681 4602.1413,980.42858 4641.9414,985.55135 4655.9893,995.11369 4689.376,1039.8087 4706.7739,1063.0995 4770.6583,1143.2712 4806.4789,1186.7671 4815.7054,1197.9705 4816.8762,1231.8152 4812.9012,1372.4127 L 4808.04,1544.3571 4727.2754,1694.082 C 4682.8549,1776.4308 4640.7002,1847.4436 4633.5982,1851.8883 4626.4963,1856.333 4580.6836,1877.3236 4531.7922,1898.5342 4482.9008,1919.7448 4431.9892,1942.0894 4418.6551,1948.1889 4405.3211,1954.2884 4376.2287,1967.35 4354.0054,1977.2147 4331.782,1987.0793 4299.0531,2001.6326 4281.2744,2009.5553 4185.7582,2052.1204 4147.0603,2064.8549 4099.4469,2069.3901 4070.5566,2072.1419 3994.189,2079.6681 3929.7413,2086.115 3818.247,2097.2679 3577.3241,2118.5652 3473.1524,2126.4768 3446.4843,2128.5021 3396.9852,2132.3602 3363.1543,2135.0501 L 3301.6435,2139.941 3296.0569,2096.9299 C 3292.9844,2073.2738 3285.3947,2033.9178 3279.191,2009.4721 3272.9873,1985.0264 3266.277,1955.934 3264.2792,1944.8223 3262.2814,1933.7107 3258.1561,1911.5299 3255.1118,1895.5317 L 3249.5767,1866.4441 3308.8366,1857.1207 C 3341.4295,1851.9929 3442.6457,1838.862 3533.7615,1827.9408 4018.1478,1769.8828 4050.6506,1762.7338 4233.8417,1673.9583 4302.0415,1640.9083 4324.8993,1625.8863 4328.3789,1611.8291 4335.2439,1584.095 4348.7378,1463.0292 4351.5407,1404.0238 L 4354.0054,1352.139 4297.4368,1328.7876 C 4235.8292,1303.356 4220.6548,1297.7102 4034.7972,1231.0709 3886.9027,1178.0433 3574.1477,1077.3786 3440.8275,1039.8932 3364.278,1018.37 3369.5493,1025.1318 3323.7211,889.67299 3278.0122,754.56651 3279.0401,766.92215 3303.289,644.06939 3307.7434,621.50191 3308.7049,615.75252 3338.3468,434.41656 L 3360.0153,301.85886 3436.7869,267.39465 C 3539.486,221.29108 3574.9155,205.22225 3648.3568,171.43834 L 3710.4243,142.88658 4557.4941,136.81005 C 5830.2308,127.67998 5851.7566,127.82455 5929.8433,146.02749 5938.7327,148.09971 6027.8281,166.76692 6127.8332,187.51018 6227.8383,208.25345 6320.5703,230.75362 6333.9044,237.51058 6387.7754,264.80945 6649.1334,463.46184 6696.1979,512.8819 6708.7832,526.09705 6722.4661,551.97844 6726.6042,570.39611 6736.0296,612.34517 6750.3022,953.92501 6744.4522,997.54057 L 6740.1206,1029.8349 6528.9313,1112.7319 C 6290.4123,1206.3564 6002.6155,1320.324 5978.3307,1330.7698 5969.4413,1334.5935 5927.621,1350.9039 5885.3966,1367.0151 5843.1723,1383.1263 5801.3519,1399.4353 5792.4626,1403.2574 5783.5733,1407.0794 5759.5715,1416.2297 5739.1252,1423.5915 5702.4907,1436.7818 5701.2263,1438.465 5652.1505,1539.3765 5624.7605,1595.6966 5602.3964,1650.9922 5602.4523,1662.2557 5602.5778,1687.5599 5637.8019,1722.1998 5832.8687,1888.8512 5912.8728,1957.2012 5991.0586,2024.7046 6006.6149,2038.8588 6022.1713,2053.0131 6060.7398,2086.1739 6092.3227,2112.5494 6123.9057,2138.925 6199.3641,2203.0714 6260.0081,2255.0968 L 6370.2699,2349.6886 6370.2699,2561.5603 6370.2699,2773.4321 6271.2749,2855.8658 C 6216.8277,2901.2044 6159.8333,2948.4154 6144.6207,2960.7793 6129.408,2973.1433 6000.8464,3079.5122 5858.9281,3197.1548 L 5600.8949,3411.0504 5545.3083,3520.4036 C 5467.6204,3673.2357 5394.6355,3804.1673 5376.1797,3823.8125 5367.5897,3832.9562 5348.6428,3841.2818 5334.0754,3842.3137 5319.5081,3843.3456 5265.7691,3849.566 5214.6553,3856.1367 5163.5416,3862.7073 5103.5386,3869.9796 5081.3152,3872.2974 5059.0918,3874.6151 5028.1812,3878.2366 5012.6248,3880.3452 4997.0685,3882.4538 4966.1578,3886.3266 4943.9345,3888.9513 4921.7111,3891.5761 4883.5273,3896.2695 4859.0816,3899.3809 4834.636,3902.4923 4807.3618,3903.741 4798.4725,3902.1557 z"
       id="path4326"
       inkscape:connector-curvature="0"
       transform="translate(0,-2947.6378)" />
    <path
       style="fill:#f9f9f9;fill-opacity:1;stroke:none"
       d="M 4539.8734,3835.9613 C 4397.644,3797.5723 4275.2047,3763.3789 4267.7863,3759.9758 4260.3679,3756.5728 4204.0014,3689.7738 4142.5274,3611.5336 3984.6966,3410.6566 3939.1621,3358.7709 3910.0181,3346.5937 3895.9851,3340.7304 3809.3584,3317.5362 3717.5143,3295.051 L 3550.5251,3254.1688 3415.087,3335.6932 C 3164.7218,3486.3958 3126.4896,3514.5351 3008.4822,3634.9579 L 2899.3857,3746.2873 2830.6953,3754.321 C 2792.9156,3758.7394 2734.7308,3764.5626 2701.3958,3767.2614 2668.0608,3769.9601 2584.4201,3777.1718 2515.5277,3783.2873 2446.6353,3789.4028 2246.6251,3802.4328 2071.0606,3812.2429 L 1751.8524,3830.0795 1555.9475,3731.9384 1360.0425,3633.7974 1248.8611,3633.6304 C 1101.6634,3633.4093 626.43793,3614.3596 473.42217,3602.5464 L 407.17497,3597.4319 265.33075,3489.4086 123.48652,3381.3853 123.48652,3193.4293 C 123.48652,2985.0873 117.37832,3017.4199 185.32834,2866.0815 255.28644,2710.2707 262.71857,2697.2483 284.17548,2692.8833 295.80165,2690.5182 479.86834,2662.9324 693.21255,2631.5816 L 1081.1111,2574.5801 1323.5477,2453.8313 C 1456.8879,2387.4194 1572.943,2327.6197 1581.448,2320.9429 1596.3406,2309.2518 1595.1783,2306.1854 1549.9844,2237.9297 1524.1743,2198.9491 1481.3378,2136.8136 1454.792,2099.8508 L 1406.527,2032.6457 1223.616,2037.7372 C 1123.015,2040.5376 933.90685,2046.0732 803.37582,2050.0386 L 566.04661,2057.2483 468.00518,1995.2214 C 345.63922,1917.8052 276.46657,1869.7325 259.83597,1850.5505 247.86967,1836.7485 212.37994,1608.4515 212.37994,1545.2773 212.37994,1529.9389 242.75617,1472.8122 302.45222,1375.8842 351.99197,1295.4468 396.5397,1225.3467 401.44717,1220.1063 413.31843,1207.4296 481.95395,1203.0236 759.54902,1197.1185 1064.28,1190.6361 1104.0898,1185.9627 1322.3593,1131.0488 L 1507.039,1084.5857 1503.5774,999.5262 C 1499.7579,905.67414 1489.6222,875.33269 1457.8599,862.67166 1419.6859,847.45477 1238.1343,800.5688 1046.5973,756.46245 L 858.5402,713.15746 860.72919,559.73253 862.91818,406.3076 980.09588,327.72868 C 1044.5436,284.51028 1115.4563,243.37121 1137.6797,236.30854 1159.903,229.24587 1238.0888,212.51054 1311.4259,199.1189 1384.763,185.72727 1453.8574,173.01901 1464.9691,170.87833 1476.0808,168.73764 1582.3401,150.27245 1701.101,129.84457 L 1917.0298,92.702966 2072.9963,137.75524 C 2270.9632,194.93969 2371.9852,228.42661 2420.8245,253.05382 2442.0748,263.76926 2513.5748,317.82005 2579.7133,373.16667 L 2699.9653,473.79688 2740.3201,641.60388 C 2762.5154,733.89773 2790.7624,853.84935 2803.0914,908.163 L 2825.5078,1006.9152 2740.2429,1146.559 C 2693.3472,1223.3632 2638.1288,1313.4997 2617.5355,1346.8625 2582.0584,1404.3379 2578.3879,1416.0036 2547.6129,1569.096 2484.467,1883.2195 2480.9116,1910.6267 2480.0015,2090.2843 L 2479.1623,2255.9493 2626.0434,2330.5737 2772.9246,2405.198 2985.6577,2391.8637 C 3102.661,2384.5297 3201.5798,2375.7612 3205.4774,2372.3781 3209.375,2368.995 3228.3971,2319.7014 3247.7487,2262.8366 3273.1453,2188.2085 3287.2705,2157.8418 3298.524,2153.6789 3307.0988,2150.5069 3358.6327,2145.3076 3413.0436,2142.125 L 3511.9726,2136.3385 3506.4043,2171.1606 C 3492.7548,2256.52 3443.0802,2437.5105 3422.7487,2475.9619 3408.9508,2502.0568 3359.1349,2559.9409 3292.346,2627.4848 3184.5007,2736.5494 3184.1911,2736.7819 3146.8841,2736.7404 3113.91,2736.7037 3041.2233,2733.2959 2723.8265,2716.9059 L 2645.2418,2712.848 2473.3086,2634.7592 C 2378.7453,2591.8104 2295.2949,2551.4316 2287.8632,2545.0286 2280.4315,2538.6255 2244.5638,2442.0325 2208.1571,2330.3775 L 2141.9631,2127.3683 2151.7783,2082.5623 C 2171.8381,1990.9893 2217.2414,1802.0791 2228.5841,1762.9949 2235.0337,1740.7715 2241.4143,1713.4974 2242.7633,1702.3857 2244.1124,1691.2741 2247.5213,1678.5184 2250.3388,1674.0399 2253.1562,1669.5614 2258.3549,1651.3787 2261.8914,1633.6338 2269.5898,1595.0064 2269.2471,1596.3588 2275.1823,1581.1674 2277.787,1574.5004 2285.2903,1550.8629 2291.8562,1528.6395 2327.901,1406.6412 2347.8435,1340.5826 2354.0672,1322.5684 2357.9062,1311.4567 2388.8254,1212.3691 2422.7764,1102.3737 L 2484.5056,902.38209 2377.8041,694.2721 C 2319.1183,579.81159 2268.8226,483.72436 2266.036,480.74494 2263.2493,477.76552 2131.8718,447.33383 1974.086,413.11898 L 1687.2027,350.91015 1616.2375,368.66572 C 1529.5421,390.35701 1270.5855,463.69959 1266.5914,467.69369 1262.5879,471.69713 1295.1974,598.06177 1301.9262,604.61927 1304.9287,607.54533 1445.5742,623.33259 1614.4717,639.70206 1799.3024,657.61577 1925.0483,673.19266 1930.325,678.82866 1935.1469,683.97882 1969.5609,751.16002 2006.8006,828.12022 L 2074.5093,968.04783 1965.7087,1074.7186 C 1777.4414,1259.3006 1587.4379,1432.0692 1559.5631,1444.0237 1549.7607,1448.2275 1410.8249,1473.8386 1250.8168,1500.9373 L 959.89282,1550.2076 810.39025,1541.3217 C 728.16383,1536.4343 642.70493,1530.3802 620.48157,1527.8681 L 580.07547,1523.3004 557.77303,1586.5791 C 545.50669,1621.3824 535.50618,1652.3298 535.54967,1655.3511 535.61945,1660.1978 668.54195,1735.8619 757.86232,1781.8992 787.38756,1797.117 821.9984,1800.0541 1157.4826,1815.8106 L 1524.778,1833.0612 1577.7061,1861.4516 C 1606.8165,1877.0665 1677.0001,1915.3068 1733.6697,1946.4303 L 1836.7052,2003.0184 1836.5094,2258.7834 1836.3137,2514.5484 1752.703,2680.1789 1669.0923,2845.8093 1423.589,2937.9232 C 1288.5623,2988.5858 1168.5219,3029.7682 1156.8328,3029.4395 1145.1436,3029.111 1066.0117,3012.3423 980.98408,2992.1759 781.28107,2944.8115 772.28792,2943.8229 604.65585,2950.8065 L 462.89777,2956.7122 462.89777,3089.4664 462.89777,3222.2207 508.69972,3308.811 C 533.89079,3356.4358 555.21605,3396.4226 556.08919,3397.6707 556.96231,3398.9188 593.62708,3396.456 637.56646,3392.1978 699.15126,3386.2295 773.93097,3367.8081 963.93344,3311.7997 L 1210.4107,3239.144 1424.563,3300.5946 C 1542.3468,3334.3925 1647.8067,3368.2328 1658.9184,3375.7956 1670.0301,3383.3582 1731.8514,3425.8063 1796.2991,3470.1247 1860.7469,3514.4431 1924.3865,3556.2404 1937.7205,3563.0075 1966.6989,3577.7143 2169.5914,3633.7974 2193.818,3633.7974 2209.5795,3633.7974 2379.0718,3586.1111 2525.5634,3540.4615 2616.2842,3512.1912 2943.8324,3365.8907 2943.8324,3353.6403 2943.8324,3350.8534 2953.4264,3302.7431 2965.1524,3246.7284 L 2986.4723,3144.8836 3068.1879,3030.0121 C 3113.1316,2966.8328 3155.3584,2912.8782 3162.0254,2910.113 3168.6924,2907.3478 3186.8751,2903.4851 3202.4315,2901.5292 3217.9878,2899.5732 3237.0485,2896.017 3244.7885,2893.6265 3252.5287,2891.2359 3268.8931,2887.649 3281.154,2885.6554 3293.415,2883.6619 3319.8112,2878.5037 3339.8122,2874.1927 3462.8749,2847.6678 3650.8887,2817.7463 3665.7462,2822.3219 3704.5539,2834.2733 4234.8326,3062.2746 4286.5619,3089.2509 4298.3593,3095.4031 4313.4301,3100.4369 4320.0524,3100.4369 4343.6926,3100.4369 4378.9709,3145.7247 4401.8889,3205.4927 4450.0267,3331.0315 4477.1991,3389.8895 4515.0647,3450.6424 L 4554.0772,3513.2352 4720.7215,3508.116 4887.3659,3502.9968 4907.569,3480.3206 C 4918.6806,3467.8487 4942.3182,3437.1427 4960.0969,3412.085 4977.8756,3387.0274 4996.1301,3362.1131 5000.6625,3356.7199 5005.1949,3351.3267 5030.0257,3321.4582 5055.8422,3290.3455 5145.5576,3182.225 5382.5861,2916.405 5460.5938,2836.4293 5489.3697,2806.9274 5786.0042,2594.3176 5834.889,2568.1569 5852.2282,2558.8779 5853.0717,2553.8273 5853.0717,2459.2969 L 5853.0717,2360.1674 5624.7773,2171.8751 C 5452.5181,2029.7995 5350.558,1952.9939 5209.38,1858.96 L 5022.2771,1734.3372 5016.7825,1643.6101 C 5010.521,1540.2238 5021.6589,1469.9774 5061.404,1362.183 5098.1062,1262.6411 5103.2202,1255.5618 5155.3751,1232.0975 5204.0367,1210.2048 5325.4845,1161.957 5396.4828,1136.3121 5418.7062,1128.2849 5456.8899,1113.9922 5481.3356,1104.5504 5505.7813,1095.1085 5542.1468,1081.7539 5562.1478,1074.8734 5582.1488,1067.9929 5609.423,1057.6611 5622.757,1051.9139 5636.091,1046.1668 5685.1844,1027.9394 5731.8534,1011.4088 5778.5225,994.87813 5838.5256,972.92339 5865.1936,962.6204 5903.1474,947.95727 6062.0616,891.19055 6270.4527,817.85526 6281.8645,813.83933 6252.7114,669.72226 6237.1512,653.23101 6231.5892,647.33616 6131.8825,610.1311 6015.5806,570.55311 L 5804.1227,498.59313 5374.0286,464.52398 4943.9345,430.45484 4515.6298,448.25457 4087.3251,466.0543 3901.589,504.92972 3715.8528,543.80515 3710.5002,575.59276 C 3707.5563,593.07596 3703.8604,638.62685 3702.2871,676.81698 L 3699.4265,746.25358 3882.762,820.92608 4066.0975,895.59856 4347.4322,939.33364 C 4502.1663,963.38787 4634.9041,985.81593 4642.4051,989.17384 4649.9061,992.53166 4692.6699,1041.6678 4737.4358,1098.3653 L 4818.8282,1201.4518 4813.3782,1376.8057 4807.9282,1552.1597 4781.9275,1596.9682 C 4767.6271,1621.6128 4730.2402,1689.0517 4698.8454,1746.8324 L 4641.7641,1851.8883 4406.778,1955.2339 C 4277.5357,2012.074 4152.7869,2061.9607 4129.5585,2066.0933 4090.4255,2073.0554 3544.2011,2122.9845 3374.1574,2135.1427 3301.7694,2140.3185 3299.4061,2139.9475 3299.4061,2123.4077 3299.4061,2114.0138 3288.4965,2057.288 3275.1625,1997.3503 3261.8284,1937.4126 3250.9188,1883.3028 3250.9188,1877.1064 3250.9188,1862.0159 3292.1219,1855.2383 3650.9392,1811.3056 3981.5789,1770.8229 4033.9273,1760.0105 4161.4878,1705.8528 4273.8802,1658.135 4316.7556,1633.0326 4325.6001,1609.7699 4334.6311,1586.0165 4349.9648,1449.8158 4349.9648,1393.3513 L 4349.9648,1350.3601 4206.5231,1295.4434 C 4036.5641,1230.3747 3821.4711,1157.6566 3582.2488,1084.3903 3486.6884,1055.1232 3398.8599,1027.3529 3387.0743,1022.6786 3368.2369,1015.2074 3360.5594,998.87033 3323.5726,887.55172 L 3281.4991,760.92357 3320.7572,531.09719 3360.0153,301.27082 3536.3356,221.19201 3712.656,141.1132 4756.5999,133.51005 C 5330.7691,129.32832 5820.5448,128.20699 5844.9905,131.01822 5901.7327,137.5435 6220.226,202.70422 6298.8206,223.86752 6338.5197,234.55741 6452.3808,311.88024 6582.0336,416.19694 6698.9746,510.28595 6715.6091,527.24811 6725.8057,562.80187 6735.6336,597.06964 6753.0287,968.98452 6746.445,1004.0787 6741.503,1030.4218 6739.7744,1031.3261 6553.8437,1104.8426 6304.9952,1203.2367 5876.2918,1372.2167 5780.3408,1409.7306 L 5703.5692,1439.7461 5657.1246,1533.578 C 5588.4513,1672.3186 5588.4418,1668.981 5657.6892,1733.5834 5689.3213,1763.0937 5862.3242,1912.6995 6042.1401,2066.0407 L 6369.078,2344.8428 6369.6739,2559.8507 6370.2699,2774.8586 6020.7571,3065.2663 C 5828.525,3224.9904 5656.1357,3367.67 5637.6696,3382.3319 5612.2486,3402.5159 5591.8396,3432.8528 5553.6305,3507.2515 5465.5872,3678.6843 5398.605,3797.3559 5377.0062,3820.1748 5356.4519,3841.8901 5351.513,3842.8127 5101.5183,3871.6323 4961.5111,3887.7725 4836.0502,3902.0538 4822.7162,3903.3687 4809.3821,3904.6835 4682.1029,3874.3502 4539.8734,3835.9613 z"
       id="path4328"
       inkscape:connector-curvature="0"
       transform="translate(0,-2947.6378)" />
    <path
       style="fill:#f9f9f9;fill-opacity:1;stroke:none"
       d="M 2087.1535,3597.7334 C 2031.5569,3583.0271 1973.3721,3565.5956 1957.854,3558.9968 1942.3359,3552.3979 1867.8179,3505.4548 1792.2585,3454.6787 1639.9383,3352.319 1634.1651,3349.8147 1385.0685,3278.0463 L 1212.2337,3228.2502 985.04801,3293.4244 C 723.53389,3368.4467 669.73826,3381.4447 608.35974,3384.4396 L 563.91303,3386.6083 517.76157,3302.1115 471.61011,3217.6146 471.29455,3091.5414 470.97899,2965.4683 621.36608,2959.7346 771.75315,2954.0011 971.19537,3000.1951 1170.6376,3046.389 1424.8795,2950.1743 1679.1214,2853.9596 1761.5787,2692.3352 1844.0358,2530.7108 1844.4112,2262.6788 1844.7865,1994.6468 1689.5154,1908.9665 1534.2444,1823.2862 1162.2158,1805.9175 790.1872,1788.5487 667.42497,1720.92 544.66275,1653.2914 565.07403,1599.0466 C 576.30024,1569.2121 586.89055,1543.3917 588.60805,1541.668 590.32556,1539.9444 678.66921,1543.1438 784.92728,1548.7779 L 978.12377,1559.0217 1273.8201,1508.0993 1569.5165,1457.1769 1733.4154,1309.9526 C 1823.5598,1228.9792 1940.138,1119.4484 1992.4779,1066.5507 L 2087.6413,970.37315 2013.8191,817.16104 C 1973.2168,732.89437 1939.0617,662.91996 1937.919,661.66234 1935.7399,659.26442 1349.9317,603.50827 1325.7938,603.40139 1311.6915,603.33894 1291.0957,547.6707 1285.6037,494.77214 L 1283.1416,471.05732 1481.1315,415.83282 1679.1214,360.60833 1832.6646,393.85854 C 2177.7076,468.57857 2252.1382,488.04657 2265.0099,506.94231 2271.6769,516.72953 2321.185,609.93791 2375.0279,714.07204 L 2472.924,903.4068 2433.0544,1030.1551 C 2280.7628,1514.3005 2206.7645,1781.7069 2147.4248,2062.3299 L 2133.6844,2127.3096 2182.8331,2284.5635 C 2209.8649,2371.0531 2240.5616,2466.9839 2251.0481,2497.7431 L 2270.1144,2553.6688 2460.9783,2640.3998 2651.8421,2727.1309 2919.5193,2737.3873 3187.1964,2747.6437 3260.0514,2675.5428 C 3300.1216,2635.8873 3358.5153,2575.2227 3389.8153,2540.7327 L 3446.7242,2478.0234 3481.4455,2330.6209 C 3500.5422,2249.5495 3519.7243,2174.0365 3524.0724,2162.8142 L 3531.9781,2142.4101 3848.5781,2107.9271 4165.178,2073.4439 4409.0942,1966.143 4653.0105,1858.8421 4735.4382,1705.8333 4817.8658,1552.8245 4823.5055,1374.7437 4829.1453,1196.663 4741.6209,1085.8694 C 4693.4825,1024.933 4650.2156,975.05452 4645.4723,975.02838 4640.729,975.00224 4510.0913,954.99689 4355.1664,930.57204 L 4073.4848,886.16322 3900.4205,816.42388 C 3805.2351,778.06724 3724.7262,742.61522 3721.5117,737.64161 3711.7641,722.55946 3719.0691,568.02542 3730.0065,557.93945 3735.4108,552.95574 3821.655,532.15768 3921.6601,511.72153 L 4103.4875,474.56492 4523.711,457.40961 4943.9345,440.25431 5368.1985,473.5577 5792.4626,506.86108 6012.701,581.13919 C 6166.5437,633.02453 6234.2288,659.47984 6237.2164,668.89299 6239.5688,676.30461 6246.3533,710.3155 6252.2931,744.47275 6262.8488,805.17441 6262.7061,806.72042 6245.9706,812.9355 6236.5535,816.43278 6130.6617,854.70451 6010.6555,897.98379 5459.4169,1096.7838 5101.6804,1235.3943 5091.1148,1254.274 5086.6933,1262.1748 5065.4059,1319.85 5043.8096,1382.4411 5008.0467,1486.0904 5004.5436,1502.8093 5004.5436,1569.8447 5004.5436,1610.3256 5006.8941,1665.9345 5009.7669,1693.42 L 5014.9902,1743.3938 5145.1273,1828.8494 C 5339.5032,1956.4878 5429.4952,2024.778 5717.7113,2263.3534 L 5844.9905,2368.7108 5844.7474,2457.792 5844.5044,2546.8733 5658.6781,2675.2454 C 5453.5807,2816.9303 5474.4374,2796.9889 5154.8031,3157.0054 5063.8215,3259.4814 4918.6874,3441.0894 4893.1414,3484.4257 4889.0532,3491.3609 4839.6142,3495.4296 4723.9169,3498.3528 L 4560.4679,3502.4823 4536.852,3465.1043 C 4495.4106,3399.5134 4467.6083,3341.6312 4423.1142,3228.3121 L 4379.7189,3117.7912 4294.1312,3079.814 C 4023.7797,2959.853 3666.5189,2809.5155 3651.8339,2809.5315 3634.4155,2809.5505 3208.3318,2886.3728 3168.1722,2896.7349 3151.6114,2901.008 3127.4221,2928.9116 3072.1485,3007.5028 2982.3773,3135.1448 2974.061,3152.96 2950.5512,3267.9899 2933.861,3349.6524 2929.9569,3359.5281 2911.6518,3366.3874 2900.4608,3370.5809 2827.6649,3401.8153 2749.8831,3435.7971 2585.5172,3507.6064 2468.7589,3549.1702 2306.1751,3593.7491 2242.0521,3611.331 2189.2842,3625.4362 2188.9131,3625.0942 2188.5419,3624.7521 2142.7502,3612.4397 2087.1535,3597.7334 z"
       id="path4330"
       inkscape:connector-curvature="0"
       transform="translate(0,-2947.6378)" />
    <path
       style="fill:#ebf4f6;fill-opacity:1;stroke:none"
       d="M 4761.485,3895.7878 C 4741.826,3890.2541 4625.7364,3859.5277 4503.508,3827.5068 4381.2795,3795.4859 4273.9532,3764.738 4265.005,3759.1782 4256.0569,3753.6183 4184.6922,3667.6757 4106.4167,3568.1947 4028.1413,3468.7137 3957.1437,3381.0949 3948.6441,3373.4863 3923.0114,3350.5402 3880.8416,3336.5085 3711.428,3294.5541 L 3549.4834,3254.4492 3414.3433,3336.2873 C 3184.7036,3475.3521 3141.5286,3507.2414 3016.5634,3630.0901 2933.8756,3711.3774 2892.2498,3746.6643 2875.142,3749.9754 2832.5665,3758.2159 2501.8859,3786.6294 2301.3754,3799.276 2194.7033,3806.004 2085.6068,3813.2128 2058.9388,3815.2955 2032.2708,3817.3782 1952.1834,3821.4596 1880.9668,3824.365 L 1751.4821,3829.6478 1557.718,3732.8808 1363.9538,3636.1137 1109.3954,3630.922 C 879.50321,3626.2334 759.51817,3621.1406 494.24437,3604.8116 L 408.41327,3599.5283 265.9499,3491.0229 123.48652,3382.5177 123.48652,3193.7061 123.48652,3004.8944 150.65777,2941.5488 C 165.60195,2906.7088 196.95583,2837.4837 220.33304,2787.7154 256.03939,2711.6991 266.23374,2696.517 284.07552,2692.7857 303.37024,2688.7505 856.16399,2605.9748 1020.0064,2582.5868 1083.5273,2573.5195 1104.5286,2564.6494 1326.4201,2453.1706 1457.4406,2387.3457 1570.3475,2327.7806 1577.3244,2320.8036 1588.8508,2309.2773 1588.3322,2304.9966 1571.649,2273.9526 1561.5506,2255.1614 1520.2417,2193.1178 1479.8516,2136.0778 L 1406.4148,2032.3687 1247.8035,2037.3885 C 1160.5674,2040.1495 971.30456,2045.92 827.21941,2050.212 L 565.24648,2058.0157 438.42486,1977.2508 C 368.67297,1932.8301 296.83526,1882.8149 278.78552,1866.1059 L 245.9678,1835.7259 229.16591,1702.3857 C 219.92488,1629.0487 212.39524,1558.136 212.43338,1544.8019 212.48153,1527.9698 241.6894,1473.6318 307.97476,1367.0581 401.65801,1216.4338 404.04156,1213.4602 435.19258,1208.3459 452.65277,1205.4793 576.03486,1200.7311 709.37499,1197.7943 1053.9466,1190.2051 1100.4939,1185.0554 1316.9651,1130.5743 L 1501.3346,1084.1724 1500.5065,996.78271 C 1499.55,895.84528 1490.0092,874.94478 1436.3275,856.18983 1402.1643,844.25412 1025.92,750.82063 921.33554,728.30083 L 858.53452,714.77813 860.72635,560.47715 862.91818,406.17616 967.97405,335.04681 C 1025.7548,295.92566 1088.1352,256.79277 1106.5971,248.08484 1147.2783,228.89679 1335.9887,190.84104 1671.0402,134.25801 L 1921.558,91.950911 2131.6698,154.47514 C 2247.2312,188.86347 2367.2373,228.7491 2398.35,243.10988 2447.7206,265.89796 2527.0327,325.40333 2675.1328,450.77129 2698.4154,470.48013 2703.2296,484.77348 2744.5414,656.84241 2768.9563,758.53375 2797.2244,878.93195 2807.3592,924.39397 L 2825.7862,1007.0522 2806.5339,1041.5717 C 2795.9451,1060.5574 2743.9662,1145.1856 2691.0253,1229.6343 2638.0844,1314.0831 2591.5761,1389.1341 2587.6735,1396.4144 2578.7672,1413.0291 2513.3258,1734.1301 2495.5948,1848.2161 2487.2709,1901.7755 2481.7579,1993.1726 2480.7561,2094.2215 L 2479.1623,2255.0056 2624.6242,2329.399 2770.0862,2403.7923 2986.0366,2390.0288 C 3104.8093,2382.4588 3204.1821,2374.0701 3206.865,2371.3872 3209.5479,2368.7043 3227.7906,2319.909 3247.4044,2262.9532 3273.349,2187.6135 3287.3806,2157.8011 3298.9017,2153.5392 3307.6115,2150.3172 3360.1261,2145.1593 3415.6008,2142.077 L 3516.464,2136.473 3508.9709,2167.9269 C 3459.9007,2373.911 3442.8921,2436.8418 3427.6481,2468.8171 3411.8896,2501.8712 3252.4908,2677.0018 3196.0096,2723.3169 3178.2281,2737.8979 3168.2628,2738.1453 2953.573,2729.3378 2631.0285,2716.1055 2668.185,2723.5999 2464.0968,2630.6097 2365.7107,2585.7813 2282.593,2544.9651 2279.3907,2539.9072 2276.1884,2534.8491 2243.8707,2439.7971 2207.5736,2328.6803 L 2141.5787,2126.6498 2167.5813,2013.5127 C 2181.8827,1951.2873 2204.1999,1857.3938 2217.1751,1804.8605 2243.4207,1698.5979 2248.1278,1650.3627 2223.6265,1738.7512 2196.1023,1838.0443 2135.8522,2101.6697 2135.8979,2122.6092 2135.9755,2158.1631 2263.3583,2543.8838 2278.7356,2555.128 2286.5784,2560.8627 2373.6608,2602.2836 2472.252,2647.1743 L 2651.5087,2728.7937 2919.8612,2738.8488 3188.2136,2748.9038 3318.5612,2614.8247 3448.9087,2480.7456 3481.2336,2344.1038 C 3499.0123,2268.9508 3513.5585,2202.0072 3513.5585,2195.3402 3513.5585,2188.6732 3515.3767,2181.4001 3517.5991,2179.1777 3519.8214,2176.9554 3525.6442,2167.909 3530.5386,2159.0747 3538.6345,2144.4615 3567.7985,2139.9521 3853.7874,2109.0933 4096.7213,2082.8801 4175.4811,2071.6296 4200.4622,2059.5722 4218.2409,2050.9911 4236.4236,2042.7416 4240.8683,2041.2401 4245.313,2039.7385 4338.045,1999.3203 4446.9394,1951.4218 4569.1255,1897.6767 4649.5704,1857.7176 4657.0511,1847.0535 4668.5914,1830.6025 4692.5222,1787.1184 4770.0222,1641.7766 4788.9824,1606.2192 4807.859,1572.909 4811.9702,1567.7538 4816.0816,1562.5986 4821.6512,1476.6753 4824.3473,1376.8129 L 4829.2494,1195.2451 4793.7644,1149.8102 C 4774.2476,1124.8211 4755.504,1104.3754 4752.1119,1104.3754 4748.7199,1104.3754 4745.9128,1099.8297 4745.8739,1094.2739 4745.8351,1088.7181 4723.1066,1059.2268 4695.3663,1028.7376 L 4644.9293,973.30297 4523.711,954.50952 C 4457.0409,944.17316 4387.9465,933.83833 4370.1678,931.54334 4352.3891,929.24827 4279.6581,918.03259 4208.5434,906.61956 4092.7622,888.03808 4065.3031,880.28018 3945.9037,832.41701 3872.5667,803.01866 3791.6535,768.48972 3766.0966,755.68605 L 3719.6296,732.40664 3720.5857,669.89351 C 3722.1036,570.64962 3725.7674,561.33885 3768.1356,549.05436 3788.1263,543.25813 3875.3951,524.14474 3962.0662,506.58014 L 4119.65,474.64451 4531.1935,458.12189 4942.737,441.59927 5367.5998,474.97205 5792.4626,508.34482 5989.0872,575.68397 C 6097.2306,612.7205 6197.2357,649.74239 6211.3207,657.95482 6234.5358,671.49071 6237.9632,678.76298 6247.9857,735.74955 6254.1995,771.08036 6255.9692,801.44253 6252.0263,805.07407 6248.1679,808.62789 6212.282,823.33689 6172.28,837.76074 5999.4269,900.08767 5312.7886,1155.5732 5283.3457,1168.5169 5265.567,1176.3326 5220.1102,1194.6372 5182.3305,1209.1935 5144.5508,1223.7499 5106.1771,1243.6711 5097.0557,1253.4629 5087.9343,1263.2546 5063.0095,1324.7856 5041.6673,1390.1985 L 5002.8632,1509.131 5006.2294,1623.09 5009.5955,1737.049 5033.3335,1756.0427 C 5046.3895,1766.4893 5061.3142,1775.0545 5066.4997,1775.0766 5071.6851,1775.0986 5077.1399,1778.1586 5078.6215,1781.8763 5080.103,1785.5941 5126.7721,1818.9872 5182.3305,1856.0833 5295.4701,1931.626 5378.8104,1991.9094 5457.9857,2055.4757 5487.3675,2079.0651 5515.5508,2098.3655 5520.6151,2098.3655 5525.6795,2098.3655 5529.8229,2101.2652 5529.8229,2104.8092 5529.8229,2108.3532 5600.7144,2169.2654 5687.3595,2240.1696 L 5844.8962,2369.0864 5844.9433,2458.2578 5844.9905,2547.4291 5821.0409,2561.5765 C 5807.8686,2569.3576 5792.4133,2580.2033 5786.6958,2585.6781 5780.9781,2591.1529 5753.6036,2610.1173 5725.8632,2627.8212 5698.1229,2645.5252 5675.3945,2662.7378 5675.3556,2666.0713 5675.3167,2669.4048 5671.4058,2672.1322 5666.6645,2672.1322 5661.9233,2672.1322 5644.653,2682.1327 5628.286,2694.3555 5611.919,2706.5784 5594.888,2719.2727 5590.4394,2722.5651 5476.2259,2807.0935 5413.9314,2865.8166 5279.6001,3015.584 5199.06,3105.3793 5167.7498,3140.7036 5150.0056,3161.7937 5138.8939,3175.0006 5108.5849,3210.2366 5082.6522,3240.0962 5056.7194,3269.9556 5039.2024,3294.3861 5043.7253,3294.3861 5048.2483,3294.3861 5065.8294,3277.3458 5082.7945,3256.5187 5121.9995,3208.3888 5139.1231,3189.1094 5326.0025,2982.6915 L 5480.1586,2812.4183 5666.2774,2683.6864 5852.3962,2554.9545 5852.734,2457.6281 5853.0717,2360.3017 5643.8364,2188.2894 C 5413.4935,1998.9247 5336.8701,1941.7063 5148.8192,1818.6366 L 5022.3738,1735.8846 5016.7161,1644.3838 C 5010.0594,1536.7258 5018.2952,1481.4617 5056.7192,1375.9515 5097.1186,1265.0172 5101.2196,1258.3417 5141.51,1237.9313 5161.7389,1227.6836 5271.0219,1184.2122 5384.361,1141.3282 5497.7001,1098.4441 5603.16,1058.3427 5618.7164,1052.214 5700.0935,1020.1539 5920.2818,940.61588 6137.833,864.69475 6292.5954,810.68571 6283.146,822.28926 6258.5363,716.47685 6246.2306,663.56644 6241.3968,654.40326 6220.4818,644.33874 6207.3048,637.99781 6108.4592,602.66684 6000.8247,565.82547 L 5805.1259,498.84118 5374.5302,464.7196 4943.9345,430.59803 4515.6298,448.32616 4087.3251,466.0543 3901.457,504.94418 3715.589,543.83407 3710.3592,579.64783 C 3707.4829,599.34541 3704.2038,644.16332 3703.0724,679.2432 3700.6243,755.1464 3677.4673,737.93775 3905.2281,829.47142 L 4070.6235,895.94144 4349.6952,939.54318 C 4503.1846,963.52412 4634.9041,985.87508 4642.4051,989.21198 4649.9061,992.5488 4692.7419,1041.7588 4737.5958,1098.5675 L 4819.1482,1201.8562 4813.7816,1377.3696 C 4810.83,1473.9021 4805.8089,1556.5197 4802.6237,1560.9644 4799.4385,1565.4091 4780.24,1599.9563 4759.9603,1637.736 4739.6806,1675.5157 4705.1098,1738.856 4683.1364,1778.4923 L 4643.1847,1850.5584 4418.3356,1949.9393 C 4294.6686,2004.5989 4182.8577,2053.0255 4169.867,2057.5541 4136.2903,2069.259 3674.952,2114.4708 3380.2183,2134.9407 L 3303.4467,2140.2726 3276.9523,2012.2429 C 3262.3803,1941.8266 3250.5615,1880.1407 3250.6883,1875.1631 3251.0168,1862.2651 3309.1325,1852.6443 3610.5331,1815.5924 3941.9153,1774.8548 4000.981,1764.7306 4089.4643,1733.5006 4193.896,1696.6416 4316.8276,1632.8436 4325.0399,1611.2434 4333.4122,1589.2226 4349.9648,1441.2715 4349.9648,1388.4586 L 4349.9648,1349.9269 4174.1982,1284.3099 C 3974.5278,1209.7693 3872.7453,1175.4691 3614.5737,1095.7192 3514.5686,1064.8274 3417.4759,1033.9063 3398.8121,1027.0057 L 3364.878,1014.4592 3322.8781,887.62941 3280.8781,760.7996 3320.4467,530.92839 3360.0153,301.05717 3532.4218,222.2451 3704.8284,143.43303 3940.5234,139.07706 C 4070.1557,136.68127 4550.7831,132.75899 5008.5842,130.36086 L 5840.9499,126.00064 5978.3307,153.98291 C 6224.0762,204.03736 6305.6173,223.1074 6332.1092,236.72114 6374.4315,258.4699 6449.3448,310.66801 6541.4556,382.58952 6671.9675,484.49521 6716.0936,527.36733 6725.6339,561.53361 6735.9821,598.59317 6754.4324,980.90683 6747.2531,1009.5113 6742.423,1028.7561 6711.0431,1042.8028 6376.3161,1175.5556 6175.2028,1255.3172 5942.1174,1347.2403 5858.3487,1379.8293 L 5706.0418,1439.082 5659.5229,1532.3481 C 5601.4239,1648.8309 5597.3708,1664.3274 5617.5799,1692.7085 5626.1271,1704.712 5798.8421,1856.3527 6001.3908,2029.6878 L 6369.6614,2344.8428 6369.9656,2560.4272 6370.2699,2776.0118 5988.468,3093.7878 5606.6662,3411.5638 5569.7025,3480.2542 C 5549.3725,3518.0339 5502.6472,3605.3111 5465.8686,3674.2035 5384.339,3826.9218 5372.9281,3840.1657 5317.1883,3846.7672 4780.9865,3910.2715 4805.3158,3908.1254 4761.485,3895.7878 z M 2216.5226,3624.8516 C 2216.5226,3619.9314 2211.0406,3618.0094 2204.3403,3620.5805 2197.6401,3623.1516 2140.3644,3610.4587 2077.0611,3592.3739 1972.3145,3562.4494 1952.5167,3553.6285 1856.9083,3494.2855 1799.1276,3458.4216 1746.3976,3424.8283 1739.7306,3419.6336 1720.0735,3404.3175 1662.2289,3371.8472 1671.0402,3381.0752 1687.4929,3398.3059 1932.1939,3560.9056 1954.7495,3569.5953 1999.8963,3586.9882 2172.3147,3632.8588 2194.2992,3633.3255 2206.5221,3633.585 2216.5226,3629.7718 2216.5226,3624.8516 z M 2387.1314,3581.8225 C 2554.9757,3532.2443 2628.6648,3505.7002 2628.6648,3494.8182 2628.6648,3490.728 2632.0157,3489.4525 2636.1112,3491.9837 2643.117,3496.3135 2924.6082,3373.6529 2936.8924,3360.9174 2943.6923,3353.8674 2984.5924,3162.7468 2980.2339,3158.3883 2977.3145,3155.4688 2965.0988,3196.5216 2956.5989,3237.8176 2938.8897,3323.8565 2925.3808,3357.4896 2904.6922,3367.0504 2858.8926,3388.2155 2621.5564,3487.2072 2564.0151,3509.1451 2530.68,3521.8543 2501.5876,3534.1901 2499.3653,3536.558 2497.143,3538.926 2489.8699,3541.3871 2483.2029,3542.0273 2455.8701,3544.6518 2224.7258,3614.0551 2224.6672,3619.6553 2224.5651,3629.4178 2231.3473,3627.8384 2387.1314,3581.8225 z M 4819.8423,3504.4979 4891.2025,3504.4979 4941.8122,3434.2477 C 4969.6474,3395.6101 5004.6637,3350.1532 5019.6261,3333.2324 5034.5885,3316.3116 5042.9453,3302.4674 5038.1968,3302.4674 5033.4484,3302.4674 4998.122,3343.3785 4959.6938,3393.3811 L 4889.8244,3484.2948 4848.189,3489.5565 C 4825.2896,3492.4505 4750.1346,3495.1779 4681.1778,3495.6174 L 4555.8019,3496.4167 4519.5534,3430.8447 C 4499.6168,3394.78 4459.6553,3308.7609 4430.7503,3239.6911 L 4378.1956,3114.1096 4297.4102,3079.8454 C 4252.9781,3061.0001 4205.715,3041.1007 4192.381,3035.6243 4179.047,3030.1481 4153.5911,3019.1094 4135.8124,3011.094 4047.6006,2971.3243 4008.6694,2954.3766 3941.8631,2926.6637 3901.8611,2910.0698 3854.586,2890.2062 3836.8073,2882.5223 3819.0286,2874.8384 3771.1215,2854.8649 3730.3471,2838.1366 L 3656.2119,2807.7216 3576.8039,2821.5104 C 3533.1296,2829.0942 3486.4864,2836.9158 3473.1524,2838.8917 3432.9174,2844.854 3183.241,2891.0873 3168.4989,2895.3053 3146.7719,2901.5218 2986.1953,3116.5993 3003.2811,3116.5993 3005.3898,3116.5993 3039.2425,3071.2475 3078.5094,3015.8174 3150.0117,2914.8828 3156.7672,2908.2085 3194.3503,2901.3667 3205.4619,2899.3438 3249.1005,2890.9604 3291.3249,2882.7369 3333.5493,2874.5134 3433.5544,2856.1646 3513.5585,2841.9618 L 3659.0204,2816.1386 3921.6601,2928.8168 C 4167.8132,3034.4219 4227.5809,3060.3566 4290.5769,3088.8991 4304.5827,3095.2448 4319.6534,3100.4369 4324.0674,3100.4369 4347.7015,3100.4369 4381.4122,3150.9754 4414.3569,3235.7973 4433.7778,3285.7998 4452.905,3326.711 4456.8617,3326.711 4460.8184,3326.711 4461.8547,3330.2724 4459.1644,3334.6252 4453.2379,3344.2145 4460.7858,3359.5279 4514.4711,3446.8338 L 4556.0359,3514.4287 4652.259,3509.4633 C 4705.1817,3506.7323 4780.5942,3504.4979 4819.8423,3504.4979 z M 737.65927,3374.696 C 770.9943,3366.4476 891.39157,3332.5136 1005.2088,3299.287 L 1212.1491,3238.875 1417.1655,3298.4675 C 1529.9246,3331.2433 1623.4798,3356.7621 1625.0662,3355.1758 1628.4702,3351.7717 1434.9758,3290.023 1305.3792,3253.1561 L 1214.4798,3227.2975 961.92735,3297.2208 C 698.90693,3370.0425 642.12876,3383.2796 592.79487,3383.2796 564.41235,3383.2796 562.0666,3381.0195 531.98472,3324.6907 514.77585,3292.4669 493.91612,3256.3179 485.62978,3244.3597 472.2193,3225.0068 470.80853,3208.578 472.79165,3094.8571 L 475.0196,2967.0967 620.48157,2961.1391 765.94354,2955.1814 966.54763,3001.2411 1167.1517,3047.3008 1235.2482,3023.696 C 1272.7013,3010.7133 1303.3447,2997.8192 1303.3447,2995.0423 1303.3447,2992.2655 1307.8904,2989.992 1313.4462,2989.9903 1327.9446,2989.9856 1635.1731,2874.5411 1656.8981,2860.9345 1666.8986,2854.671 1675.1441,2852.3577 1675.2214,2855.7937 1675.2987,2859.2296 1713.5309,2788.4962 1760.182,2698.6083 L 1845.002,2535.1757 1842.8739,2262.9363 1840.7458,1990.6968 1688.0178,1906.2459 1535.2898,1821.795 1162.7385,1804.2496 790.1872,1786.7041 667.80478,1719.4404 545.42238,1652.1767 567.42546,1598.4894 C 580.07902,1567.6147 594.30911,1544.8421 600.91444,1544.8965 607.23169,1544.9485 699.67753,1547.8372 806.34964,1551.3158 L 1000.2989,1557.6407 1281.561,1508.9452 C 1436.2551,1482.1627 1569.3793,1455.6364 1577.3924,1449.9979 1613.2663,1424.755 1921.2006,1138.8119 2017.4703,1041.3483 L 2089.1388,968.7909 2015.2481,816.8415 C 1974.6082,733.26932 1940.2842,663.81885 1938.9724,662.50709 1937.6607,661.19534 1818.6545,649.2228 1674.5143,635.90145 1530.374,622.5801 1404.2589,610.30837 1394.2584,608.63093 1384.2579,606.9535 1376.0757,607.81728 1376.0757,610.55046 1376.0757,613.28364 1498.8092,627.55771 1648.8169,642.27061 1816.227,658.69037 1924.9438,672.72325 1930.325,678.60696 1935.1469,683.87905 1969.6722,751.38777 2007.0479,828.62632 L 2075.0037,969.06008 1937.8466,1102.7124 C 1862.4103,1176.2212 1747.3399,1283.9439 1682.1346,1342.0961 L 1563.5796,1447.8273 1259.5808,1499.1969 955.5819,1550.5665 800.15358,1541.4233 C 714.66799,1536.3946 630.14898,1530.4609 612.33356,1528.2374 L 579.94189,1524.1945 556.60923,1589.863 C 537.21945,1644.4344 535.18233,1656.7782 544.55419,1662.9094 574.158,1682.2767 745.99495,1776.0478 771.11771,1786.5447 792.17068,1795.3412 894.28717,1802.9368 1164.6697,1815.8176 L 1529.792,1833.2119 1683.2486,1917.8396 1836.7052,2002.4673 1836.4092,2258.5078 1836.1132,2514.5484 1753.5767,2680.2134 1671.0402,2845.8784 1424.563,2937.9578 C 1289.0005,2988.6013 1168.93,3029.7798 1157.7397,3029.4653 1146.5493,3029.1509 1066.5452,3012.4917 979.95284,2992.4448 773.00437,2944.5347 768.13586,2943.9958 603.98074,2950.8346 L 462.89777,2956.7122 462.53392,3087.1634 462.17006,3217.6146 509.00093,3308.52 555.83181,3399.4255 616.44096,3394.5593 C 649.77599,3391.8828 704.32423,3382.9444 737.65927,3374.696 z M 2260.3786,1625.6141 C 2263.7414,1603.5477 2263.0261,1598.4185 2258.1245,1609.4517 2247.1003,1634.2666 2238.4774,1684.6809 2247.7579,1670.0609 2251.9899,1663.3938 2257.6693,1643.3928 2260.3786,1625.6141 z M 2289.3315,1530.6598 C 2298.6401,1498.4359 2309.4875,1462.9796 2313.4369,1451.8679 2317.3863,1440.7562 2357.4846,1312.6361 2402.5441,1167.1564 L 2484.4706,902.64805 2374.7308,689.25998 C 2276.1031,497.47907 2262.7418,475.49129 2242.7772,472.11296 2230.5595,470.04553 2099.1542,441.81266 1950.7654,409.37323 L 1680.9675,350.39245 1538.6231,389.36039 C 1460.3337,410.79277 1368.0955,436.93279 1333.6493,447.44934 1261.6788,469.4222 1261.7598,469.24 1285.8851,554.85245 L 1300.6873,607.38038 1336.3612,609.05806 C 1372.695,610.76679 1372.3249,608.34964 1335.0042,600.19212 1311.4522,595.04418 1293.9272,554.54799 1292.2163,501.3191 L 1291.2229,470.41403 1339.7102,456.71138 C 1366.3782,449.17492 1388.1975,442.44749 1388.1975,441.76153 1388.1975,441.07557 1396.9646,438.89986 1407.6799,436.92661 1418.3951,434.95337 1484.1589,417.22356 1553.8216,397.52703 1623.4843,377.83051 1687.4482,363.35538 1695.9637,365.36007 1704.4791,367.36477 1823.9495,394.46064 1961.4534,425.57312 2205.1999,480.72467 2278.4786,503.71485 2278.4786,525.03537 2278.4786,530.78355 2320.905,616.09089 2372.7595,714.60724 2424.614,813.12358 2467.0404,898.49414 2467.0404,904.31957 2467.0404,910.145 2452.3422,962.02384 2434.3777,1019.6059 2416.4133,1077.1879 2400.5951,1129.8179 2399.2263,1136.5614 2397.8575,1143.3048 2394.4696,1154.277 2391.6977,1160.944 2381.0625,1186.5239 2265.0099,1575.0818 2265.0099,1585.1099 2265.0099,1587.3862 2266.6742,1589.2487 2268.7083,1589.2487 2270.7425,1589.2487 2280.0229,1562.8837 2289.3315,1530.6598 z"
       id="path4332"
       inkscape:connector-curvature="0"
       transform="translate(0,-2947.6378)" />
    <path
       style="fill:#ffffff;fill-opacity:1;stroke:none"
       d="M 4588.3608,3848.4554 C 4486.1333,3820.6221 4371.6075,3789.0095 4333.8589,3778.2051 L 4265.2252,3758.5608 4204.5594,3685.7601 C 4171.1932,3645.7199 4098.8261,3557.9378 4043.7436,3490.6888 3988.6612,3423.44 3932.2946,3362.5781 3918.4847,3355.4402 3895.3189,3343.4665 3837.6219,3326.9515 3629.0002,3272.5792 L 3550.4927,3252.1181 3426.9697,3327.228 C 3234.2092,3444.4388 3141.1803,3511.9561 3032.3678,3613.6171 2880.127,3755.8519 2900.0948,3744.9868 2765.3167,3758.9272 2610.3685,3774.9537 2151.0978,3808.7909 1929.6393,3820.4965 L 1751.8524,3829.8937 1557.9031,3732.9872 1363.9538,3636.0807 1060.9081,3627.0238 C 894.23291,3622.0426 679.67651,3613.6433 584.11608,3608.3587 L 410.36984,3598.7504 266.92818,3490.1719 123.48652,3381.5933 123.48652,3195.2562 123.48652,3008.9192 164.92067,2915.2769 C 204.34466,2826.1778 252.27358,2728.1911 267.00372,2706.5767 271.20715,2700.4088 419.26106,2674.7423 653.222,2639.6222 861.893,2608.2985 1046.7438,2578.8911 1064.0017,2574.2726 1094.9522,2565.9897 1478.1184,2378.3553 1549.46,2336.5464 1569.6601,2324.7084 1586.1874,2311.126 1586.1874,2306.3633 1586.1874,2296.705 1487.5008,2142.5513 1438.0317,2074.9364 L 1406.1092,2031.3042 1211.2853,2036.8966 C 1019.4124,2042.4044 948.49168,2044.7813 693.8516,2054.2388 L 565.19113,2059.0174 427.17133,1966.3203 C 261.26997,1854.8972 246.85708,1841.0551 240.54221,1787.0815 215.96823,1577.0465 214.04391,1544.6164 224.6418,1519.1149 253.86065,1448.806 401.03514,1220.1 420.66582,1214.4978 428.33704,1212.3086 496.43484,1208.3277 571.99425,1205.6515 838.84403,1196.1998 1049.4521,1184.538 1105.3548,1176.118 1162.9405,1167.4445 1196.8044,1159.8986 1395.287,1111.5116 L 1507.4324,1084.1724 1502.042,1000.3176 C 1495.724,902.03105 1484.9796,876.46928 1443.0562,859.987 1426.2179,853.36699 1287.4909,817.45988 1134.7739,780.19343 L 857.10659,712.43624 862.6802,558.89306 C 865.74569,474.4443 870.68986,402.89569 873.66722,399.89614 876.64459,396.89658 931.26219,361.19919 995.03967,320.56859 1088.4067,261.08747 1123.0445,243.60555 1172.8265,230.83862 1227.1218,216.91423 1513.491,163.77131 1820.5428,110.63877 L 1921.558,93.15899 2119.5479,153.72051 C 2422.1373,246.27712 2413.0968,241.82643 2593.297,386.95044 L 2691.2695,465.85235 2716.0568,556.81942 C 2741.4547,650.02748 2822.6141,991.23471 2822.6141,1004.8039 2822.6141,1008.9546 2777.1573,1086.2015 2721.5989,1176.4637 2666.0405,1266.7259 2620.5836,1342.127 2620.5836,1344.0216 2620.5836,1345.9163 2613.4376,1357.3197 2604.7036,1369.3626 2587.1389,1393.5817 2556.872,1513.3074 2527.6648,1674.1015 2517.1694,1731.8822 2504.5041,1797.1923 2499.5197,1819.235 2489.7758,1862.3266 2472.8247,2241.6544 2480.1158,2253.4516 2482.5314,2257.3602 2549.828,2293.2564 2629.6637,2333.2209 L 2774.8195,2405.8838 2897.7118,2397.3809 C 2965.3025,2392.7042 3058.7878,2385.3369 3105.4568,2381.0092 3152.1259,2376.6814 3194.368,2373.1375 3199.3284,2373.1338 3204.2886,2373.1301 3216.3312,2350.3986 3226.0895,2322.6194 3235.8479,2294.8402 3254.819,2246.1824 3268.2475,2214.4911 L 3292.6631,2156.8703 3338.461,2152.0361 C 3466.1579,2138.5568 3509.5178,2136.8299 3509.5178,2145.2234 3509.5178,2161.7979 3460.5566,2361.2965 3443.6689,2413.5331 3434.3288,2442.4235 3413.1438,2484.2438 3396.5911,2506.4672 3358.1157,2558.1234 3213.4062,2710.4211 3191.8242,2721.9714 3172.0003,2732.5808 2995.22,2731.6713 2806.6918,2719.9899 2646.995,2710.0948 2615.5486,2700.8927 2419.0803,2606.5629 L 2282.3903,2540.9342 2245.9318,2434.029 C 2225.8798,2375.2311 2194.637,2281.5204 2176.5037,2225.7829 L 2143.534,2124.4421 2192.1501,1917.7488 C 2218.889,1804.0675 2240.4537,1706.3774 2240.0717,1700.6597 2239.4162,1690.8495 2228.7968,1719.2965 2219.8186,1754.9137 2217.5778,1763.803 2214.2763,1776.5309 2212.482,1783.1979 2210.6876,1789.8649 2207.3771,1802.5929 2205.1252,1811.4822 2202.8734,1820.3716 2195.5591,1847.4765 2188.8713,1871.7156 2182.1835,1895.9546 2178.3645,1917.4393 2180.3846,1919.4594 2182.4047,1921.4794 2180.7155,1927.159 2176.6309,1932.0807 2172.5463,1937.0023 2167.4575,1956.235 2165.3223,1974.8199 2163.1872,1993.4049 2159.678,2011.532 2157.5241,2015.1024 2152.2295,2023.8788 2141.004,2097.5261 2141.1376,2122.6092 2141.3416,2160.916 2153.2839,2205.4921 2203.5947,2355.7379 2265.982,2542.0485 2270.625,2551.7415 2305.5077,2568.4941 2321.0137,2575.9408 2355.5196,2592.9192 2382.1876,2606.2238 2408.8556,2619.5284 2479.7683,2652.7711 2539.7714,2680.0964 L 2648.8679,2729.7788 2915.5482,2740.4085 C 3062.2223,2746.2549 3184.0467,2749.5787 3186.269,2747.7948 3188.4914,2746.0109 3248.9517,2685.9245 3320.6255,2614.2695 L 3450.9412,2483.9876 3480.8214,2349.7654 C 3518.5355,2180.3534 3523.4745,2164.7645 3542.6929,2154.4791 3555.3586,2147.7006 3990.3105,2089.861 4034.7972,2089.0395 4041.4642,2088.9163 4078.1545,2084.0704 4116.3311,2078.2709 4189.3105,2067.1841 4307.5484,2019.8892 4544.6386,1906.9486 4645.8114,1858.7538 4655.8331,1851.9804 4671.9006,1820.9364 4681.4931,1802.4026 4703.8539,1761.7827 4721.5913,1730.67 4764.4578,1655.4787 4796.8419,1594.2286 4796.3635,1589.2487 4796.15,1587.0263 4799.7366,1582.8834 4804.3339,1580.0421 4815.5432,1573.1144 4825.3867,1458.4618 4827.4389,1310.9229 L 4829.1184,1190.181 4789.4669,1145.2579 C 4767.6586,1120.5502 4739.9473,1085.7291 4727.8863,1067.8776 4715.8253,1050.0262 4690.4077,1020.4944 4671.4027,1002.2513 4637.8165,970.01148 4634.2438,968.69263 4543.9141,955.18689 4492.8003,947.54464 4436.4338,939.78772 4418.6551,937.9494 4338.1128,929.62106 4099.1268,884.71716 4051.3382,868.93286 3999.0842,851.67365 3809.6651,773.34258 3748.924,743.87449 L 3717.6093,728.68241 3722.9594,657.81069 C 3729.4509,571.81873 3731.2555,566.65762 3758.5961,555.88922 3784.8826,545.53592 4024.9946,494.18882 4103.4875,482.13537 4134.6002,477.35768 4338.247,466.71957 4556.0359,458.49513 L 4952.0157,443.54161 5376.2797,477.84822 5800.5438,512.15482 5974.2901,572.60841 C 6069.8505,605.8579 6165.3246,640.72274 6186.4548,650.08585 6230.0292,669.39427 6240.1426,687.40048 6246.7752,757.48076 L 6251.0383,802.52527 6210.8047,819.83335 C 6188.6761,829.35279 6134.8831,850.05989 6091.2647,865.84912 6047.6463,881.63835 6007.1196,898.57269 6001.2054,903.48098 5995.2914,908.38927 5990.4525,910.1947 5990.4525,907.49298 5990.4525,903.25705 5958.03,914.13259 5897.5185,938.66589 5878.5432,946.35913 5851.1643,956.58906 5683.3661,1018.6826 5614.4737,1044.1762 5545.3793,1069.9784 5529.8229,1076.0208 5514.2666,1082.0632 5476.0828,1096.2271 5444.9701,1107.4961 5413.8574,1118.7651 5377.4919,1132.3688 5364.1579,1137.7265 5350.8239,1143.0842 5338.096,1147.9276 5335.8736,1148.4896 5315.5988,1153.6168 5258.9349,1175.1024 5222.7366,1191.3884 5096.9117,1247.9985 5096.5633,1248.2275 5081.5787,1284.1747 5073.7025,1303.0689 5064.0474,1325.8009 5060.1229,1334.6902 5053.722,1349.1883 5013.422,1466.1381 5011.3902,1476.1116 5010.9375,1478.3339 5009.1622,1483.8133 5007.4451,1488.2879 5005.728,1492.7626 5005.2818,1550.9013 5006.4537,1617.4852 L 5008.5842,1738.5468 5074.0963,1783.0957 C 5315.1152,1946.9914 5510.0705,2090.4537 5622.757,2186.8401 5667.2037,2224.8576 5735.2164,2281.4157 5773.8965,2312.5247 L 5844.2237,2369.0864 5844.6072,2459.1355 C 5844.9024,2528.4936 5842.4292,2550.1676 5833.8432,2553.4623 5827.7122,2555.815 5790.9701,2580.7507 5752.194,2608.8751 5713.4178,2636.9995 5666.0058,2669.7274 5646.8338,2681.6038 5617.5141,2699.7664 5494.3098,2793.6551 5481.3356,2807.723 5471.402,2818.4938 5513.0791,2790.7963 5677.3052,2677.4865 L 5853.0717,2556.2141 5853.0717,2457.0871 5853.0717,2357.96 5717.7113,2247.549 C 5643.2631,2186.8229 5575.0529,2131.1415 5566.1331,2123.8127 5437.7715,2018.3448 5308.6866,1923.4506 5152.0259,1819.3898 L 5020.7061,1732.1616 5020.7061,1617.1624 C 5020.7061,1518.4079 5023.5662,1492.2936 5040.9536,1432.2934 5071.3653,1327.3487 5103.6304,1261.4205 5131.6756,1246.9177 5197.6908,1212.7799 5528.8337,1086.1581 5928.0911,942.38575 6270.6478,819.03137 6264.0674,821.7137 6270.0022,803.01475 6279.3423,773.58677 6254.0015,677.55729 6230.7636,654.31944 6215.9893,639.5451 6136.7476,609.95228 6127.4112,615.72247 6123.9579,617.85671 6119.9128,616.81443 6118.4219,613.40628 6110.9612,596.34997 5823.904,499.93166 5765.3937,494.82931 5665.7285,486.13805 5522.4486,474.37489 5461.1326,469.84974 5425.5752,467.22559 5291.3533,456.52147 5162.8618,446.06282 5034.3703,435.60416 4925.2738,428.26017 4920.4252,429.74284 4915.5766,431.2255 4844.3334,434.69037 4762.107,437.44255 4679.8806,440.19472 4583.512,443.89345 4547.9547,445.66195 4512.3973,447.43046 4426.9384,451.04173 4358.046,453.687 4102.6563,463.49325 4073.7183,466.61905 3898.2573,503.35208 3802.2344,523.45463 3720.3037,543.17771 3716.1892,547.18115 3712.0746,551.1846 3708.4381,596.94006 3708.1079,648.85997 L 3707.5077,743.25979 3740.6334,760.87615 C 3758.8525,770.56516 3842.4931,805.89396 3926.5015,839.3846 4040.9376,885.00555 4096.4707,902.72126 4147.9343,910.02418 4185.714,915.38534 4312.3802,935.85168 4429.4149,955.50505 4546.4495,975.15833 4643.4349,991.23835 4644.938,991.23835 4646.4411,991.23835 4686.3312,1039.0578 4733.5826,1097.5036 L 4819.4945,1203.769 4814.952,1325.7981 C 4806.2554,1559.4255 4810.4678,1542.1794 4722.7234,1703.3952 4656.4518,1825.1585 4640.7996,1848.3318 4617.0479,1859.8508 4601.7131,1867.2877 4494.3274,1914.5504 4378.4131,1964.8789 4170.6807,2055.0736 4166.2208,2056.572 4067.2699,2069.41 3894.298,2091.8515 3313.0254,2139.461 3305.3777,2131.8132 3301.4332,2127.8688 3296.9097,2116.0021 3295.3253,2105.4427 3289.2991,2065.2815 3258.2295,1899.7643 3254.2562,1886.6556 3248.4952,1867.649 3275.5005,1861.5703 3497.396,1831.9264 3882.1861,1780.5208 4006.5009,1760.2274 4071.1627,1738.2634 4156.4431,1709.2957 4293.9011,1644.2502 4311.1221,1624.7138 4326.8315,1606.8925 4339.1935,1538.3043 4346.7805,1426.8703 4351.6197,1355.7963 4350.7949,1348.8374 4336.8697,1343.2462 4328.5157,1339.8919 4272.5871,1319.7342 4212.584,1298.4512 4152.581,1277.1682 4058.0307,1243.3202 4002.4723,1223.2335 3946.9139,1203.1467 3870.5464,1177.1092 3832.7667,1165.3725 3794.987,1153.6357 3674.7761,1114.8623 3565.6313,1079.2095 L 3367.1862,1014.386 3324.7382,883.61415 3282.2901,752.84234 3322.0568,528.35781 C 3343.9285,404.89131 3363.2349,302.73836 3364.96,301.35123 3366.685,299.96411 3444.464,263.93364 3537.8021,221.28351 L 3707.5077,143.73782 4325.7211,137.77033 C 4665.7384,134.48821 5153.036,131.52959 5408.6046,131.19561 L 5873.2748,130.58838 6083.3865,176.88966 C 6236.0413,210.52945 6306.7575,229.92048 6341.9856,247.79984 6410.4722,282.55902 6589.1555,417.4851 6662.4486,489.78561 L 6724.3126,550.81184 6729.6397,615.4616 C 6738.5997,724.20143 6746.9613,944.60243 6743.6378,984.43283 L 6740.497,1022.074 6682.6626,1047.9572 C 6631.1956,1070.9907 6021.8336,1314.6623 5793.84,1403.3795 L 5706.3241,1437.4338 5658.4796,1534.6485 C 5630.2495,1592.0091 5610.6351,1642.4809 5610.6351,1657.7624 5610.6351,1693.4703 5614.355,1696.9406 6103.0542,2117.1457 6279.1904,2268.5954 6278.2722,2267.8156 6331.8841,2311.4833 L 6370.2699,2342.7491 6370.2699,2558.7945 6370.2699,2774.8399 5989.4648,3091.1237 C 5759.7151,3281.9462 5602.9184,3417.8488 5594.1859,3433.7294 5586.2253,3448.2064 5543.8706,3526.2204 5500.0643,3607.0941 5408.0014,3777.0572 5376.082,3825.1495 5348.3365,3835.6983 5324.8426,3844.6306 4847.7437,3900.802 4804.1385,3899.7695 4787.6882,3899.38 4690.5882,3876.2887 4588.3608,3848.4554 z M 2211.8189,3626.7891 C 2214.2011,3622.9345 2200.7787,3617.6503 2181.9912,3615.0465 2129.0909,3607.7146 2007.6027,3570.8311 1953.8829,3545.7934 1927.2149,3533.3639 1865.3936,3497.7191 1816.5022,3466.5827 1667.6469,3371.7844 1648.3135,3367.0305 1780.1367,3457.6409 1940.1663,3567.6392 1959.0232,3576.3061 2135.7104,3621.0686 2189.6415,3634.7316 2206.1436,3635.972 2211.8189,3626.7891 z M 2300.5042,3608.8766 C 2432.2656,3570.2483 2593.6677,3517.835 2612.5024,3507.559 2623.6141,3501.4967 2681.7451,3476.1291 2741.6825,3451.1866 2801.6198,3426.2443 2870.8623,3395.6384 2895.5546,3383.1738 L 2940.4499,3360.5107 2954.17,3297.1439 C 2983.8891,3159.8856 2982.5998,3124.4679 2952.3046,3245.8988 2928.7819,3340.1836 2921.8096,3355.4015 2896.8192,3367.0009 2778.2894,3422.0172 2462.07,3546.7492 2398.35,3563.6211 2311.5569,3586.6021 2235.952,3611.6742 2227.2726,3620.3536 2217.7622,3629.8639 2241.7277,3626.108 2300.5042,3608.8766 z M 4895.503,3501.958 C 4895.7029,3501.1326 4927.592,3458.3155 4966.3675,3406.8089 5005.1431,3355.3023 5036.7529,3309.8454 5036.6115,3305.7937 5036.4701,3301.7418 5031.0985,3305.372 5024.6745,3313.8606 5018.2506,3322.3492 5004.5497,3338.7725 4994.228,3350.3567 4983.9064,3361.9409 4956.3635,3395.7208 4933.0214,3425.423 4909.6793,3455.1252 4884.403,3481.1989 4876.8518,3483.3646 4869.3005,3485.5303 4793.8888,3489.7873 4709.2702,3492.8247 L 4555.4182,3498.3473 4509.2296,3403.7585 C 4483.826,3351.7347 4449.6219,3277.6602 4433.2206,3239.1485 4416.8192,3200.6368 4401.3776,3167.309 4398.9058,3165.0866 4396.4339,3162.8643 4393.1568,3153.7729 4391.6233,3144.8836 4388.009,3123.9326 4374.3327,3107.4874 4365.2115,3113.1246 4361.2705,3115.5603 4358.046,3114.0027 4358.046,3109.6633 4358.046,3103.3677 4293.8636,3073.4044 4277.2338,3071.9365 4275.0114,3071.7404 4265.9201,3067.5598 4257.0307,3062.6462 4229.9335,3047.6686 3728.3735,2833.7566 3720.3527,2833.7566 3716.2307,2833.7566 3701.8247,2827.4243 3688.3394,2819.6848 3664.6086,2806.0652 3659.0698,2806.4445 3515.9587,2831.4916 3434.6344,2845.7248 3355.3686,2859.3244 3339.8122,2861.713 3324.2559,2864.1016 3302.4366,2868.4057 3291.3249,2871.2776 3280.2132,2874.1496 3265.667,2877.1662 3259,2877.9811 3247.6604,2879.3673 3189.6192,2891.1169 3176.1675,2894.7494 3172.834,2895.6495 3167.0536,2896.8406 3163.3221,2897.3962 3149.9558,2899.3864 3008.4822,3087.4814 3008.4822,3103.2622 3008.4822,3107.6809 3039.3009,3070.1668 3076.9681,3019.8975 3114.6354,2969.6282 3151.9471,2923.9508 3159.883,2918.3923 3175.4021,2907.5222 3253.4982,2890.9662 3501.1864,2846.0374 L 3658.52,2817.4982 3905.2474,2924.0089 C 4040.9475,2982.5899 4195.6135,3049.1925 4248.9495,3072.0147 4333.6444,3108.2554 4348.5269,3117.5428 4366.4784,3145.3591 4385.4545,3174.763 4442.9009,3298.917 4463.2506,3354.5048 4468.0333,3367.569 4490.5205,3409.0085 4513.2223,3446.5925 L 4554.4983,3514.9271 4724.8189,3509.1929 C 4818.4952,3506.0391 4895.303,3502.7834 4895.503,3501.958 z M 654.59253,3391.161 C 682.24289,3386.6736 758.61043,3368.2926 824.29816,3350.3143 889.98588,3332.3361 969.18623,3310.7214 1000.2989,3302.2816 1031.4116,3293.8417 1091.6145,3276.4573 1134.083,3263.6495 L 1211.2985,3240.3625 1275.5043,3259.2477 C 1413.9478,3299.9689 1548.1784,3335.0889 1551.7444,3331.5229 1555.0851,3328.1821 1490.7934,3307.132 1316.6886,3254.562 1286.2481,3245.3706 1258.0648,3239.8759 1254.0592,3242.3515 1250.0535,3244.8272 1246.7761,3243.0015 1246.7761,3238.2946 1246.7761,3223.0348 1199.1484,3229.1606 1098.6974,3257.3401 897.62845,3313.7461 659.63438,3374.2023 620.48157,3378.8185 598.25821,3381.4387 575.96724,3380.7869 570.94607,3377.3701 565.92491,3373.9533 542.53241,3338.4518 518.96273,3298.4779 L 476.10878,3225.7982 476.84683,3101.8992 C 477.25277,3033.7547 479.73233,2975.8527 482.35699,2973.228 484.98164,2970.6034 547.1377,2966.026 620.48157,2963.0561 693.82544,2960.0862 756.25565,2955.2347 759.21536,2952.275 766.09596,2945.3944 633.0657,2945.3162 536.87023,2952.1444 L 462.89777,2957.3951 462.89777,3089.6597 462.89777,3221.9243 507.412,3310.6832 C 557.81255,3411.179 551.7322,3407.8543 654.59253,3391.161 z M 5239.8736,3083.0501 C 5461.8085,2834.8004 5494.4938,2795.8265 5425.2221,2862.0409 5380.0902,2905.1809 5243.6862,3053.7275 5117.6807,3196.9594 5074.4412,3246.1101 5039.493,3294.3861 5047.151,3294.3861 5049.2346,3294.3861 5135.9599,3199.2849 5239.8736,3083.0501 z M 1250.8168,3017.8682 C 1281.9295,3004.8603 1338.2877,2983.4956 1376.0573,2970.3913 1413.8269,2957.2868 1496.313,2926.394 1559.3596,2901.7403 L 1673.9899,2856.9156 1717.9346,2778.666 C 1742.1041,2735.6288 1780.5334,2663.7983 1803.3329,2619.0429 L 1844.7865,2537.6695 1844.7865,2266.4791 C 1844.7865,2059.2677 1842.4033,1993.3629 1834.6849,1987.1259 1829.1291,1982.6364 1757.3072,1942.4159 1675.0808,1897.7471 L 1525.5782,1816.531 1380.1163,1811.7549 C 1300.1122,1809.128 1134.1166,1801.7936 1011.237,1795.456 L 787.8198,1783.9334 672.98886,1720.9362 C 609.83185,1686.2878 556.53158,1653.9021 554.54382,1648.9681 552.55607,1644.0342 560.64066,1619.4874 572.50958,1594.4199 L 594.08944,1548.8425 667.89466,1547.8856 C 708.48753,1547.3592 745.33642,1547.8542 749.7811,1548.9856 754.22577,1550.1169 814.61944,1552.6449 883.98927,1554.6033 1005.8523,1558.0438 1017.3266,1556.8997 1223.4005,1520.7594 1340.7069,1500.1867 1468.6638,1476.3966 1507.7492,1467.8924 L 1578.8137,1452.4302 1697.6579,1343.8385 C 1763.0223,1284.113 1878.3235,1175.3322 1953.8829,1102.1032 L 2091.2637,968.95988 2015.2646,815.64465 1939.2657,662.32944 1837.4778,652.10535 C 1733.4487,641.65613 1720.0579,640.28916 1642.7559,632.22747 1618.3103,629.67807 1576.4899,625.73384 1549.8219,623.46252 1523.1539,621.19119 1490.4249,617.16955 1477.0909,614.52553 1461.3119,611.39669 1455.6688,612.46204 1460.9285,617.57684 1465.3732,621.89908 1559.9234,635.22104 1671.0402,647.1812 1782.157,659.14136 1885.7986,671.49731 1901.355,674.63887 1928.643,680.1496 1932.1774,685.40725 2001.7024,823.91289 L 2073.7657,967.47495 2046.1491,996.20046 C 2011.3145,1032.4341 1623.7294,1393.9959 1587.6194,1423.9437 1562.738,1444.579 1538.7159,1449.9851 1260.33,1497.5999 932.75059,1553.6286 954.48156,1552.2697 705.33438,1532.3026 564.61158,1521.0248 579.57657,1515.5145 557.0715,1586.8948 546.269,1621.1576 538.88772,1652.9774 540.66866,1657.6055 542.4496,1662.2336 564.77262,1677.2255 590.27537,1690.9208 615.77812,1704.6161 667.77621,1732.7575 705.82668,1753.4573 773.34011,1790.1851 777.43476,1791.2817 875.5323,1798.9068 1022.3893,1810.3219 1082.3238,1813.7767 1315.4665,1824.2657 L 1525.5782,1833.7187 1681.1417,1918.897 1836.7052,2004.0753 1836.7052,2257.365 1836.7052,2510.6547 1752.682,2678.5557 1668.6588,2846.4567 1540.5499,2893.5011 C 1470.0901,2919.3756 1355.7173,2960.2777 1286.3881,2984.3948 L 1160.335,3028.244 1043.9515,3003.5319 C 979.94055,2989.9402 916.6583,2976.8921 903.32428,2974.5361 889.99027,2972.1801 864.53442,2966.9038 846.75574,2962.8112 828.97706,2958.7185 803.52121,2955.5321 790.1872,2955.7302 776.85318,2955.9284 855.03899,2977.1869 963.93344,3002.9713 1072.8279,3028.7557 1169.1964,3047.9771 1178.0858,3045.6855 1186.9751,3043.3939 1219.7041,3030.8761 1250.8168,3017.8682 z M 2261.0619,1629.6548 C 2268.6937,1592.6671 2261.051,1600.5502 2249.9761,1641.0891 2245.2224,1658.4898 2244.459,1669.3994 2248.2794,1665.3328 2252.1,1661.2662 2257.8521,1645.2111 2261.0619,1629.6548 z M 2381.3049,1241.439 C 2437.3488,1061.2553 2483.2029,909.54585 2483.2029,904.30672 2483.2029,893.95369 2306.6434,553.35402 2276.2035,504.9856 2265.9358,488.67052 2251.0346,473.32189 2243.0897,470.87754 2227.4954,466.07975 2029.8973,423.45155 1937.7205,404.99966 1871.5156,391.74681 1870.2918,391.47602 1777.8034,369.61185 1738.7405,360.3774 1696.9202,352.83595 1684.8694,352.85307 1672.8187,352.8702 1604.7742,369.41088 1533.6595,389.61015 1462.5447,409.80941 1384.5724,431.74967 1360.3877,438.36628 1266.8525,463.9562 1259.7327,475.35869 1285.1295,558.89306 1298.9441,604.33144 1301.5528,607.5432 1326.6159,609.96971 L 1353.3607,612.55903 1327.9383,589.76666 C 1306.7656,570.78412 1301.7247,559.24408 1297.782,520.72841 1292.0551,464.78324 1274.561,473.83724 1505.3422,413.30602 1677.8991,368.04637 1703.4196,363.18239 1723.5681,371.71416 1730.2352,374.53726 1801.1479,391.64679 1881.1519,409.73535 2096.9663,458.53 2214.8116,489.18775 2246.0928,504.67562 2271.1577,517.08565 2283.6519,538.2011 2369.2372,712.79085 L 2464.4864,907.09474 2453.177,947.14624 C 2446.9569,969.17459 2417.9411,1065.3835 2388.6975,1160.944 2359.4539,1256.5044 2334.7215,1340.145 2333.7366,1346.812 2332.7517,1353.479 2328.2582,1368.0252 2323.7511,1379.1369 2313.7049,1403.9045 2304.2254,1446.103 2307.2379,1452.6462 2308.4582,1455.2965 2305.4124,1462.5696 2300.4694,1468.8086 2292.3282,1479.0844 2284.8311,1502.6326 2276.7132,1543.4272 2275.0947,1551.5604 2271.6257,1566.1066 2269.0043,1575.7521 2265.4596,1588.7951 2266.1818,1590.1828 2271.8225,1581.1674 2275.994,1574.5004 2325.2611,1421.6226 2381.3049,1241.439 z M 1448.1332,616.58617 C 1446.2813,614.98235 1428.4016,611.50636 1408.4006,608.86175 1384.1182,605.65105 1377.4054,606.43124 1388.1975,611.2098 1403.6315,618.04369 1455.1528,622.66527 1448.1332,616.58617 z"
       id="path4334"
       inkscape:connector-curvature="0"
       transform="translate(0,-2947.6378)" />
  </g>
</svg>
