<?xml version="1.0" encoding="UTF-8" standalone="no"?>
<!-- Created with Inkscape (http://www.inkscape.org/) -->

<svg
   xmlns:dc="http://purl.org/dc/elements/1.1/"
   xmlns:cc="http://creativecommons.org/ns#"
   xmlns:rdf="http://www.w3.org/1999/02/22-rdf-syntax-ns#"
   xmlns:svg="http://www.w3.org/2000/svg"
   xmlns="http://www.w3.org/2000/svg"
   xmlns:sodipodi="http://sodipodi.sourceforge.net/DTD/sodipodi-0.dtd"
   xmlns:inkscape="http://www.inkscape.org/namespaces/inkscape"
   width="8000"
   height="6400"
   id="svg2"
   version="1.1"
   inkscape:version="0.48.3.1 r9886"
   sodipodi:docname="defualt-track.svg">
  <defs
     id="defs4" />
  <sodipodi:namedview
     id="base"
     pagecolor="#ffffff"
     bordercolor="#666666"
     borderopacity="1.0"
     inkscape:pageopacity="0.0"
     inkscape:pageshadow="2"
     inkscape:zoom="0.061871843"
     inkscape:cx="5620.461"
     inkscape:cy="2176.2359"
     inkscape:document-units="px"
     inkscape:current-layer="layer1"
     showgrid="false"
     inkscape:window-width="1366"
     inkscape:window-height="768"
     inkscape:window-x="0"
     inkscape:window-y="0"
     inkscape:window-maximized="0" />
  <metadata
     id="metadata7">
    <rdf:RDF>
      <cc:Work
         rdf:about="">
        <dc:format>image/svg+xml</dc:format>
        <dc:type
           rdf:resource="http://purl.org/dc/dcmitype/StillImage" />
        <dc:title></dc:title>
      </cc:Work>
    </rdf:RDF>
  </metadata>
  <g
     inkscape:label="Layer 1"
     inkscape:groupmode="layer"
     id="layer1"
     transform="translate(0,5347.6378)">
    <path
       style="fill:#000000;fill-opacity:1;fill-rule:nonzero;stroke:none"
       id="path2999"
       d="m 566.19668,668.40414 c 17.00455,79.63302 18.36821,164.49253 52.84126,239.37548 15.16151,20.26303 -9.88866,-25.44761 -11.95022,-26.04766 -63.54241,-18.49508 -96.21028,5.14833 -32.89887,-14.26208 90.25745,-34.08391 185.05916,-40.43434 280.83219,-33.19113 -12.80039,-1.01594 -25.6402,-1.61961 -38.40117,-3.04782 -7.33491,-0.82092 15.72464,1.16893 21.96862,-2.7665 24.16363,-15.22979 42.18612,-44.0354 59.20552,-65.72524 60.28146,-88.80414 131.55179,-167.90551 211.08429,-239.63548 57.7014,-51.01977 123.8225,-84.93692 197.5103,-105.31435 82.4684,-10.99531 166.0094,2.93155 248.7083,6.15383 108.7296,-8.00215 189.0973,51.6696 274.5639,110.56967 122.5571,88.95997 236.4235,189.01654 352.3791,286.20261 64.46,56.45344 142.0251,94.17073 216.8304,134.69034 71.9504,48.70219 149.9961,87.39529 223.6342,133.24049 21.305,8.8397 76.9584,55.0536 98.3479,50.533 5.1268,-23.8463 2.0942,-3.1593 -59.3287,-9.6562 -3.5527,-0.3758 7.1419,0.4548 10.7124,0.3345 5.2162,-0.1758 10.4353,-0.5402 15.6098,-1.2214 17.0867,-2.2497 33.9947,-5.6939 50.998,-8.5053 74.4906,-13.4179 150.4617,-11.345 225.79,-10.6678 13.3516,0.12 45.0562,-11.1162 40.0366,1.2564 -5.1328,12.652 -27.299,0.6609 -40.9485,0.9913 44.8242,4.243 54.4223,-21.8231 83.0167,-53.3079 59.132,-70.40334 132.392,-125.50574 205.5771,-180.16639 80.3124,-59.52608 162.3173,-116.75283 251.4755,-162.25424 46.7595,-26.74282 97.8596,-44.02444 146.2289,-67.01583 55.9192,-22.18744 114.821,-34.36173 174.684,-38.44612 105.233,-1.07429 210.3271,0.22699 315.5364,-2.1594 170.7862,3.85978 -75.5572,-6.26337 80.3356,1.1159 39.0729,1.84954 78.2987,1.95545 117.1877,6.16918 31.2181,3.38256 61.7102,16.06441 90.9243,26.58086 78.4301,34.50557 142.4225,92.48278 214.2401,138.00103 57.8343,34.49568 108.8089,78.67356 164.7822,115.76927 39.0334,30.0767 85.1056,51.95723 119.2044,88.38743 8.6171,9.20623 15.8093,19.64941 23.714,29.47411 42.6256,59.8182 51.1412,131.1448 52.9178,202.4173 0.2334,48.2922 -3.0824,96.9464 -15.0049,143.8438 2.6762,38.6434 7.7803,77.1256 10.4805,115.8519 4.3951,71.524 -5.3274,150.2628 -50.3723,209.1212 -10.4635,13.6722 -24.0509,24.6416 -36.0764,36.9624 -20.7315,9.9949 -39.1806,29.7551 -62.1946,29.9847 -123.7684,1.2347 -103.0032,-8.231 -157.0507,-62.7841 -1.1871,-1.1982 0.1617,4.2521 1.777,4.7377 43.6044,13.1108 86.6002,31.0158 131.9156,35.4604 13.5817,1.3321 24.1894,-12.6421 36.2841,-18.9631 -45.3774,79.7984 -106.8884,151.5772 -176.5493,211.285 -21.3379,18.2891 -44.4609,34.3862 -66.6914,51.5793 -79.7567,53.8424 -166.9828,94.8993 -263.1687,107.124 -61.05,7.7591 -113.4304,2.9299 -176.9213,1.4924 -14.8615,0.7999 -29.9355,-0.2289 -44.5845,2.3996 -6.9275,1.243 27.9241,0.3848 21.0352,1.8259 -15.9356,3.3338 -32.5122,2.0544 -48.6811,3.9577 -57.1936,6.7325 -113.1503,20.2644 -169.1644,33.1555 -93.9597,19.0465 -185.9648,46.4628 -280.1142,64.5289 -101.9224,20.8331 -203.9542,40.5275 -306.5806,57.8271 -120.6611,18.3256 -242.2293,25.9963 -364.0684,29.6353 -13.0655,0.8655 -26.1747,1.2223 -39.1966,2.5963 -59.484,6.2769 -117.9397,16.5167 -177.9689,18.0288 -73.231,1.8446 -146.2944,0.8664 -219.4897,0.2418 -19.2194,-0.6687 -111.2717,-3.4679 -132.718,-5.7188 -6.9503,-0.7295 27.9224,-1.0114 20.935,-1.1326 -37.8475,-0.6561 -69.667,4.1069 -105.7584,14.4955 -90.0798,39.6695 -178.5681,82.7085 -269.6055,120.2073 -73.1537,26.4613 -147.5205,48.8247 -216.4553,85.3378 -57.5918,41.7508 -112.4464,87.3625 -169.5955,129.9529 9.1364,-34.8703 -24.4557,29.4942 -31.1803,19.2891 -1.9757,-2.9983 2.0652,-6.8783 3.0502,-10.3313 6.1928,-21.7072 9.05,-44.6408 18.483,-65.1486 1.168,-2.5392 4.0694,12.377 10.2891,41.4969 19.8723,60.8347 -12.1246,118.6164 -13.3787,178.4456 6.0102,42.5505 -3.4315,87.5877 5.3648,129.7688 2.265,10.8615 7.5626,14.1489 14.6924,20.9054 2.8204,1.1517 5.4196,3.2843 8.4613,3.4552 2.9673,0.1666 5.6136,-2.9004 8.5583,-2.4992 13.07,1.781 38.9863,14.045 49.4555,18.3914 20.6479,8.5722 41.3943,16.9053 62.0729,25.4032 43.2034,13.4356 87.1018,30.2018 132.6493,33.4747 17.6842,1.2707 50.6748,0.037 68.1698,-0.3864 -10.4521,-0.6985 -41.0903,1.7752 -31.3563,-2.0955 12.8098,-5.0939 27.5453,-1.192 41.3144,-1.8644 14.1633,-0.6916 28.3307,-1.3269 42.4823,-2.2275 43.9787,-2.7985 87.9166,-5.65 131.922,-8.0985 51.6098,-3.1995 104.517,-0.8991 154.4379,-16.7219 35.9868,-11.4063 44.5821,-17.3895 78.7565,-34.4016 74.9533,-40.5195 145.5928,-88.2469 220.9248,-128.1 76.0072,-43.9879 148.0266,-62.6644 237.0183,-35.0632 15.4876,5.5899 31.0319,7.4224 47.2145,4.6322 4.403,-0.7591 17.5563,-2.1805 13.1225,-2.7325 -15.5829,-1.9397 -31.3905,-0.9968 -47.0857,-1.4952 48.1523,-0.7765 93.803,-6.2821 143.0137,0.9487 54.0512,7.9421 99.2642,50.0001 138.5395,83.7013 82.21,85.8634 121.7127,196.6534 149.0354,309.9082 31.0015,132.8336 24.671,269.2851 18.0922,404.2985 -10.4435,113.4048 -10.3153,227.2961 -13.2635,341.0119 1.8895,66.2363 -5.1552,131.9891 -9.6836,197.8629 -4.0454,34.2664 -0.2681,68.6563 0.7572,102.9786 -0.563,33.2065 1.6904,67.231 -5.4678,99.9171 -9.2473,122.1899 -92.1394,145.5117 -186.1014,188.6139 -50.8062,16.5329 -100.8669,35.5619 -152.4186,49.5988 -411.0958,111.9367 -855.668,156.7405 -1280.3547,166.7567 -117.8979,2.7806 -235.8564,-1.5199 -353.7846,-2.2798 -97.9589,-7.2044 -196.0821,-12.4446 -293.8768,-21.613 -104.05731,-9.7556 -208.6464,-16.9563 -311.56455,-35.1484 -0.56863,-0.1006 -146.67895,-37.7684 -157.19128,-77.9649 -19.15787,-73.2548 -37.39386,-151.5951 -23.18728,-225.969 5.23248,-27.3928 49.23889,-26.2016 73.85834,-39.3024 15.85525,-2.328 31.56715,-6.0602 47.56574,-6.984 11.55644,-0.6672 23.13856,1.0665 34.65497,2.2365 27.3028,2.7738 72.49246,-16.2362 81.76938,9.5916 26.5372,73.882 17.89003,157.7937 6.23741,235.4274 -1.6897,11.2573 -98.6779,32.6507 -98.99664,32.731 -86.54795,14.4981 -172.88809,36.4035 -261.10751,36.6227 31.93111,-35.0381 43.28709,-42.4574 49.10686,-112.3733 1.73896,-20.891 -13.45731,-39.7285 -19.13098,-59.9094 -1.56945,-5.5825 8.53063,3.4771 1.07774,-4.4097 9.56893,9.5542 22.27066,16.7705 28.70679,28.6627 57.79143,106.7826 57.03823,296.2772 60.85727,413.3517 3.2639,103.8172 -7.42614,207.3585 -5.91896,311.144 0.59667,41.0867 0.81634,82.7649 17.61611,120.661 2.26692,1.6225 4.05645,4.3774 6.80075,4.8674 6.89564,1.2311 14.87347,-6.778 31.15122,-0.1629 27.01867,10.9801 37.99714,20.6211 62.18288,37.3136 28.93131,21.5934 49.52903,50.606 71.2626,78.7577 2.86723,3.714 16.36063,24.7759 22.39493,20.3546 -8.54602,-15.1224 -8.50128,-7.7956 0.68497,-10.8709 17.67384,-5.9168 -26.01981,-6.5727 25.6437,2.8971 11.7962,2.1623 22.95197,0.8553 34.79936,0.2555 60.9957,-3.565 121.54391,6.7239 182.44218,10.3382 89.0986,2.0668 178.0372,10.2071 267.2176,12.6533 90.9451,8.9312 181.7811,18.9406 272.7936,27.2963 93.8166,2.3774 186.7026,15.2598 280.0876,23.4715 63.2632,5.8454 125.56,24.1473 189.3315,22.8705 -14.6734,-0.1333 -29.3834,0.6433 -44.0203,-0.3999 -8.0102,-0.5709 16.0524,-0.5619 24.0697,-1.022 9.2337,-0.5299 18.4528,-1.2883 27.6781,-1.9479 33.0083,-2.3601 65.9541,-4.3297 99.0182,-5.7412 105.6579,-2.3499 211.3208,-1.3749 316.9386,-5.315 111.6416,-6.3323 189.5788,-7.0181 293.4916,-1.0772 68.746,10.6152 141.1313,3.9601 209.2982,17.0364 18.0113,3.4551 75.3087,33.499 93.3782,42.5827 60.8339,31.849 118.3048,75.7392 186.0236,92.3233 23.06,-11.5033 108.2271,-53.6201 -78.4207,1.5813 -40.7229,12.0439 -46.1976,43.5489 -63.9144,74.0602 -1.6723,2.8801 1.3382,-6.6826 3.1354,-9.4864 13.7878,-21.5102 28.9528,-42.1058 43.4292,-63.1587 65.8587,-43.3408 99.1912,-36.9588 183.0925,-40.04 13.8389,-0.5082 28.4964,4.1359 41.5416,-0.5113 9.4352,-3.3611 -37.0273,3.296 -29.8238,-3.663 8.8983,-8.5963 24.65,-2.1636 36.975,-3.2454 63.5821,-8.1921 113.6667,-44.1301 158.216,-87.8179 34.2109,-41.4301 41.5707,-94.6885 54.9536,-144.9758 15.8657,-59.6165 21.2759,-74.8586 39.6514,-133.987 17.5118,-56.7258 43.0435,-110.1888 72.8115,-161.3779 13.9381,-23.9681 29.1983,-45.9612 40.9813,-71.1002 25.8572,-75.926 58.301,-149.0754 94.0983,-220.8457 36.9708,-73.1677 80.1549,-146.5502 146.4896,-197.2716 14.9116,-11.4018 31.4595,-20.4874 47.1892,-30.7312 76.3502,-39.5691 162.0131,-49.1519 246.1091,-59.3086 10.0974,-1.5698 20.3702,-2.2648 30.2923,-4.7094 24.3633,-6.0024 49.8381,-19.5175 72.2856,-28.9044 26.3224,-11.0074 86.9167,-35.2347 114.0409,-43.2113 18.903,-5.559 38.4044,-8.8324 57.6065,-13.2486 81.2069,-16.5637 162.3361,2.7492 243.7903,3.3879 17.5528,0.1377 126.1748,-3.8797 134.3192,-4.1636 211.5567,-11.3785 422.9574,-8.6027 634.5757,-2.5784 89.6471,10.3973 178.8037,31.245 252.0832,86.3284 21.4821,16.1478 35.2211,32.1777 53.3483,51.385 8.4632,0.6519 0.807,-9.5942 4.4504,-11.491 5.2206,-2.7179 11.7724,-0.1117 17.6545,-0.3226 7.4355,-0.2666 14.8642,-0.702 22.2933,-1.1097 36.7058,-2.0144 22.043,-1.0242 64.1064,-5.7812 -8.7292,-0.7132 -34.7435,-0.2682 -26.1875,-2.1394 15.3972,-3.3674 31.4727,-1.7835 47.2192,-2.4604 56.9837,-2.4496 113.9324,-3.3634 170.9105,-0.7828 44.1661,-15.3449 2.1673,20.4974 -2.7183,18.2533 -4.5972,-2.1116 0.1567,-10.2298 1.5254,-15.1002 6.6844,-23.7853 34.3773,-98.6152 40.8489,-116.4871 24.9149,-68.4596 49.5111,-137.0804 76.4213,-204.7933 6.1051,-15.362 12.4553,-30.6281 19.0066,-45.8052 11.4711,-26.574 2.5427,-25.8504 16.1484,-24.7809 20.7918,84.8455 7.5752,80.0151 163.5424,106.8788 17.8001,3.0659 30.0648,-20.0316 44.8873,-30.3532 0.5614,-0.391 -1.2804,-0.9511 -1.242,-1.6342 0.1095,-1.9462 0.8035,-3.8147 1.2052,-5.7221 -77.6985,-29.2044 -156.1897,-56.381 -233.0955,-87.6133 -2.0663,-0.8391 0.8677,-4.3807 1.1134,-6.5973 0.9787,-8.8286 -0.2846,-5.7321 -2.024,-16.997 -3.9492,-25.5767 -4.0385,-33.9804 -6.2942,-61.7618 -2.7096,-10.0703 -4.06,-20.6089 -8.1289,-30.2109 -15.9303,-37.5932 -47.7757,-72.0858 -73.1298,-103.1454 -34.7609,-42.5831 -30.3157,-36.9222 -64.1163,-76.0821 -27.3501,-32.5064 -60.8107,-58.2359 -93.5814,-84.8895 -22.6567,-21.8816 -51.2881,-35.5405 -74.7309,-54.709 -21.2232,-17.7015 -38.1411,-40.1155 -49.8683,-65.1412 -15.2922,-32.6332 -4.2368,-17.7919 -15.3507,-31.6852 -27.6748,-58.8236 -30.4098,-124.5065 -31.8481,-188.3567 3.8215,-68.9193 5.8641,-137.9358 9.8603,-206.8386 5.4288,-21.2365 8.4673,-43.2321 16.2862,-63.7095 62.6779,-164.151 226.1579,-259.8404 370.2601,-342.6656 89.0297,-43.2287 180.7426,-81.6703 277.3194,-104.5354 50.2352,-11.8935 100.6622,-15.5289 151.8908,-18.8962 6.9527,-35.8574 17.1218,3.6919 24.8261,0.663 33.3725,-13.1201 67.6479,-46.8574 94.7196,-69.2806 2.6087,-2.1645 45.3648,-37.6311 52.2165,-43.3424 6.7338,-5.6131 13.0261,-11.7958 20.1692,-16.8779 1.7708,-1.2599 4.8469,-3.5803 6.2343,-1.9076 1.5299,1.8446 -1.9876,9.2634 -2.1179,6.8705 -0.285,-5.2334 1.0937,-10.425 1.6405,-15.6375 7.9181,-87.8832 25.1476,-175.3726 60.6068,-256.4406 3.4099,-5.2886 5.5452,-11.6644 10.2297,-15.8658 1.2375,-1.1099 1.9321,3.0071 3.5037,3.5487 76.8795,26.4942 157.7907,42.7254 231.3503,77.3864 8.7059,4.1022 -6.1023,24.6656 -15.716,24.2197 -179.6773,-8.3334 -162.9151,-1.2599 -240.3512,-42.5405 -84.4597,-54.4887 -179.0419,-90.5219 -273.6835,-122.9057 -19.8846,-7.1414 -39.7553,-14.3219 -59.6538,-21.4243 -18.3673,-6.5559 -37.0738,-12.2142 -55.1435,-19.5505 -62.039,-25.1879 -119.5879,-59.2201 -178.4474,-90.7052 -48.8368,-33.3927 -104.4316,-37.3967 -157.5387,-60.049 -53.6474,-22.3331 -96.7723,-62.8741 -118.9991,-117.2631 -5.558,-13.6003 -9.0302,-27.9624 -13.5453,-41.9436 -12.9916,-62.3969 -9.8605,-127.2365 7.202,-188.5184 25.9918,-84.8958 35.1495,14.0057 165.7124,115.7727 2.2509,1.7545 10.3756,-4.548 7.5777,-3.9853 -14.6585,2.9474 -28.0056,10.4963 -42.1533,15.3342 -56.0222,-22.575 -120.1349,-30.9734 -168.0666,-67.725 -23.9873,-18.3923 -23.3099,-55.9586 -31.2722,-85.118 -28.5736,-104.6411 -20.3964,-235.24 -11.8067,-342.0881 9.9894,-74.5592 30.3393,-146.3402 67.5065,-211.9379 19.2519,-33.9783 43.743,-64.768 63.8462,-98.262 31.4334,-71.27469 69.6668,-129.68097 123.9168,-185.22843 81.2668,-46.20866 70.5082,-56.30865 195.3771,-5.07378 17.0577,6.99891 22.8747,28.93426 33.7529,43.82093 12.5887,17.22748 13.2046,29.46547 14.6506,26.49277 2.111,-4.33979 -3.8366,-8.85663 -5.7549,-13.28494 -37.0867,-48.91007 -30.6319,-40.98263 -102.4396,-44.33745 -1.4441,-0.0675 2.6039,1.49539 4.0482,1.55624 6.0485,0.25483 12.0702,-1.03647 18.1219,-1.19763 19.3792,-4.41177 16.6224,-5.51589 -3.0733,8.3624 13.8582,-10.93205 168.4607,185.05219 154.6025,195.98429 l 0,0 c -34.9262,21.7275 -19.9869,17.4494 -41.0693,22.0602 -82.6941,30.1633 -171.2499,31.4975 -234.2077,-38.1135 -6.2248,-9.2123 -12.4495,-18.4245 -18.6742,-27.6367 -2.8286,-4.1861 -11.4671,-16.5438 -7.9872,-12.8811 7.7829,8.1918 11.1553,22.6049 21.9956,25.7938 117.9767,34.7055 97.9467,35.6972 161.1371,-12.1671 2.4035,-3.8691 5.6975,-15.9036 7.2104,-11.6073 1.6686,4.7383 -4.3724,9.0459 -6.5119,13.591 -4.9548,10.5259 -9.4859,21.2575 -14.7707,31.6216 -19.6266,38.4905 -42.2514,75.6433 -66.6449,111.2646 -5.5485,7.1422 -23.7036,29.0539 -29.2891,40.1805 -6.8146,13.5749 -6.9039,29.599 -9.5497,44.5561 -11.2308,63.489 -8.119,46.0682 -18.8256,116.0647 -3.8201,53.7958 -6.5325,107.6682 -10.5777,161.4475 -1.8484,24.5726 -4.0639,49.1226 -6.7735,73.6152 -1.8464,16.6903 1.2272,35.2037 -6.8913,49.9028 -3.0054,5.4414 -12.0139,-3.1985 -18.0208,-4.7977 -49.2283,-13.0632 -98.4566,-26.1264 -147.6849,-39.1896 -19.1935,22.3449 31.8918,-13.2851 38.5682,-9.3696 123.029,72.1535 178.5866,64.6421 176.8525,150.1749 0.3012,33.2676 -3.215,67.1595 -7.5952,99.9914 -19.0468,-12.7258 -18.7519,-24.1465 10.3351,-12.4196 66.8014,11.2413 129.251,37.6245 189.8906,67.1587 91.5823,41.6731 188.5727,66.6407 283.9759,97.9294 139.1421,53.0077 266.9217,115.9655 349.855,245.5318 6.3448,12.8503 33.1646,36.1588 19.0344,38.5507 -69.6751,11.7941 -141.3035,-8.6425 -211.9166,-5.9009 -5.3543,0.2079 -12.2106,12.692 -7.1336,14.4055 241.6428,81.5582 231.1788,-17.1454 241.7717,93.7511 -8.1519,89.7409 -34.1777,177.2858 -66.9969,260.9072 -8.8412,23.0129 -16.2118,46.6093 -25.9656,69.2505 -22.3563,51.8953 -61.1294,94.9282 -103.9377,130.8901 -69.1669,53.0541 -142.3699,103.9945 -227.9196,126.326 -113.2585,26.6213 -215.3299,86.4835 -320.6777,133.4781 -53.8091,26.4208 -124.7227,60.7047 -178.1283,88.9549 -23.61,12.489 -46.4463,26.409 -70.0924,38.8297 -24.7488,13 -41.6857,17.8214 -63.3141,32.5194 -3.3263,2.2604 -5.9557,5.406 -8.9335,8.1089 -8.918,62.7052 -4.4342,126.7631 -9.0313,189.9006 -2.0705,32.5657 -8.7619,67.1992 -0.4102,99.1414 11.1497,34.5539 -0.4286,4.9359 -2.7942,-4.5288 27.9803,5.9318 72.7373,50.9329 94.3126,70.4217 21.7163,18.7918 -18.1894,-11.4688 28.6552,13.2853 38.45,20.3183 73.9769,45.3154 106.0892,74.7131 107.9098,108.7008 183.3229,218.6505 188.0655,377.2571 -2.511,37.1625 -6.1421,73.3392 -13.0361,109.9671 -3.6921,19.616 -8.6629,39.3644 -9.6155,39.1691 -81.2264,-16.6603 -159.6334,-44.9264 -239.4501,-67.3895 13.1001,-33.0389 51.9736,-103.3601 91.671,-100.7306 168.4605,11.1587 156.0749,25.9556 188.4482,122.1091 1.5778,13.9274 4.2453,27.7742 4.7333,41.7822 4.1234,118.3666 -47.6112,233.7119 -94.754,338.9427 -29.8915,55.1505 -37.201,70.7108 -69.1081,122.1536 -45.6231,73.5566 -87.1411,130.1215 -177.6121,144.9632 -111.5192,12.3758 -223.8554,15.6902 -336.0053,13.0772 -84.5716,-9.231 -169.18,-20.0095 -234.0737,-81.0492 -9.6957,-2.012 -18.3035,0.1175 -28.2006,0.1334 -53.7633,0.086 -107.6243,-3.4487 -161.3155,2.3726 -46.9026,12.8423 -18.6631,6.165 -122.0313,8.0405 -175.642,3.1868 -352.1694,2.9595 -526.3514,-22.9814 -85.5093,-15.7871 -67.1092,-10.5732 -142.3598,-30.4336 -12.5549,-3.3136 -48.4407,-3.6091 -37.4888,-10.5848 15.0446,-9.5825 35.6991,1.3468 53.5101,0.3802 10.5807,-0.5743 -79.27,-17.3189 -31.4983,4.2892 -48.9332,14.6001 -98.1004,28.8324 -146.648,44.6681 -25.9406,8.4615 -84.5645,29.832 -110.8101,37.5004 -15.1361,4.4224 -30.6408,7.4686 -45.9612,11.2029 -59.6636,8.4765 -119.8475,11.0837 -179.6985,17.5375 -4.0369,-0.01 -8.3101,-1.3887 -12.1108,-0.028 -44.6972,16.0036 -65.0152,85.5583 -86.4278,121.6229 -34.9817,68.6885 -75.476,134.3232 -106.4584,204.8937 -30.3692,70.1204 -50.7601,143.8863 -72.4361,217.0355 -39.9196,124.7717 -78.217,253.7602 -157.3692,360.2166 -80.0713,96.9759 -164.3163,160.8576 -287.9463,193.7664 -89.7928,11.5849 -51.4636,9.3495 -175.8761,5.9147 -11.5336,-0.3185 -41.5353,6.3657 -34.5023,-2.781 8.2971,-10.7907 27.0147,-3.3653 40.5221,-5.0479 -2.1844,-3.0043 -7.7036,-5.481 -6.5533,-9.0129 2.3908,-7.3408 10.1231,-11.6592 15.1846,-17.4888 9.5536,-17.9459 19.0629,-35.9154 28.6607,-53.8377 0.3718,-0.6943 -0.6439,1.4377 -0.9805,2.1498 -8.2341,17.4205 -12.5918,37.2845 -24.7316,52.2478 -52.8568,65.1509 -118.1704,58.5153 -193.975,45.1213 -83.7399,-24.0819 -159.1747,-64.6329 -229.7245,-115.731 -23.4225,-14.1589 -45.9764,-22.08 36.7182,-6.8727 8.9145,1.6394 -18.052,1.6582 -27.0733,2.5359 -62.1544,6.0476 -4.2084,0.7919 -75.9668,7.0805 -145.1171,9.1832 -290.7541,6.3554 -435.8915,-1.2912 -44.8045,-2.2944 -89.6078,-4.3414 -134.462,-5.412 -12.6086,-0.3009 -25.6684,2.7506 -37.8321,-0.5827 -9.9291,-2.7209 39.2522,4.6302 30.8569,-1.3288 -9.0264,-6.4068 -22.1369,-0.2253 -33.2053,-0.338 -82.006,-0.5606 -163.8534,2.295 -245.8557,2.806 -68.4208,-2.6271 -136.6275,-7.1613 -204.8686,-12.7475 -96.7759,-4.9557 -193.4378,-13.7844 -289.6849,-24.9287 -85.6676,-11.0104 -171.803,-15.9414 -258.0614,-20.1298 -91.6882,-4.7171 -182.5407,-15.3683 -273.74838,-25.5353 -63.33619,-6.7058 -126.65183,-13.7765 -189.82467,-21.6315 -53.93249,-13.1985 -108.7494,-23.8778 -153.45387,-59.3473 -24.53385,-22.6038 -44.28722,-47.3927 -67.08365,-71.4118 -5.15832,-5.435 -5.40964,-4.9529 -11.40262,-7.684 -75.80295,-21.4651 -138.56145,-61.7206 -183.46714,-128.3792 -30.20452,-53.4777 -42.60348,-68.8064 -60.67542,-130.11 -40.0875,-135.9847 -32.52486,-279.3006 -27.69722,-419.0557 7.36619,-93.1493 12.66972,-187.5321 35.68691,-278.5691 2.45131,-9.6954 2.05484,-33.2235 10.61877,-28.0593 24.93379,15.0353 18.1636,60.3934 48.98037,72.3237 -40.28136,-22.6929 -81.38922,-54.9137 -83.01825,-108.9442 -1.11249,-36.8978 14.37182,-73.1836 30.12778,-106.5668 7.09244,-15.0272 24.1977,-22.7804 36.29655,-34.1706 88.43751,-50.541 192.37543,-66.0815 292.35721,-76.6864 170.68314,1.4362 15.08496,2.6634 116.90693,233.6108 9.08218,20.5997 45.44511,2.0713 66.98817,8.6083 7.85049,2.3821 -16.02992,3.9095 -24.221,4.3689 -11.77801,0.6605 -23.58309,-0.6846 -35.37463,-1.0268 1.6565,-101.8568 2.39997,-19.8213 -42.03098,-242.5013 -0.29922,-14.9635 23.54591,-19.6131 37.76394,-24.2868 38.65296,-12.706 79.64845,-16.8414 118.98506,-27.2397 225.02454,-59.4835 -76.33156,-13.71 365.22584,-51.9594 113.6389,-5.5527 227.2122,-12.6679 340.9167,-16.6582 485.7,-17.0447 972.5186,-13.2555 1457.7788,13.3167 26.7609,2.3218 54.7712,-1.443 80.2827,6.9653 19.7035,6.4941 -15.4874,149.1113 -19.2397,88.396 -7.5031,-33.9348 -5.7935,-69.1843 -5.7796,-103.6938 1.4474,-32.8844 6.6516,-65.8699 3.1482,-98.7324 -6.8744,-66.1221 -18.6962,-131.9045 -17.9833,-198.7592 -4.4847,-118.3151 0.4428,-236.5577 6.0538,-354.7686 5.7777,-114.2947 9.1659,-229.1696 -7.0326,-342.8736 -10.6855,-65.798 -30.1865,-130.9338 -73.1974,-183.3783 -2.6001,-2.5458 -9.9927,-12.3443 -16.3303,-13.0192 -0.7806,-0.083 0.5963,1.8922 1.3812,1.9076 17.6532,0.3456 35.3082,-0.6003 52.9632,-0.8437 8.3128,-0.1146 -16.6283,0.1618 -24.9366,0.4573 -8.1375,0.2894 -16.2622,0.8648 -24.3933,1.2972 -29.9209,-0.3671 -59.868,0.202 -89.7629,-1.1012 -33.5933,-1.4645 -65.8038,-14.0374 -98.2805,-21.2329 -22.9292,9.6694 -20.6522,8.2739 65.3045,2.0855 4.9026,-0.3529 15.4574,-15.8592 -13.5716,-2.0717 -72.0338,60.5072 -147.5525,116.5002 -229.4108,163.216 -105.66,54.0487 -205.3547,92.2944 -326.2028,85.8813 -114.1406,4.3038 -227.4212,23.9913 -342.0307,15.3072 -93.9691,-8.803 -185.7164,-31.8367 -271.307,-72.412 -85.9748,-37.0695 -171.8116,-74.4071 -224.272,-157.0437 -8.8572,-17.9559 -19.6293,-35.0883 -26.5716,-53.8679 -28.4097,-76.8504 -21.9088,-159.9438 -9.5009,-239.0909 8.4061,-41.9645 16.9774,-82.6928 14.3802,-125.9 1.9261,-63.8522 4.7705,-133.0429 54.9868,-178.6323 59.7469,-64.8501 128.7758,-119.0387 200.8486,-169.659 75.6362,-45.926 156.3865,-81.2533 239.2067,-112.3645 93.9562,-34.7055 182.5027,-80.8974 274.816,-119.5752 54.7661,-23.1164 111.9439,-47.9736 172.0465,-53.2519 89.0104,-7.817 178.976,-4.5672 268.2131,-6.0607 23.8335,0.4372 47.688,0.221 71.5005,1.3115 1.4691,0.067 -5.5026,1.6463 -4.0379,1.778 21.9685,1.975 44.049,2.4058 66.062,3.7981 45.2354,2.8611 90.9358,9.7933 135.98,1.0619 116.4815,-18.7364 232.8319,-40.1095 350.3956,-50.7196 101.5826,-7.8205 203.6086,-10.7801 304.6686,-23.4003 90.3527,-15.3635 171.5277,-65.3376 261.3746,-83.7468 45.1085,-9.9279 89.8091,-21.8474 135.247,-30.1377 101.7311,-18.561 206.0929,-17.9012 308.8695,-10.5992 -10.2092,0.4166 -23.1792,-5.7445 -30.6276,1.2499 -6.2332,5.8533 16.8377,3.5915 25.388,3.6704 58.2619,0.5374 108.2228,-28.4634 154.709,-60.5371 93.6988,-65.0994 181.0974,-138.3796 261.0418,-219.8351 99.4882,-67.4839 54.7685,-60.0325 215.1833,-11.4438 7.8674,2.383 15.6935,9.8725 16.8446,18.0119 1.1349,8.0256 -8.9868,-15.3847 -16.7854,-17.5935 -34.8769,-9.878 -71.1741,-20.289 -107.3196,-17.5563 -17.283,1.3067 -28.8011,19.291 -43.2016,28.9364 -4.3081,6.6739 -9.2896,12.9585 -12.9245,20.0217 -1.0954,2.1287 -2.0777,9.2626 -1.0364,7.1069 13.3859,-27.7121 8.8918,-61.1693 11.3156,-90.5364 2.0521,-43.2387 6.3176,-86.3684 6.1236,-129.6744 -4.0892,-44.9951 -2.7076,-90.0722 2.1253,-135.0294 3.109,-46.6567 0.3414,0.9361 1.5801,-37.4827 0.1077,-3.3385 0.635,-6.6575 0.6836,-9.9974 0.029,-1.9989 -2.4479,-6.0796 -0.4512,-5.9804 2.1833,0.1084 2.8434,3.9282 2.4581,6.08 -0.2264,1.2644 -2.0994,-1.4805 -3.1492,-2.2207 -10.4103,-2.5381 -2.0587,-0 -19.7008,-11.3102 -32.8427,-21.0491 -66.2127,-41.2534 -98.0571,-63.8417 -53.073,-38.5612 -106.5233,-76.4123 -163.5566,-109.04496 -49.334,-33.81501 -95.753,-76.83806 -151.7332,-98.52097 -16.897,-1.76015 -67.8074,-4.09152 -50.8209,-3.83528 11.4804,0.17318 45.4931,-1.60403 34.4159,1.41654 -15.2601,4.16116 -31.5886,1.88827 -47.4041,2.12512 -105.1132,1.57419 -97.8047,1.18646 -177.1082,-1.21152 -46.462,-2.4344 -92.8889,-5.42325 -139.3119,-8.48185 -12.6714,-0.83487 -25.3101,-2.12795 -37.9827,-2.94553 -10.7204,-0.69163 -41.3577,4.01648 -32.1891,-1.58166 10.8781,-6.64184 25.4534,-1.38416 38.18,-2.07624 -20.7185,-0.87687 -42.2868,-4.01305 -63.027,-2.65495 -47.062,3.0817 10.3613,2.10162 -39.647,6.32979 -2.5266,0.21362 -4.9961,-0.86933 -7.4941,-1.304 -19.1917,2.44334 -3.9691,-0.77876 -30.7751,13.06852 -8.4321,4.35581 -18.2324,5.82571 -26.4052,10.65056 -16.8873,9.96947 -30.8352,24.4974 -48.8646,32.76274 -77.6578,53.40442 -157.8024,103.23109 -233.6786,159.28349 -62.27,38.7581 -128.1503,73.8576 -177.9318,128.8725 -61.7473,71.2874 -128.0326,137.7809 -224.4015,156.7226 -49.3564,2.2262 -98.8303,8.0347 -148.1383,4.9155 -9.8195,-0.6211 39.1164,1.6375 29.5128,-0.5021 -32.2588,-7.1868 -68.2821,2.3658 -100.8261,-4.7093 -75.0216,0.3688 -151.1902,24.9091 -224.7593,-4.9168 -48.3141,-19.2803 -95.4756,-41.4625 -142.9875,-62.6067 -80.8567,-36.6506 -157.219,-81.4392 -231.5,-129.9638 -83.8062,-48.5153 -168.7829,-95.0992 -250.5836,-147.0239 -125.7079,-87.07839 -247.7324,-179.67828 -354.3771,-289.93631 -7.0432,-6.65656 -41.7624,-41.13583 -56.4307,-50.80264 -18.259,-12.03313 -67.552,3.3558 -87.8172,-5.7486 -31.4207,-2.68105 -62.5366,-5.74324 -93.8091,-9.74225 -7.91,-1.01151 -31.6583,-1.685 -23.7604,-2.78746 16.0094,-2.23474 32.4338,1.21047 48.4893,-0.66443 3.496,-0.40824 -6.5549,-2.56651 -9.8323,-3.84977 -24.5166,-19.44846 -57.0274,24.05981 -73.6514,37.76709 -68.3195,67.58017 -133.0645,138.62987 -188.566,217.26533 -54.8813,65.72294 -111.2734,129.46194 -193.36636,161.50134 -17.78927,6.9428 -36.36537,13.1449 -55.40967,14.5506 -35.89154,2.6494 -71.95918,-1.662 -107.93876,-2.493 -8.44186,-0.1669 -33.65353,0.8914 -25.32557,-0.5007 14.58289,-2.4375 29.68115,-0.298 44.27536,-2.6668 6.44439,-1.046 -13.011,-1.3488 -19.53972,-1.348 -24.98337,0 -48.41227,8.3031 -72.41995,14.13 -75.63544,25.1132 -102.46329,37.2011 -196.47955,24.0731 -61.5359,-8.5925 -107.61548,-62.4585 -141.65006,-108.5318 -9.39198,-17.55604 -20.1965,-34.4266 -28.17593,-52.66808 -39.93821,-91.30121 -50.15549,-195.80182 -31.51227,-293.21778 0,-18.35802 259.62156,-18.35802 259.62156,0 z"
       inkscape:connector-curvature="0"
       transform="translate(0,-5347.6378)" />
  </g>
</svg>
